Besley-Regular.ufo
<glyph name="percent" format="2">
  <advance width="2000"/>
  <unicode hex="0025"/>
  <outline>
    <contour>
      <point x="70" y="1080" type="curve" smooth="yes"/>
      <point x="70" y="1366"/>
      <point x="244" y="1520"/>
      <point x="470" y="1520" type="curve" smooth="yes"/>
      <point x="696" y="1520"/>
      <point x="870" y="1366"/>
      <point x="870" y="1080" type="curve" smooth="yes"/>
      <point x="870" y="794"/>
      <point x="656" y="640"/>
      <point x="470" y="640" type="curve" smooth="yes"/>
      <point x="244" y="640"/>
      <point x="70" y="794"/>
    </contour>
    <contour>
      <point x="290" y="1080" type="curve" smooth="yes"/>
      <point x="290" y="876"/>
      <point x="322" y="740"/>
      <point x="470" y="740" type="curve" smooth="yes"/>
      <point x="618" y="740"/>
      <point x="650" y="876"/>
      <point x="650" y="1080" type="curve" smooth="yes"/>
      <point x="650" y="1284"/>
      <point x="618" y="1420"/>
      <point x="470" y="1420" type="curve" smooth="yes"/>
      <point x="322" y="1420"/>
      <point x="290" y="1284"/>
    </contour>
    <contour>
      <point x="1430" y="1500" type="curve" smooth="yes"/>
      <point x="1487" y="1500" type="line" smooth="yes"/>
      <point x="1522" y="1500"/>
      <point x="1520" y="1490"/>
      <point x="1506" y="1468" type="curve" smooth="yes"/>
      <point x="625" y="28" type="line" smooth="yes"/>
      <point x="612" y="7"/>
      <point x="602" y="0"/>
      <point x="567" y="0" type="curve" smooth="yes"/>
      <point x="514" y="0" type="line" smooth="yes"/>
      <point x="475" y="0"/>
      <point x="484" y="23"/>
      <point x="495" y="41" type="curve" smooth="yes"/>
      <point x="1388" y="1478" type="line" smooth="yes"/>
      <point x="1396" y="1492"/>
      <point x="1407" y="1500"/>
    </contour>
    <contour>
      <point x="1130" y="420" type="curve" smooth="yes"/>
      <point x="1130" y="706"/>
      <point x="1304" y="860"/>
      <point x="1530" y="860" type="curve" smooth="yes"/>
      <point x="1756" y="860"/>
      <point x="1930" y="706"/>
      <point x="1930" y="420" type="curve" smooth="yes"/>
      <point x="1930" y="134"/>
      <point x="1716" y="-20"/>
      <point x="1530" y="-20" type="curve" smooth="yes"/>
      <point x="1304" y="-20"/>
      <point x="1130" y="134"/>
    </contour>
    <contour>
      <point x="1350" y="420" type="curve" smooth="yes"/>
      <point x="1350" y="216"/>
      <point x="1382" y="80"/>
      <point x="1530" y="80" type="curve" smooth="yes"/>
      <point x="1678" y="80"/>
      <point x="1710" y="216"/>
      <point x="1710" y="420" type="curve" smooth="yes"/>
      <point x="1710" y="624"/>
      <point x="1678" y="760"/>
      <point x="1530" y="760" type="curve" smooth="yes"/>
      <point x="1382" y="760"/>
      <point x="1350" y="624"/>
    </contour>
  </outline>
</glyph>
<glyph name="parenleft" format="2">
  <advance width="890"/>
  <unicode hex="0028"/>
  <outline>
    <contour>
      <point x="823" y="-276" type="curve" smooth="yes"/>
      <point x="814" y="-318" type="line" smooth="yes"/>
      <point x="809" y="-342"/>
      <point x="808" y="-340"/>
      <point x="785" y="-334" type="curve" smooth="yes"/>
      <point x="355" y="-226"/>
      <point x="110" y="134"/>
      <point x="110" y="650" type="curve" smooth="yes"/>
      <point x="110" y="1155"/>
      <point x="344" y="1474"/>
      <point x="757" y="1587" type="curve" smooth="yes"/>
      <point x="786" y="1595"/>
      <point x="808" y="1604"/>
      <point x="815" y="1569" type="curve" smooth="yes"/>
      <point x="824" y="1530" type="line" smooth="yes"/>
      <point x="831" y="1497"/>
      <point x="827" y="1500"/>
      <point x="798" y="1490" type="curve" smooth="yes"/>
      <point x="473" y="1382"/>
      <point x="340" y="1099"/>
      <point x="340" y="650" type="curve" smooth="yes"/>
      <point x="340" y="198"/>
      <point x="475" y="-123"/>
      <point x="804" y="-232" type="curve" smooth="yes"/>
      <point x="833" y="-242"/>
      <point x="829" y="-245"/>
    </contour>
  </outline>
</glyph>
<glyph name="parenright" format="2">
  <advance width="890"/>
  <unicode hex="0029"/>
  <outline>
    <contour>
      <point x="67" y="1536" type="curve" smooth="yes"/>
      <point x="76" y="1578" type="line" smooth="yes"/>
      <point x="81" y="1602"/>
      <point x="82" y="1600"/>
      <point x="105" y="1594" type="curve" smooth="yes"/>
      <point x="535" y="1486"/>
      <point x="780" y="1126"/>
      <point x="780" y="610" type="curve" smooth="yes"/>
      <point x="780" y="105"/>
      <point x="546" y="-214"/>
      <point x="133" y="-327" type="curve" smooth="yes"/>
      <point x="104" y="-335"/>
      <point x="82" y="-344"/>
      <point x="75" y="-309" type="curve" smooth="yes"/>
      <point x="66" y="-270" type="line" smooth="yes"/>
      <point x="59" y="-237"/>
      <point x="63" y="-240"/>
      <point x="92" y="-230" type="curve" smooth="yes"/>
      <point x="417" y="-122"/>
      <point x="550" y="161"/>
      <point x="550" y="610" type="curve" smooth="yes"/>
      <point x="550" y="1062"/>
      <point x="415" y="1383"/>
      <point x="86" y="1492" type="curve" smooth="yes"/>
      <point x="57" y="1502"/>
      <point x="61" y="1505"/>
    </contour>
  </outline>
</glyph>
<glyph name="period" format="2">
  <advance height="2190" width="564"/>
  <unicode hex="002E"/>
  <outline>
    <contour>
      <point x="150" y="100" type="curve" smooth="yes"/>
      <point x="150" y="173"/>
      <point x="209" y="232"/>
      <point x="282" y="232" type="curve" smooth="yes"/>
      <point x="355" y="232"/>
      <point x="414" y="173"/>
      <point x="414" y="100" type="curve" smooth="yes"/>
      <point x="414" y="27"/>
      <point x="355" y="-32"/>
      <point x="282" y="-32" type="curve" smooth="yes"/>
      <point x="209" y="-32"/>
      <point x="150" y="27"/>
    </contour>
  </outline>
</glyph>
<glyph name="nine" format="2">
  <advance height="2310" width="1100"/>
  <unicode hex="0039"/>
  <outline>
    <contour>
      <point x="354" y="118" type="curve" smooth="yes"/>
      <point x="354" y="92"/>
      <point x="384" y="64"/>
      <point x="462" y="64" type="curve" smooth="yes"/>
      <point x="694" y="64"/>
      <point x="781" y="297"/>
      <point x="797" y="640" type="curve" smooth="yes"/>
      <point x="799" y="673"/>
      <point x="803" y="686"/>
      <point x="796" y="690" type="curve" smooth="yes"/>
      <point x="788" y="694"/>
      <point x="784" y="680"/>
      <point x="767" y="661" type="curve" smooth="yes"/>
      <point x="700" y="587"/>
      <point x="600" y="540"/>
      <point x="468" y="540" type="curve" smooth="yes"/>
      <point x="246" y="540"/>
      <point x="60" y="700"/>
      <point x="60" y="1030" type="curve" smooth="yes"/>
      <point x="60" y="1350"/>
      <point x="240" y="1520"/>
      <point x="522" y="1520" type="curve" smooth="yes"/>
      <point x="844" y="1520"/>
      <point x="1000" y="1330"/>
      <point x="1000" y="760" type="curve" smooth="yes"/>
      <point x="1000" y="280"/>
      <point x="794" y="-20"/>
      <point x="472" y="-20" type="curve" smooth="yes"/>
      <point x="308" y="-20"/>
      <point x="160" y="54"/>
      <point x="160" y="218" type="curve" smooth="yes"/>
      <point x="160" y="314"/>
      <point x="230" y="350"/>
      <point x="288" y="350" type="curve" smooth="yes"/>
      <point x="342" y="350"/>
      <point x="402" y="308"/>
      <point x="402" y="234" type="curve" smooth="yes"/>
      <point x="402" y="162"/>
      <point x="354" y="144"/>
    </contour>
    <contour>
      <point x="260" y="1030" type="curve" smooth="yes"/>
      <point x="260" y="802"/>
      <point x="354" y="638"/>
      <point x="512" y="638" type="curve" smooth="yes"/>
      <point x="678" y="638"/>
      <point x="800" y="780"/>
      <point x="800" y="940" type="curve" smooth="yes"/>
      <point x="800" y="1238"/>
      <point x="700" y="1430"/>
      <point x="502" y="1430" type="curve" smooth="yes"/>
      <point x="324" y="1430"/>
      <point x="260" y="1248"/>
    </contour>
  </outline>
</glyph>
<glyph name="equal" format="2">
  <advance width="1120"/>
  <unicode hex="003D"/>
  <outline>
    <contour>
      <point x="157" y="680" type="curve" smooth="yes"/>
      <point x="967" y="680" type="line" smooth="yes"/>
      <point x="997" y="680"/>
      <point x="1000" y="676"/>
      <point x="1000" y="652" type="curve" smooth="yes"/>
      <point x="1000" y="603" type="line" smooth="yes"/>
      <point x="1000" y="579"/>
      <point x="998" y="570"/>
      <point x="964" y="570" type="curve" smooth="yes"/>
      <point x="154" y="570" type="line" smooth="yes"/>
      <point x="122" y="570"/>
      <point x="120" y="574"/>
      <point x="120" y="600" type="curve" smooth="yes"/>
      <point x="120" y="652" type="line" smooth="yes"/>
      <point x="120" y="675"/>
      <point x="130" y="680"/>
    </contour>
    <contour>
      <point x="157" y="980" type="curve" smooth="yes"/>
      <point x="967" y="980" type="line" smooth="yes"/>
      <point x="997" y="980"/>
      <point x="1000" y="976"/>
      <point x="1000" y="952" type="curve" smooth="yes"/>
      <point x="1000" y="903" type="line" smooth="yes"/>
      <point x="1000" y="879"/>
      <point x="998" y="870"/>
      <point x="964" y="870" type="curve" smooth="yes"/>
      <point x="154" y="870" type="line" smooth="yes"/>
      <point x="122" y="870"/>
      <point x="120" y="874"/>
      <point x="120" y="900" type="curve" smooth="yes"/>
      <point x="120" y="952" type="line" smooth="yes"/>
      <point x="120" y="975"/>
      <point x="130" y="980"/>
    </contour>
  </outline>
</glyph>
<glyph name="D" format="2">
  <advance width="1645"/>
  <unicode hex="0044"/>
  <anchor x="684" y="1500" name="Anchor-0"/>
  <anchor x="683" y="0" name="Anchor-1"/>
  <anchor x="683" y="0" name="Anchor-2"/>
  <outline>
    <contour>
      <point x="75" y="34" type="curve" smooth="yes"/>
      <point x="75" y="72" type="line" smooth="yes"/>
      <point x="75" y="104"/>
      <point x="79" y="110"/>
      <point x="110" y="110" type="curve" smooth="yes"/>
      <point x="264" y="110" type="line" smooth="yes"/>
      <point x="294" y="110"/>
      <point x="295" y="119"/>
      <point x="295" y="150" type="curve" smooth="yes"/>
      <point x="295" y="1346" type="line" smooth="yes"/>
      <point x="295" y="1380"/>
      <point x="294" y="1390"/>
      <point x="260" y="1390" type="curve" smooth="yes"/>
      <point x="132" y="1390" type="line" smooth="yes"/>
      <point x="90" y="1390"/>
      <point x="75" y="1391"/>
      <point x="75" y="1426" type="curve" smooth="yes"/>
      <point x="75" y="1471" type="line" smooth="yes"/>
      <point x="75" y="1496"/>
      <point x="99" y="1500"/>
      <point x="130" y="1500" type="curve" smooth="yes"/>
      <point x="815" y="1500" type="line" smooth="yes"/>
      <point x="1261" y="1500"/>
      <point x="1535" y="1176"/>
      <point x="1535" y="750" type="curve" smooth="yes"/>
      <point x="1535" y="324"/>
      <point x="1241" y="0"/>
      <point x="815" y="0" type="curve" smooth="yes"/>
      <point x="110" y="0" type="line" smooth="yes"/>
      <point x="80" y="0"/>
      <point x="75" y="6"/>
    </contour>
    <contour>
      <point x="526" y="110" type="curve" smooth="yes"/>
      <point x="815" y="110" type="line" smooth="yes"/>
      <point x="1183" y="110"/>
      <point x="1305" y="386"/>
      <point x="1305" y="750" type="curve" smooth="yes"/>
      <point x="1305" y="1114"/>
      <point x="1163" y="1390"/>
      <point x="815" y="1390" type="curve" smooth="yes"/>
      <point x="528" y="1390" type="line" smooth="yes"/>
      <point x="491" y="1390"/>
      <point x="485" y="1385"/>
      <point x="485" y="1346" type="curve" smooth="yes"/>
      <point x="485" y="144" type="line" smooth="yes"/>
      <point x="485" y="112"/>
      <point x="493" y="110"/>
    </contour>
  </outline>
</glyph>
<glyph name="T" format="2">
  <advance width="1550"/>
  <unicode hex="0054"/>
  <anchor x="765" y="1500" name="Anchor-0"/>
  <anchor x="766" y="0" name="Anchor-1"/>
  <anchor x="766" y="0" name="Anchor-2"/>
  <outline>
    <contour>
      <point x="420" y="41" type="curve" smooth="yes"/>
      <point x="420" y="75" type="line" smooth="yes"/>
      <point x="420" y="107"/>
      <point x="432" y="110"/>
      <point x="462" y="110" type="curve" smooth="yes"/>
      <point x="626" y="110" type="line" smooth="yes"/>
      <point x="674" y="110"/>
      <point x="680" y="115"/>
      <point x="680" y="165" type="curve" smooth="yes"/>
      <point x="680" y="1355" type="line" smooth="yes"/>
      <point x="680" y="1393"/>
      <point x="673" y="1400"/>
      <point x="636" y="1400" type="curve" smooth="yes"/>
      <point x="540" y="1400" type="line" smooth="yes"/>
      <point x="278" y="1400"/>
      <point x="206" y="1312"/>
      <point x="200" y="1031" type="curve" smooth="yes"/>
      <point x="199" y="1000"/>
      <point x="196" y="990"/>
      <point x="162" y="990" type="curve" smooth="yes"/>
      <point x="134" y="990" type="line" smooth="yes"/>
      <point x="100" y="990"/>
      <point x="100" y="1011"/>
      <point x="100" y="1041" type="curve" smooth="yes"/>
      <point x="100" y="1447" type="line" smooth="yes"/>
      <point x="100" y="1493"/>
      <point x="103" y="1500"/>
      <point x="148" y="1500" type="curve" smooth="yes"/>
      <point x="1408" y="1500" type="line" smooth="yes"/>
      <point x="1447" y="1500"/>
      <point x="1450" y="1493"/>
      <point x="1450" y="1453" type="curve" smooth="yes"/>
      <point x="1450" y="1021" type="line" smooth="yes"/>
      <point x="1450" y="992"/>
      <point x="1442" y="990"/>
      <point x="1412" y="990" type="curve" smooth="yes"/>
      <point x="1388" y="990" type="line" smooth="yes"/>
      <point x="1351" y="990"/>
      <point x="1350" y="1005"/>
      <point x="1349" y="1037" type="curve" smooth="yes"/>
      <point x="1342" y="1314"/>
      <point x="1270" y="1400"/>
      <point x="1010" y="1400" type="curve" smooth="yes"/>
      <point x="908" y="1400" type="line" smooth="yes"/>
      <point x="873" y="1400"/>
      <point x="870" y="1393"/>
      <point x="870" y="1357" type="curve" smooth="yes"/>
      <point x="870" y="167" type="line" smooth="yes"/>
      <point x="870" y="116"/>
      <point x="875" y="110"/>
      <point x="924" y="110" type="curve" smooth="yes"/>
      <point x="1088" y="110" type="line" smooth="yes"/>
      <point x="1128" y="110"/>
      <point x="1130" y="102"/>
      <point x="1130" y="61" type="curve" smooth="yes"/>
      <point x="1130" y="42" type="line" smooth="yes"/>
      <point x="1130" y="2"/>
      <point x="1108" y="0"/>
      <point x="1072" y="0" type="curve" smooth="yes"/>
      <point x="466" y="0" type="line" smooth="yes"/>
      <point x="427" y="0"/>
      <point x="420" y="3"/>
    </contour>
  </outline>
</glyph>
<glyph name="Z" format="2">
  <advance width="1510"/>
  <unicode hex="005A"/>
  <anchor x="736" y="1500" name="Anchor-0"/>
  <anchor x="776" y="0" name="Anchor-1"/>
  <anchor x="776" y="0" name="Anchor-2"/>
  <outline>
    <contour>
      <point x="228" y="1500" type="curve" smooth="yes"/>
      <point x="1302" y="1500" type="line" smooth="yes"/>
      <point x="1327" y="1500"/>
      <point x="1330" y="1492"/>
      <point x="1330" y="1466" type="curve" smooth="yes"/>
      <point x="1330" y="1434" type="line" smooth="yes"/>
      <point x="1330" y="1386"/>
      <point x="1310" y="1364"/>
      <point x="1289" y="1338" type="curve" smooth="yes"/>
      <point x="418" y="234" type="line" smooth="yes"/>
      <point x="384" y="190"/>
      <point x="336" y="160"/>
      <point x="336" y="132" type="curve" smooth="yes"/>
      <point x="336" y="119"/>
      <point x="342" y="110"/>
      <point x="372" y="110" type="curve" smooth="yes"/>
      <point x="970" y="110" type="line" smooth="yes"/>
      <point x="1231" y="110"/>
      <point x="1304" y="188"/>
      <point x="1310" y="468" type="curve" smooth="yes"/>
      <point x="1311" y="494"/>
      <point x="1311" y="510"/>
      <point x="1341" y="510" type="curve" smooth="yes"/>
      <point x="1376" y="510" type="line" smooth="yes"/>
      <point x="1408" y="510"/>
      <point x="1410" y="497"/>
      <point x="1410" y="468" type="curve" smooth="yes"/>
      <point x="1410" y="58" type="line" smooth="yes"/>
      <point x="1410" y="4"/>
      <point x="1404" y="0"/>
      <point x="1348" y="0" type="curve" smooth="yes"/>
      <point x="128" y="0" type="line" smooth="yes"/>
      <point x="100" y="0"/>
      <point x="90" y="4"/>
      <point x="90" y="34" type="curve" smooth="yes"/>
      <point x="90" y="62" type="line" smooth="yes"/>
      <point x="90" y="100"/>
      <point x="96" y="117"/>
      <point x="112" y="137" type="curve" smooth="yes"/>
      <point x="1004" y="1268" type="line" smooth="yes"/>
      <point x="1033" y="1305"/>
      <point x="1083" y="1339"/>
      <point x="1083" y="1373" type="curve" smooth="yes"/>
      <point x="1083" y="1388"/>
      <point x="1060" y="1390"/>
      <point x="1018" y="1390" type="curve" smooth="yes"/>
      <point x="610" y="1390" type="line" smooth="yes"/>
      <point x="349" y="1390"/>
      <point x="276" y="1312"/>
      <point x="270" y="1068" type="curve" smooth="yes"/>
      <point x="270" y="1031"/>
      <point x="265" y="1030"/>
      <point x="228" y="1030" type="curve" smooth="yes"/>
      <point x="210" y="1030" type="line" smooth="yes"/>
      <point x="173" y="1030"/>
      <point x="170" y="1041"/>
      <point x="170" y="1076" type="curve" smooth="yes"/>
      <point x="170" y="1452" type="line" smooth="yes"/>
      <point x="170" y="1500"/>
      <point x="180" y="1500"/>
    </contour>
  </outline>
</glyph>
<glyph name="backslash" format="2">
  <advance width="1040"/>
  <unicode hex="005C"/>
  <outline>
    <contour>
      <point x="208" y="1560" type="line"/>
      <point x="960" y="-300" type="line"/>
      <point x="822" y="-300" type="line"/>
      <point x="80" y="1560" type="line"/>
    </contour>
  </outline>
</glyph>
<glyph name="bracketright" format="2">
  <advance width="650"/>
  <unicode hex="005D"/>
  <outline>
    <contour>
      <point x="483" y="-300" type="curve" smooth="yes"/>
      <point x="123" y="-300" type="line" smooth="yes"/>
      <point x="78" y="-300"/>
      <point x="60" y="-300"/>
      <point x="60" y="-251" type="curve" smooth="yes"/>
      <point x="60" y="-228" type="line" smooth="yes"/>
      <point x="60" y="-196"/>
      <point x="64" y="-190"/>
      <point x="95" y="-190" type="curve" smooth="yes"/>
      <point x="293" y="-190" type="line" smooth="yes"/>
      <point x="335" y="-190"/>
      <point x="360" y="-188"/>
      <point x="360" y="-141" type="curve" smooth="yes"/>
      <point x="360" y="1410" type="line" smooth="yes"/>
      <point x="360" y="1448"/>
      <point x="352" y="1450"/>
      <point x="313" y="1450" type="curve" smooth="yes"/>
      <point x="105" y="1450" type="line" smooth="yes"/>
      <point x="74" y="1450"/>
      <point x="60" y="1452"/>
      <point x="60" y="1486" type="curve" smooth="yes"/>
      <point x="60" y="1522" type="line" smooth="yes"/>
      <point x="60" y="1555"/>
      <point x="66" y="1560"/>
      <point x="101" y="1560" type="curve" smooth="yes"/>
      <point x="470" y="1560" type="line" smooth="yes"/>
      <point x="522" y="1560"/>
      <point x="540" y="1552"/>
      <point x="540" y="1491" type="curve" smooth="yes"/>
      <point x="540" y="-240" type="line" smooth="yes"/>
      <point x="540" y="-284"/>
      <point x="535" y="-300"/>
    </contour>
  </outline>
</glyph>
<glyph name="i" format="2">
  <advance height="2310" width="695"/>
  <unicode hex="0069"/>
  <anchor x="362" y="0" name="Anchor-1"/>
  <anchor x="362" y="0" name="Anchor-2"/>
  <outline>
    <contour>
      <point x="240" y="1400" type="curve" smooth="yes"/>
      <point x="240" y="1466"/>
      <point x="294" y="1520"/>
      <point x="360" y="1520" type="curve" smooth="yes"/>
      <point x="426" y="1520"/>
      <point x="480" y="1466"/>
      <point x="480" y="1400" type="curve" smooth="yes"/>
      <point x="480" y="1334"/>
      <point x="426" y="1280"/>
      <point x="360" y="1280" type="curve" smooth="yes"/>
      <point x="294" y="1280"/>
      <point x="240" y="1334"/>
    </contour>
    <contour>
      <point x="256" y="930" type="curve" smooth="yes"/>
      <point x="121" y="930" type="line" smooth="yes"/>
      <point x="101" y="930"/>
      <point x="100" y="934"/>
      <point x="100" y="954" type="curve" smooth="yes"/>
      <point x="100" y="1014" type="line" smooth="yes"/>
      <point x="100" y="1034"/>
      <point x="105" y="1040"/>
      <point x="124" y="1040" type="curve" smooth="yes"/>
      <point x="441" y="1040" type="line" smooth="yes"/>
      <point x="457" y="1040"/>
      <point x="460" y="1036"/>
      <point x="460" y="1019" type="curve" smooth="yes"/>
      <point x="460" y="134" type="line" smooth="yes"/>
      <point x="460" y="117"/>
      <point x="465" y="110"/>
      <point x="481" y="110" type="curve" smooth="yes"/>
      <point x="616" y="110" type="line" smooth="yes"/>
      <point x="635" y="110"/>
      <point x="640" y="109"/>
      <point x="640" y="90" type="curve" smooth="yes"/>
      <point x="640" y="24" type="line" smooth="yes"/>
      <point x="640" y="5"/>
      <point x="640" y="0"/>
      <point x="621" y="0" type="curve" smooth="yes"/>
      <point x="131" y="0" type="line" smooth="yes"/>
      <point x="108" y="0"/>
      <point x="100" y="2"/>
      <point x="100" y="24" type="curve" smooth="yes"/>
      <point x="100" y="80" type="line" smooth="yes"/>
      <point x="100" y="106"/>
      <point x="109" y="110"/>
      <point x="133" y="110" type="curve" smooth="yes"/>
      <point x="257" y="110" type="line" smooth="yes"/>
      <point x="279" y="110"/>
      <point x="280" y="116"/>
      <point x="280" y="138" type="curve" smooth="yes"/>
      <point x="280" y="906" type="line" smooth="yes"/>
      <point x="280" y="926"/>
      <point x="274" y="930"/>
    </contour>
  </outline>
</glyph>
<glyph name="n" format="2">
  <advance height="2310" width="1375"/>
  <unicode hex="006E"/>
  <anchor x="700" y="1040" name="Anchor-0"/>
  <anchor x="689" y="0" name="Anchor-1"/>
  <anchor x="689" y="0" name="Anchor-2"/>
  <outline>
    <contour>
      <point x="251" y="930" type="curve" smooth="yes"/>
      <point x="116" y="930" type="line" smooth="yes"/>
      <point x="99" y="930"/>
      <point x="95" y="937"/>
      <point x="95" y="955" type="curve" smooth="yes"/>
      <point x="95" y="1017" type="line" smooth="yes"/>
      <point x="95" y="1033"/>
      <point x="99" y="1040"/>
      <point x="114" y="1040" type="curve" smooth="yes"/>
      <point x="424" y="1040" type="line" smooth="yes"/>
      <point x="446" y="1040"/>
      <point x="455" y="1023"/>
      <point x="455" y="1005" type="curve" smooth="yes"/>
      <point x="455" y="888" type="line" smooth="yes"/>
      <point x="455" y="836"/>
      <point x="462" y="849"/>
      <point x="475" y="871" type="curve" smooth="yes"/>
      <point x="539" y="978"/>
      <point x="648" y="1060"/>
      <point x="821" y="1060" type="curve" smooth="yes"/>
      <point x="1075" y="1060"/>
      <point x="1145" y="952"/>
      <point x="1145" y="738" type="curve" smooth="yes"/>
      <point x="1145" y="155" type="line" smooth="yes"/>
      <point x="1145" y="120"/>
      <point x="1146" y="110"/>
      <point x="1181" y="110" type="curve" smooth="yes"/>
      <point x="1299" y="110" type="line" smooth="yes"/>
      <point x="1321" y="110"/>
      <point x="1325" y="103"/>
      <point x="1325" y="80" type="curve" smooth="yes"/>
      <point x="1325" y="22" type="line" smooth="yes"/>
      <point x="1325" y="0"/>
      <point x="1316" y="0"/>
      <point x="1294" y="0" type="curve" smooth="yes"/>
      <point x="807" y="0" type="line" smooth="yes"/>
      <point x="786" y="0"/>
      <point x="785" y="9"/>
      <point x="785" y="31" type="curve" smooth="yes"/>
      <point x="785" y="81" type="line" smooth="yes"/>
      <point x="785" y="103"/>
      <point x="789" y="110"/>
      <point x="810" y="110" type="curve" smooth="yes"/>
      <point x="925" y="110" type="line" smooth="yes"/>
      <point x="957" y="110"/>
      <point x="965" y="114"/>
      <point x="965" y="149" type="curve" smooth="yes"/>
      <point x="965" y="716" type="line" smooth="yes"/>
      <point x="965" y="864"/>
      <point x="907" y="946"/>
      <point x="775" y="946" type="curve" smooth="yes"/>
      <point x="579" y="946"/>
      <point x="455" y="772"/>
      <point x="455" y="566" type="curve" smooth="yes"/>
      <point x="455" y="151" type="line" smooth="yes"/>
      <point x="455" y="120"/>
      <point x="466" y="110"/>
      <point x="497" y="110" type="curve" smooth="yes"/>
      <point x="600" y="110" type="line" smooth="yes"/>
      <point x="627" y="110"/>
      <point x="635" y="105"/>
      <point x="635" y="76" type="curve" smooth="yes"/>
      <point x="635" y="30" type="line" smooth="yes"/>
      <point x="635" y="6"/>
      <point x="630" y="0"/>
      <point x="607" y="0" type="curve" smooth="yes"/>
      <point x="123" y="0" type="line" smooth="yes"/>
      <point x="99" y="0"/>
      <point x="95" y="7"/>
      <point x="95" y="32" type="curve" smooth="yes"/>
      <point x="95" y="78" type="line" smooth="yes"/>
      <point x="95" y="106"/>
      <point x="105" y="110"/>
      <point x="131" y="110" type="curve" smooth="yes"/>
      <point x="241" y="110" type="line" smooth="yes"/>
      <point x="267" y="110"/>
      <point x="275" y="113"/>
      <point x="275" y="138" type="curve" smooth="yes"/>
      <point x="275" y="913" type="line" smooth="yes"/>
      <point x="275" y="928"/>
      <point x="267" y="930"/>
    </contour>
  </outline>
</glyph>
<glyph name="s" format="2">
  <advance height="2310" width="1035"/>
  <unicode hex="0073"/>
  <anchor x="485" y="1040" name="Anchor-0"/>
  <anchor x="485" y="0" name="Anchor-1"/>
  <anchor x="485" y="0" name="Anchor-2"/>
  <outline>
    <contour>
      <point x="781" y="729" type="curve" smooth="yes"/>
      <point x="733" y="877"/>
      <point x="606" y="962"/>
      <point x="471" y="962" type="curve" smooth="yes"/>
      <point x="365" y="962"/>
      <point x="305" y="906"/>
      <point x="305" y="822" type="curve" smooth="yes"/>
      <point x="305" y="542"/>
      <point x="935" y="700"/>
      <point x="935" y="304" type="curve" smooth="yes"/>
      <point x="935" y="96"/>
      <point x="775" y="-24"/>
      <point x="581" y="-24" type="curve" smooth="yes"/>
      <point x="451" y="-24"/>
      <point x="348" y="27"/>
      <point x="287" y="81" type="curve" smooth="yes"/>
      <point x="266" y="100"/>
      <point x="255" y="103"/>
      <point x="246" y="76" type="curve" smooth="yes"/>
      <point x="223" y="4" type="line" smooth="yes"/>
      <point x="218" y="-11"/>
      <point x="207" y="-20"/>
      <point x="186" y="-20" type="curve" smooth="yes"/>
      <point x="140" y="-20" type="line" smooth="yes"/>
      <point x="120" y="-20"/>
      <point x="115" y="-13"/>
      <point x="115" y="7" type="curve" smooth="yes"/>
      <point x="115" y="315" type="line" smooth="yes"/>
      <point x="115" y="339"/>
      <point x="120" y="346"/>
      <point x="143" y="346" type="curve" smooth="yes"/>
      <point x="204" y="346" type="line" smooth="yes"/>
      <point x="226" y="346"/>
      <point x="231" y="335"/>
      <point x="236" y="319" type="curve" smooth="yes"/>
      <point x="288" y="158"/>
      <point x="385" y="80"/>
      <point x="551" y="80" type="curve" smooth="yes"/>
      <point x="691" y="80"/>
      <point x="769" y="144"/>
      <point x="769" y="246" type="curve" smooth="yes"/>
      <point x="769" y="520"/>
      <point x="149" y="348"/>
      <point x="149" y="770" type="curve" smooth="yes"/>
      <point x="149" y="958"/>
      <point x="289" y="1064"/>
      <point x="459" y="1064" type="curve" smooth="yes"/>
      <point x="589" y="1064"/>
      <point x="682" y="1011"/>
      <point x="735" y="956" type="curve" smooth="yes"/>
      <point x="756" y="934"/>
      <point x="755" y="923"/>
      <point x="766" y="959" type="curve" smooth="yes"/>
      <point x="792" y="1038" type="line" smooth="yes"/>
      <point x="798" y="1056"/>
      <point x="803" y="1060"/>
      <point x="828" y="1060" type="curve" smooth="yes"/>
      <point x="873" y="1060" type="line" smooth="yes"/>
      <point x="893" y="1060"/>
      <point x="899" y="1054"/>
      <point x="899" y="1032" type="curve" smooth="yes"/>
      <point x="899" y="725" type="line" smooth="yes"/>
      <point x="899" y="703"/>
      <point x="893" y="700"/>
      <point x="870" y="700" type="curve" smooth="yes"/>
      <point x="814" y="700" type="line" smooth="yes"/>
      <point x="786" y="700"/>
      <point x="787" y="709"/>
    </contour>
  </outline>
</glyph>
<glyph name="t" format="2">
  <advance height="2310" width="740"/>
  <unicode hex="0074"/>
  <anchor x="327" y="1277" name="Anchor-0"/>
  <anchor x="517" y="1153" name="Anchor-1"/>
  <anchor x="440" y="0" name="Anchor-2"/>
  <anchor x="517" y="1153" name="Anchor-3"/>
  <outline>
    <contour>
      <point x="704" y="195" type="curve" smooth="yes"/>
      <point x="663" y="74"/>
      <point x="574" y="-24"/>
      <point x="418" y="-24" type="curve" smooth="yes"/>
      <point x="274" y="-24"/>
      <point x="216" y="62"/>
      <point x="216" y="172" type="curve" smooth="yes"/>
      <point x="216" y="896" type="line" smooth="yes"/>
      <point x="216" y="920"/>
      <point x="208" y="930"/>
      <point x="184" y="930" type="curve" smooth="yes"/>
      <point x="65" y="930" type="line" smooth="yes"/>
      <point x="37" y="930"/>
      <point x="30" y="933"/>
      <point x="30" y="960" type="curve" smooth="yes"/>
      <point x="30" y="1014" type="line" smooth="yes"/>
      <point x="30" y="1039"/>
      <point x="35" y="1040"/>
      <point x="60" y="1040" type="curve" smooth="yes"/>
      <point x="204" y="1040"/>
      <point x="227" y="1058"/>
      <point x="280" y="1291" type="curve" smooth="yes"/>
      <point x="285" y="1313"/>
      <point x="287" y="1320"/>
      <point x="316" y="1320" type="curve" smooth="yes"/>
      <point x="370" y="1320" type="line" smooth="yes"/>
      <point x="390" y="1320"/>
      <point x="396" y="1311"/>
      <point x="396" y="1291" type="curve" smooth="yes"/>
      <point x="396" y="1071" type="line" smooth="yes"/>
      <point x="396" y="1043"/>
      <point x="409" y="1040"/>
      <point x="435" y="1040" type="curve" smooth="yes"/>
      <point x="657" y="1040" type="line" smooth="yes"/>
      <point x="683" y="1040"/>
      <point x="690" y="1035"/>
      <point x="690" y="1007" type="curve" smooth="yes"/>
      <point x="690" y="955" type="line" smooth="yes"/>
      <point x="690" y="931"/>
      <point x="681" y="930"/>
      <point x="657" y="930" type="curve" smooth="yes"/>
      <point x="437" y="930" type="line" smooth="yes"/>
      <point x="409" y="930"/>
      <point x="396" y="928"/>
      <point x="396" y="897" type="curve" smooth="yes"/>
      <point x="396" y="214" type="line" smooth="yes"/>
      <point x="396" y="134"/>
      <point x="430" y="100"/>
      <point x="484" y="100" type="curve" smooth="yes"/>
      <point x="541" y="100"/>
      <point x="587" y="142"/>
      <point x="622" y="218" type="curve" smooth="yes"/>
      <point x="631" y="238"/>
      <point x="634" y="241"/>
      <point x="656" y="233" type="curve" smooth="yes"/>
      <point x="688" y="222" type="line" smooth="yes"/>
      <point x="704" y="216"/>
      <point x="710" y="212"/>
    </contour>
  </outline>
</glyph>
<glyph name="asciitilde" format="2">
  <advance height="2310" width="1376"/>
  <unicode hex="007E"/>
  <outline>
    <contour>
      <point x="456" y="874" type="curve" smooth="yes"/>
      <point x="368" y="874"/>
      <point x="321" y="818"/>
      <point x="315" y="709" type="curve" smooth="yes"/>
      <point x="314" y="687"/>
      <point x="307" y="686"/>
      <point x="284" y="686" type="curve" smooth="yes"/>
      <point x="234" y="686" type="line" smooth="yes"/>
      <point x="208" y="686"/>
      <point x="200" y="689"/>
      <point x="201" y="714" type="curve" smooth="yes"/>
      <point x="212" y="924"/>
      <point x="347" y="1020"/>
      <point x="498" y="1020" type="curve" smooth="yes"/>
      <point x="738" y="1020"/>
      <point x="738" y="832"/>
      <point x="920" y="832" type="curve" smooth="yes"/>
      <point x="1005" y="832"/>
      <point x="1053" y="885"/>
      <point x="1061" y="989" type="curve" smooth="yes"/>
      <point x="1063" y="1014"/>
      <point x="1068" y="1020"/>
      <point x="1096" y="1020" type="curve" smooth="yes"/>
      <point x="1142" y="1020" type="line" smooth="yes"/>
      <point x="1167" y="1020"/>
      <point x="1177" y="1019"/>
      <point x="1176" y="992" type="curve" smooth="yes"/>
      <point x="1168" y="777"/>
      <point x="1031" y="686"/>
      <point x="878" y="686" type="curve" smooth="yes"/>
      <point x="604" y="686"/>
      <point x="612" y="874"/>
    </contour>
  </outline>
</glyph>
<glyph name="cent" format="2">
  <advance height="2310" width="1116"/>
  <unicode hex="00A2"/>
  <anchor x="606" y="1040" name="Anchor-0"/>
  <anchor x="604" y="0" name="Anchor-1"/>
  <anchor x="604" y="0" name="Anchor-2"/>
  <outline>
    <contour>
      <point x="652" y="1230" type="curve" smooth="yes"/>
      <point x="722" y="1230" type="line" smooth="yes"/>
      <point x="743" y="1230"/>
      <point x="746" y="1225"/>
      <point x="743" y="1205" type="curve" smooth="yes"/>
      <point x="548" y="-146" type="line" smooth="yes"/>
      <point x="545" y="-164"/>
      <point x="537" y="-170"/>
      <point x="518" y="-170" type="curve" smooth="yes"/>
      <point x="464" y="-170" type="line" smooth="yes"/>
      <point x="442" y="-170"/>
      <point x="438" y="-164"/>
      <point x="440" y="-147" type="curve" smooth="yes"/>
      <point x="635" y="1216" type="line" smooth="yes"/>
      <point x="637" y="1229"/>
      <point x="637" y="1230"/>
    </contour>
    <component base="c"/>
  </outline>
</glyph>
<glyph name="mu" format="2">
  <advance width="1233"/>
  <unicode hex="00B5"/>
  <anchor x="665" y="1040" name="Anchor-0"/>
  <anchor x="677" y="0" name="Anchor-1"/>
  <anchor x="677" y="0" name="Anchor-2"/>
  <anchor x="1107" y="0" name="Anchor-3"/>
  <outline>
    <contour>
      <point x="347" y="847" type="line"/>
      <point x="347" y="-242" type="line" smooth="yes"/>
      <point x="347" y="-413"/>
      <point x="441" y="-423"/>
      <point x="449" y="-415" type="curve" smooth="yes"/>
      <point x="456" y="-407"/>
      <point x="436" y="-406"/>
      <point x="436" y="-352" type="curve" smooth="yes"/>
      <point x="436" y="-297"/>
      <point x="494" y="-246"/>
      <point x="559" y="-246" type="curve" smooth="yes"/>
      <point x="629" y="-246"/>
      <point x="682" y="-308"/>
      <point x="682" y="-380" type="curve" smooth="yes"/>
      <point x="682" y="-471"/>
      <point x="615" y="-520"/>
      <point x="515" y="-520" type="curve" smooth="yes"/>
      <point x="353" y="-520"/>
      <point x="235" y="-409"/>
      <point x="235" y="-242" type="curve" smooth="yes"/>
      <point x="235" y="847" type="line"/>
    </contour>
    <component base="u"/>
  </outline>
</glyph>
<glyph name="guillemotright" format="2">
  <advance width="1390"/>
  <unicode hex="00BB"/>
  <outline>
    <contour>
      <point x="528" y="775" type="line"/>
      <point x="60" y="1170" type="line"/>
      <point x="120" y="1260" type="line"/>
      <point x="780" y="800" type="line"/>
      <point x="780" y="750" type="line"/>
      <point x="120" y="290" type="line"/>
      <point x="60" y="380" type="line"/>
    </contour>
    <contour>
      <point x="1088" y="775" type="line"/>
      <point x="620" y="1170" type="line"/>
      <point x="680" y="1260" type="line"/>
      <point x="1340" y="800" type="line"/>
      <point x="1340" y="750" type="line"/>
      <point x="680" y="290" type="line"/>
      <point x="620" y="380" type="line"/>
    </contour>
  </outline>
</glyph>
<glyph name="onequarter" format="2">
  <advance width="2000"/>
  <unicode hex="00BC"/>
  <outline>
    <contour>
      <point x="1402" y="1440" type="line"/>
      <point x="1530" y="1440" type="line"/>
      <point x="608" y="-60" type="line"/>
      <point x="470" y="-60" type="line"/>
    </contour>
    <component base="one" xScale="0.6" yScale="0.6" xOffset="214.0" yOffset="632.0"/>
    <component base="four" xScale="0.6" yScale="0.6" xOffset="1070.0" yOffset="4.0"/>
  </outline>
</glyph>
<glyph name="multiply" format="2">
  <advance width="1003"/>
  <unicode hex="00D7"/>
  <outline>
    <contour>
      <point x="525" y="886" type="curve" smooth="yes"/>
      <point x="727" y="1088" type="line" smooth="yes"/>
      <point x="743" y="1104"/>
      <point x="754" y="1109"/>
      <point x="771" y="1092" type="curve" smooth="yes"/>
      <point x="812" y="1052" type="line" smooth="yes"/>
      <point x="824" y="1040"/>
      <point x="829" y="1033"/>
      <point x="817" y="1021" type="curve" smooth="yes"/>
      <point x="606" y="811" type="line" smooth="yes"/>
      <point x="583" y="788"/>
      <point x="580" y="780"/>
      <point x="602" y="758" type="curve" smooth="yes"/>
      <point x="816" y="544" type="line" smooth="yes"/>
      <point x="828" y="532"/>
      <point x="825" y="526"/>
      <point x="812" y="513" type="curve" smooth="yes"/>
      <point x="771" y="472" type="line" smooth="yes"/>
      <point x="757" y="458"/>
      <point x="753" y="454"/>
      <point x="739" y="468" type="curve" smooth="yes"/>
      <point x="530" y="677" type="line" smooth="yes"/>
      <point x="505" y="702"/>
      <point x="501" y="705"/>
      <point x="476" y="680" type="curve" smooth="yes"/>
      <point x="270" y="475" type="line" smooth="yes"/>
      <point x="252" y="457"/>
      <point x="246" y="458"/>
      <point x="229" y="475" type="curve" smooth="yes"/>
      <point x="191" y="513" type="line" smooth="yes"/>
      <point x="175" y="529"/>
      <point x="178" y="538"/>
      <point x="193" y="553" type="curve" smooth="yes"/>
      <point x="399" y="760" type="line" smooth="yes"/>
      <point x="418" y="779"/>
      <point x="420" y="787"/>
      <point x="399" y="808" type="curve" smooth="yes"/>
      <point x="194" y="1013" type="line" smooth="yes"/>
      <point x="178" y="1029"/>
      <point x="176" y="1037"/>
      <point x="194" y="1055" type="curve" smooth="yes"/>
      <point x="234" y="1095" type="line" smooth="yes"/>
      <point x="248" y="1109"/>
      <point x="255" y="1105"/>
      <point x="270" y="1090" type="curve" smooth="yes"/>
      <point x="473" y="887" type="line" smooth="yes"/>
      <point x="496" y="864"/>
      <point x="503" y="864"/>
    </contour>
  </outline>
</glyph>
<glyph name="Oslash" format="2">
  <advance width="1660"/>
  <unicode hex="00D8"/>
  <anchor x="826" y="1500" name="Anchor-0"/>
  <anchor x="826" y="0" name="Anchor-1"/>
  <anchor x="826" y="0" name="Anchor-2"/>
  <outline>
    <contour>
      <point x="1186" y="1660" type="curve" smooth="yes"/>
      <point x="1231" y="1660" type="line" smooth="yes"/>
      <point x="1269" y="1660"/>
      <point x="1270" y="1655"/>
      <point x="1260" y="1630" type="curve" smooth="yes"/>
      <point x="543" y="-168" type="line" smooth="yes"/>
      <point x="532" y="-196"/>
      <point x="522" y="-200"/>
      <point x="481" y="-200" type="curve" smooth="yes"/>
      <point x="449" y="-200" type="line" smooth="yes"/>
      <point x="400" y="-200"/>
      <point x="397" y="-189"/>
      <point x="409" y="-158" type="curve" smooth="yes"/>
      <point x="1130" y="1626" type="line" smooth="yes"/>
      <point x="1141" y="1653"/>
      <point x="1146" y="1660"/>
    </contour>
    <component base="O"/>
  </outline>
</glyph>
<glyph name="germandbls" format="2">
  <advance height="2309" width="1561"/>
  <unicode hex="00DF"/>
  <outline>
    <contour>
      <point x="1402" y="320" type="curve" smooth="yes"/>
      <point x="1402" y="100"/>
      <point x="1244" y="-20"/>
      <point x="1002" y="-20" type="curve" smooth="yes"/>
      <point x="829" y="-20"/>
      <point x="626" y="77"/>
      <point x="626" y="241" type="curve" smooth="yes"/>
      <point x="626" y="323"/>
      <point x="680" y="372"/>
      <point x="750" y="372" type="curve" smooth="yes"/>
      <point x="811" y="372"/>
      <point x="858" y="332"/>
      <point x="858" y="260" type="curve" smooth="yes"/>
      <point x="858" y="225"/>
      <point x="842" y="196"/>
      <point x="817" y="176" type="curve" smooth="yes"/>
      <point x="795" y="159"/>
      <point x="795" y="152"/>
      <point x="811" y="141" type="curve" smooth="yes"/>
      <point x="861" y="107"/>
      <point x="925" y="93"/>
      <point x="993" y="93" type="curve" smooth="yes"/>
      <point x="1131" y="93"/>
      <point x="1200" y="162"/>
      <point x="1200" y="290" type="curve" smooth="yes"/>
      <point x="1200" y="505"/>
      <point x="836" y="577"/>
      <point x="836" y="787" type="curve" smooth="yes"/>
      <point x="836" y="1007"/>
      <point x="1130" y="1045"/>
      <point x="1130" y="1233" type="curve" smooth="yes"/>
      <point x="1130" y="1378"/>
      <point x="1014" y="1463"/>
      <point x="806" y="1463" type="curve" smooth="yes"/>
      <point x="488" y="1463"/>
      <point x="391" y="1246"/>
      <point x="391" y="962" type="curve" smooth="yes"/>
      <point x="391" y="37" type="line" smooth="yes"/>
      <point x="391" y="5"/>
      <point x="385" y="0"/>
      <point x="351" y="0" type="curve" smooth="yes"/>
      <point x="60" y="0" type="line" smooth="yes"/>
      <point x="32" y="0"/>
      <point x="29" y="8"/>
      <point x="29" y="37" type="curve" smooth="yes"/>
      <point x="29" y="80" type="line" smooth="yes"/>
      <point x="29" y="108"/>
      <point x="37" y="113"/>
      <point x="63" y="113" type="curve" smooth="yes"/>
      <point x="173" y="113" type="line" smooth="yes"/>
      <point x="209" y="113"/>
      <point x="210" y="128"/>
      <point x="210" y="161" type="curve" smooth="yes"/>
      <point x="210" y="982" type="line" smooth="yes"/>
      <point x="210" y="1328"/>
      <point x="380" y="1570"/>
      <point x="806" y="1570" type="curve" smooth="yes"/>
      <point x="1142" y="1570"/>
      <point x="1333" y="1448"/>
      <point x="1333" y="1262" type="curve" smooth="yes"/>
      <point x="1333" y="1043"/>
      <point x="994" y="950"/>
      <point x="994" y="843" type="curve" smooth="yes"/>
      <point x="994" y="717"/>
      <point x="1402" y="547"/>
    </contour>
  </outline>
</glyph>
<glyph name="thorn" format="2">
  <advance height="2310" width="1276"/>
  <unicode hex="00FE"/>
  <anchor x="798" y="1040" name="Anchor-0"/>
  <anchor x="877" y="0" name="Anchor-1"/>
  <anchor x="877" y="0" name="Anchor-2"/>
  <outline>
    <contour>
      <point x="410" y="520" type="curve" smooth="yes"/>
      <point x="410" y="292"/>
      <point x="524" y="84"/>
      <point x="706" y="84" type="curve" smooth="yes"/>
      <point x="874" y="84"/>
      <point x="986" y="292"/>
      <point x="986" y="520" type="curve" smooth="yes"/>
      <point x="986" y="748"/>
      <point x="874" y="956"/>
      <point x="706" y="956" type="curve" smooth="yes"/>
      <point x="524" y="956"/>
      <point x="410" y="748"/>
    </contour>
    <contour>
      <point x="50" y="1490" type="curve" smooth="yes"/>
      <point x="50" y="1528" type="line" smooth="yes"/>
      <point x="50" y="1557"/>
      <point x="61" y="1560"/>
      <point x="87" y="1560" type="curve" smooth="yes"/>
      <point x="373" y="1560" type="line" smooth="yes"/>
      <point x="404" y="1560"/>
      <point x="410" y="1556"/>
      <point x="410" y="1526" type="curve" smooth="yes"/>
      <point x="410" y="892" type="line" smooth="yes"/>
      <point x="410" y="842"/>
      <point x="416" y="844"/>
      <point x="428" y="866" type="curve" smooth="yes"/>
      <point x="493" y="984"/>
      <point x="607" y="1060"/>
      <point x="742" y="1060" type="curve" smooth="yes"/>
      <point x="980" y="1060"/>
      <point x="1186" y="860"/>
      <point x="1186" y="520" type="curve" smooth="yes"/>
      <point x="1186" y="180"/>
      <point x="980" y="-18"/>
      <point x="742" y="-18" type="curve" smooth="yes"/>
      <point x="618" y="-18"/>
      <point x="517" y="39"/>
      <point x="450" y="138" type="curve" smooth="yes"/>
      <point x="420" y="182"/>
      <point x="410" y="184"/>
      <point x="410" y="78" type="curve" smooth="yes"/>
      <point x="410" y="-344" type="line" smooth="yes"/>
      <point x="410" y="-385"/>
      <point x="417" y="-390"/>
      <point x="457" y="-390" type="curve" smooth="yes"/>
      <point x="555" y="-390" type="line" smooth="yes"/>
      <point x="585" y="-390"/>
      <point x="590" y="-396"/>
      <point x="590" y="-428" type="curve" smooth="yes"/>
      <point x="590" y="-469" type="line" smooth="yes"/>
      <point x="590" y="-498"/>
      <point x="587" y="-500"/>
      <point x="559" y="-500" type="curve" smooth="yes"/>
      <point x="81" y="-500" type="line" smooth="yes"/>
      <point x="54" y="-500"/>
      <point x="50" y="-489"/>
      <point x="50" y="-464" type="curve" smooth="yes"/>
      <point x="50" y="-424" type="line" smooth="yes"/>
      <point x="50" y="-398"/>
      <point x="52" y="-390"/>
      <point x="77" y="-390" type="curve" smooth="yes"/>
      <point x="191" y="-390" type="line" smooth="yes"/>
      <point x="228" y="-390"/>
      <point x="230" y="-382"/>
      <point x="230" y="-344" type="curve" smooth="yes"/>
      <point x="230" y="1412" type="line" smooth="yes"/>
      <point x="230" y="1447"/>
      <point x="218" y="1450"/>
      <point x="185" y="1450" type="curve" smooth="yes"/>
      <point x="85" y="1450" type="line" smooth="yes"/>
      <point x="53" y="1450"/>
      <point x="50" y="1460"/>
    </contour>
  </outline>
</glyph>
<glyph name="dcroat" format="2">
  <advance height="2309" width="1283"/>
  <unicode hex="0111"/>
  <anchor x="576" y="1040" name="Anchor-0"/>
  <anchor x="1314" y="1040" name="Anchor-1"/>
  <anchor x="757" y="0" name="Anchor-2"/>
  <anchor x="1314" y="1040" name="Anchor-3"/>
  <outline>
    <contour>
      <point x="543" y="1300" type="curve" smooth="yes"/>
      <point x="1211" y="1300" type="line" smooth="yes"/>
      <point x="1236" y="1300"/>
      <point x="1238" y="1296"/>
      <point x="1238" y="1272" type="curve" smooth="yes"/>
      <point x="1238" y="1223" type="line" smooth="yes"/>
      <point x="1238" y="1199"/>
      <point x="1236" y="1190"/>
      <point x="1208" y="1190" type="curve" smooth="yes"/>
      <point x="541" y="1190" type="line" smooth="yes"/>
      <point x="514" y="1190"/>
      <point x="513" y="1194"/>
      <point x="513" y="1220" type="curve" smooth="yes"/>
      <point x="513" y="1272" type="line" smooth="yes"/>
      <point x="513" y="1295"/>
      <point x="521" y="1300"/>
    </contour>
    <component base="d"/>
  </outline>
</glyph>
<glyph name="Hbar" format="2">
  <advance width="1770"/>
  <unicode hex="0126"/>
  <anchor x="876" y="1500" name="Anchor-0"/>
  <anchor x="876" y="0" name="Anchor-1"/>
  <anchor x="876" y="0" name="Anchor-2"/>
  <outline>
    <contour>
      <point x="143" y="1190" type="curve" smooth="yes"/>
      <point x="1633" y="1190" type="line" smooth="yes"/>
      <point x="1688" y="1190"/>
      <point x="1695" y="1186"/>
      <point x="1695" y="1162" type="curve" smooth="yes"/>
      <point x="1695" y="1113" type="line" smooth="yes"/>
      <point x="1695" y="1089"/>
      <point x="1690" y="1080"/>
      <point x="1628" y="1080" type="curve" smooth="yes"/>
      <point x="138" y="1080" type="line" smooth="yes"/>
      <point x="78" y="1080"/>
      <point x="76" y="1084"/>
      <point x="76" y="1110" type="curve" smooth="yes"/>
      <point x="76" y="1162" type="line" smooth="yes"/>
      <point x="76" y="1185"/>
      <point x="93" y="1190"/>
    </contour>
    <component base="H"/>
  </outline>
</glyph>
<glyph name="hbar" format="2">
  <advance height="2309" width="1345"/>
  <unicode hex="0127"/>
  <anchor x="843" y="1035" name="Anchor-0"/>
  <anchor x="684" y="0" name="Anchor-1"/>
  <anchor x="684" y="0" name="Anchor-2"/>
  <outline>
    <contour>
      <point x="108" y="1290" type="curve" smooth="yes"/>
      <point x="870" y="1290" type="line" smooth="yes"/>
      <point x="898" y="1290"/>
      <point x="901" y="1286"/>
      <point x="901" y="1262" type="curve" smooth="yes"/>
      <point x="901" y="1213" type="line" smooth="yes"/>
      <point x="901" y="1189"/>
      <point x="899" y="1180"/>
      <point x="867" y="1180" type="curve" smooth="yes"/>
      <point x="106" y="1180" type="line" smooth="yes"/>
      <point x="76" y="1180"/>
      <point x="74" y="1184"/>
      <point x="74" y="1210" type="curve" smooth="yes"/>
      <point x="74" y="1262" type="line" smooth="yes"/>
      <point x="74" y="1285"/>
      <point x="82" y="1290"/>
    </contour>
    <component base="h"/>
  </outline>
</glyph>
<glyph name="lslash" format="2">
  <advance height="2309" width="619"/>
  <unicode hex="0142"/>
  <anchor x="328" y="1696" name="Anchor-0"/>
  <anchor x="571" y="1040" name="Anchor-1"/>
  <anchor x="335" y="0" name="Anchor-2"/>
  <anchor x="571" y="1040" name="Anchor-3"/>
  <outline>
    <contour>
      <point x="60" y="810" type="curve" smooth="yes"/>
      <point x="590" y="1145" type="line" smooth="yes"/>
      <point x="611" y="1159"/>
      <point x="614" y="1165"/>
      <point x="614" y="1128" type="curve" smooth="yes"/>
      <point x="614" y="1068" type="line" smooth="yes"/>
      <point x="614" y="1031"/>
      <point x="610" y="1030"/>
      <point x="588" y="1016" type="curve" smooth="yes"/>
      <point x="68" y="687" type="line" smooth="yes"/>
      <point x="48" y="674"/>
      <point x="44" y="665"/>
      <point x="44" y="701" type="curve" smooth="yes"/>
      <point x="44" y="775" type="line" smooth="yes"/>
      <point x="44" y="799"/>
      <point x="46" y="801"/>
    </contour>
    <component base="l"/>
  </outline>
</glyph>
<glyph name="tbar" format="2">
  <advance height="2309" width="709"/>
  <unicode hex="0167"/>
  <anchor x="327" y="1277" name="Anchor-0"/>
  <anchor x="517" y="1153" name="Anchor-1"/>
  <anchor x="440" y="0" name="Anchor-2"/>
  <anchor x="517" y="1153" name="Anchor-3"/>
  <outline>
    <contour>
      <point x="43" y="720" type="curve" smooth="yes"/>
      <point x="652" y="720" type="line" smooth="yes"/>
      <point x="674" y="720"/>
      <point x="678" y="716"/>
      <point x="678" y="692" type="curve" smooth="yes"/>
      <point x="678" y="643" type="line" smooth="yes"/>
      <point x="678" y="619"/>
      <point x="675" y="610"/>
      <point x="650" y="610" type="curve" smooth="yes"/>
      <point x="41" y="610" type="line" smooth="yes"/>
      <point x="17" y="610"/>
      <point x="16" y="614"/>
      <point x="16" y="640" type="curve" smooth="yes"/>
      <point x="16" y="692" type="line" smooth="yes"/>
      <point x="16" y="715"/>
      <point x="23" y="720"/>
    </contour>
    <component base="t"/>
  </outline>
</glyph>
<glyph name="longs" format="2">
  <advance height="2310" width="782"/>
  <unicode hex="017F"/>
  <outline>
    <contour>
      <point x="402" y="146" type="line" smooth="yes"/>
      <point x="402" y="114"/>
      <point x="403" y="110"/>
      <point x="435" y="110" type="curve" smooth="yes"/>
      <point x="603" y="110" type="line" smooth="yes"/>
      <point x="622" y="110"/>
      <point x="642" y="109"/>
      <point x="642" y="88" type="curve" smooth="yes"/>
      <point x="642" y="30" type="line" smooth="yes"/>
      <point x="642" y="5"/>
      <point x="634" y="0"/>
      <point x="610" y="0" type="curve" smooth="yes"/>
      <point x="65" y="0" type="line" smooth="yes"/>
      <point x="44" y="0"/>
      <point x="42" y="4"/>
      <point x="42" y="26" type="curve" smooth="yes"/>
      <point x="42" y="88" type="line" smooth="yes"/>
      <point x="42" y="108"/>
      <point x="52" y="110"/>
      <point x="70" y="110" type="curve" smooth="yes"/>
      <point x="200" y="110" type="line" smooth="yes"/>
      <point x="221" y="110"/>
      <point x="222" y="117"/>
      <point x="222" y="137" type="curve" smooth="yes"/>
      <point x="222" y="1144" type="line" smooth="yes"/>
      <point x="222" y="1406"/>
      <point x="356" y="1580"/>
      <point x="616" y="1580" type="curve" smooth="yes"/>
      <point x="818" y="1580"/>
      <point x="952" y="1472"/>
      <point x="952" y="1358" type="curve" smooth="yes"/>
      <point x="952" y="1272"/>
      <point x="904" y="1226"/>
      <point x="834" y="1226" type="curve" smooth="yes"/>
      <point x="764" y="1226"/>
      <point x="718" y="1266"/>
      <point x="718" y="1322" type="curve" smooth="yes"/>
      <point x="718" y="1382"/>
      <point x="760" y="1396"/>
      <point x="760" y="1436" type="curve" smooth="yes"/>
      <point x="760" y="1460"/>
      <point x="724" y="1490"/>
      <point x="620" y="1490" type="curve" smooth="yes"/>
      <point x="460" y="1490"/>
      <point x="402" y="1354"/>
      <point x="402" y="1100" type="curve" smooth="yes"/>
    </contour>
  </outline>
</glyph>
<glyph name="jdotless" format="2">
  <advance height="2310" width="584"/>
  <unicode hex="0237"/>
  <anchor x="295" y="1040" name="Anchor-0"/>
  <anchor x="142" y="-565" name="Anchor-1"/>
  <anchor x="142" y="-565" name="Anchor-2"/>
  <outline>
    <contour>
      <point x="210" y="930" type="curve" smooth="yes"/>
      <point x="73" y="930" type="line" smooth="yes"/>
      <point x="54" y="930"/>
      <point x="50" y="931"/>
      <point x="50" y="950" type="curve" smooth="yes"/>
      <point x="50" y="1017" type="line" smooth="yes"/>
      <point x="50" y="1037"/>
      <point x="53" y="1040"/>
      <point x="73" y="1040" type="curve" smooth="yes"/>
      <point x="386" y="1040" type="line" smooth="yes"/>
      <point x="404" y="1040"/>
      <point x="410" y="1037"/>
      <point x="410" y="1018" type="curve" smooth="yes"/>
      <point x="410" y="22" type="line" smooth="yes"/>
      <point x="410" y="-278"/>
      <point x="368" y="-520"/>
      <point x="86" y="-520" type="curve" smooth="yes"/>
      <point x="-92" y="-520"/>
      <point x="-196" y="-404"/>
      <point x="-196" y="-280" type="curve" smooth="yes"/>
      <point x="-196" y="-204"/>
      <point x="-148" y="-138"/>
      <point x="-78" y="-138" type="curve" smooth="yes"/>
      <point x="-10" y="-138"/>
      <point x="38" y="-184"/>
      <point x="38" y="-250" type="curve" smooth="yes"/>
      <point x="38" y="-320"/>
      <point x="0" y="-318"/>
      <point x="0" y="-358" type="curve" smooth="yes"/>
      <point x="0" y="-384"/>
      <point x="12" y="-432"/>
      <point x="86" y="-432" type="curve" smooth="yes"/>
      <point x="308" y="-432"/>
      <point x="230" y="-20"/>
      <point x="230" y="208" type="curve" smooth="yes"/>
      <point x="230" y="911" type="line" smooth="yes"/>
      <point x="230" y="926"/>
      <point x="224" y="930"/>
    </contour>
  </outline>
</glyph>
<glyph name="acutecomb" format="2">
  <unicode hex="0301"/>
  <anchor x="429" y="1500" name="_Anchor-0"/>
  <outline>
    <contour>
      <point x="374" y="1677" type="curve" smooth="yes"/>
      <point x="340" y="1713" type="line" smooth="yes"/>
      <point x="328" y="1726"/>
      <point x="328" y="1734"/>
      <point x="340" y="1745" type="curve" smooth="yes"/>
      <point x="536" y="1936" type="line" smooth="yes"/>
      <point x="573" y="1973"/>
      <point x="641" y="1966"/>
      <point x="668" y="1920" type="curve" smooth="yes"/>
      <point x="697" y="1870"/>
      <point x="675" y="1827"/>
      <point x="641" y="1807" type="curve" smooth="yes"/>
      <point x="413" y="1674" type="line" smooth="yes"/>
      <point x="395" y="1663"/>
      <point x="389" y="1661"/>
    </contour>
  </outline>
</glyph>
<glyph name="Delta" format="2">
  <advance width="1720"/>
  <unicode hex="0394"/>
  <outline>
    <contour>
      <point x="1248" y="110" type="line" smooth="yes"/>
      <point x="1280" y="110"/>
      <point x="1272" y="127"/>
      <point x="1265" y="146" type="curve" smooth="yes"/>
      <point x="848" y="1256" type="line" smooth="yes"/>
      <point x="833" y="1296"/>
      <point x="831" y="1296"/>
      <point x="816" y="1262" type="curve" smooth="yes"/>
      <point x="346" y="158" type="line" smooth="yes"/>
      <point x="332" y="126"/>
      <point x="333" y="110"/>
      <point x="377" y="110" type="curve" smooth="yes"/>
    </contour>
    <contour>
      <point x="1468" y="0" type="curve" smooth="yes"/>
      <point x="216" y="0" type="line" smooth="yes"/>
      <point x="166" y="0"/>
      <point x="155" y="12"/>
      <point x="167" y="40" type="curve" smooth="yes"/>
      <point x="808" y="1520" type="line" smooth="yes"/>
      <point x="812" y="1529"/>
      <point x="816" y="1530"/>
      <point x="829" y="1530" type="curve" smooth="yes"/>
      <point x="909" y="1530" type="line" smooth="yes"/>
      <point x="925" y="1530"/>
      <point x="931" y="1529"/>
      <point x="935" y="1518" type="curve" smooth="yes"/>
      <point x="1522" y="44" type="line" smooth="yes"/>
      <point x="1535" y="12"/>
      <point x="1528" y="0"/>
    </contour>
  </outline>
</glyph>
<glyph name="E-cy" format="2">
  <advance width="1620"/>
  <unicode hex="0404"/>
  <anchor x="866" y="1500" name="Anchor-0"/>
  <anchor x="867" y="0" name="Anchor-1"/>
  <anchor x="867" y="0" name="Anchor-2"/>
  <outline>
    <contour>
      <point x="110" y="750" type="curve" smooth="yes"/>
      <point x="110" y="1196"/>
      <point x="464" y="1520"/>
      <point x="870" y="1520" type="curve" smooth="yes"/>
      <point x="1063" y="1520"/>
      <point x="1213" y="1439"/>
      <point x="1314" y="1333" type="curve" smooth="yes"/>
      <point x="1334" y="1312"/>
      <point x="1342" y="1312"/>
      <point x="1353" y="1349" type="curve" smooth="yes"/>
      <point x="1395" y="1492" type="line" smooth="yes"/>
      <point x="1399" y="1506"/>
      <point x="1397" y="1510"/>
      <point x="1416" y="1510" type="curve" smooth="yes"/>
      <point x="1470" y="1510" type="line" smooth="yes"/>
      <point x="1487" y="1510"/>
      <point x="1490" y="1507"/>
      <point x="1490" y="1491" type="curve" smooth="yes"/>
      <point x="1490" y="1016" type="line" smooth="yes"/>
      <point x="1490" y="994"/>
      <point x="1484" y="990"/>
      <point x="1461" y="990" type="curve" smooth="yes"/>
      <point x="1400" y="990" type="line" smooth="yes"/>
      <point x="1374" y="990"/>
      <point x="1380" y="998"/>
      <point x="1376" y="1019" type="curve" smooth="yes"/>
      <point x="1342" y="1213"/>
      <point x="1154" y="1404"/>
      <point x="880" y="1404" type="curve" smooth="yes"/>
      <point x="567" y="1404"/>
      <point x="381" y="1170"/>
      <point x="346" y="858" type="curve" smooth="yes"/>
      <point x="342" y="823"/>
      <point x="343" y="810"/>
      <point x="384" y="810" type="curve" smooth="yes"/>
      <point x="853" y="810" type="line" smooth="yes"/>
      <point x="881" y="810"/>
      <point x="893" y="803"/>
      <point x="893" y="778" type="curve" smooth="yes"/>
      <point x="893" y="728" type="line" smooth="yes"/>
      <point x="893" y="707"/>
      <point x="885" y="700"/>
      <point x="847" y="700" type="curve" smooth="yes"/>
      <point x="384" y="700" type="line" smooth="yes"/>
      <point x="343" y="700"/>
      <point x="340" y="691"/>
      <point x="343" y="652" type="curve" smooth="yes"/>
      <point x="369" y="331"/>
      <point x="541" y="98"/>
      <point x="860" y="98" type="curve" smooth="yes"/>
      <point x="1181" y="98"/>
      <point x="1371" y="335"/>
      <point x="1398" y="574" type="curve" smooth="yes"/>
      <point x="1399" y="586"/>
      <point x="1404" y="590"/>
      <point x="1418" y="590" type="curve" smooth="yes"/>
      <point x="1488" y="590" type="line" smooth="yes"/>
      <point x="1502" y="590"/>
      <point x="1510" y="589"/>
      <point x="1509" y="576" type="curve" smooth="yes"/>
      <point x="1484" y="236"/>
      <point x="1241" y="-20"/>
      <point x="840" y="-20" type="curve" smooth="yes"/>
      <point x="414" y="-20"/>
      <point x="110" y="304"/>
    </contour>
  </outline>
</glyph>
<glyph name="Dzhe-cy" format="2">
  <advance width="1770"/>
  <unicode hex="040F"/>
  <anchor x="876" y="1500" name="Anchor-0"/>
  <anchor x="876" y="0" name="Anchor-1"/>
  <anchor x="876" y="0" name="Anchor-2"/>
  <outline>
    <contour>
      <point x="485" y="162" type="line" smooth="yes"/>
      <point x="485" y="120"/>
      <point x="486" y="110"/>
      <point x="528" y="110" type="curve" smooth="yes"/>
      <point x="1246" y="110" type="line" smooth="yes"/>
      <point x="1280" y="110"/>
      <point x="1285" y="117"/>
      <point x="1285" y="153" type="curve" smooth="yes"/>
      <point x="1285" y="1350" type="line" smooth="yes"/>
      <point x="1285" y="1381"/>
      <point x="1280" y="1390"/>
      <point x="1247" y="1390" type="curve" smooth="yes"/>
      <point x="1078" y="1390" type="line" smooth="yes"/>
      <point x="1051" y="1390"/>
      <point x="1045" y="1395"/>
      <point x="1045" y="1424" type="curve" smooth="yes"/>
      <point x="1045" y="1450" type="line" smooth="yes"/>
      <point x="1045" y="1495"/>
      <point x="1051" y="1500"/>
      <point x="1095" y="1500" type="curve" smooth="yes"/>
      <point x="1655" y="1500" type="line" smooth="yes"/>
      <point x="1688" y="1500"/>
      <point x="1695" y="1495"/>
      <point x="1695" y="1460" type="curve" smooth="yes"/>
      <point x="1695" y="1432" type="line" smooth="yes"/>
      <point x="1695" y="1396"/>
      <point x="1689" y="1390"/>
      <point x="1654" y="1390" type="curve" smooth="yes"/>
      <point x="1516" y="1390" type="line" smooth="yes"/>
      <point x="1484" y="1390"/>
      <point x="1475" y="1388"/>
      <point x="1475" y="1356" type="curve" smooth="yes"/>
      <point x="1475" y="149" type="line" smooth="yes"/>
      <point x="1475" y="117"/>
      <point x="1484" y="110"/>
      <point x="1514" y="110" type="curve" smooth="yes"/>
      <point x="1660" y="110" type="line" smooth="yes"/>
      <point x="1694" y="110"/>
      <point x="1695" y="99"/>
      <point x="1695" y="64" type="curve" smooth="yes"/>
      <point x="1695" y="38" type="line" smooth="yes"/>
      <point x="1695" y="6"/>
      <point x="1685" y="0"/>
      <point x="1655" y="0" type="curve" smooth="yes"/>
      <point x="1266" y="0" type="line" smooth="yes"/>
      <point x="1003" y="0"/>
      <point x="927" y="-93"/>
      <point x="927" y="-379" type="curve" smooth="yes"/>
      <point x="927" y="-408"/>
      <point x="919" y="-410"/>
      <point x="888" y="-410" type="curve" smooth="yes"/>
      <point x="864" y="-410" type="line" smooth="yes"/>
      <point x="834" y="-410"/>
      <point x="826" y="-408"/>
      <point x="826" y="-379" type="curve" smooth="yes"/>
      <point x="826" y="-93"/>
      <point x="750" y="0"/>
      <point x="487" y="0" type="curve" smooth="yes"/>
      <point x="115" y="0" type="line" smooth="yes"/>
      <point x="83" y="0"/>
      <point x="75" y="4"/>
      <point x="75" y="38" type="curve" smooth="yes"/>
      <point x="75" y="76" type="line" smooth="yes"/>
      <point x="75" y="104"/>
      <point x="84" y="110"/>
      <point x="114" y="110" type="curve" smooth="yes"/>
      <point x="240" y="110" type="line" smooth="yes"/>
      <point x="284" y="110"/>
      <point x="295" y="112"/>
      <point x="295" y="156" type="curve" smooth="yes"/>
      <point x="295" y="1356" type="line" smooth="yes"/>
      <point x="295" y="1384"/>
      <point x="288" y="1390"/>
      <point x="258" y="1390" type="curve" smooth="yes"/>
      <point x="114" y="1390" type="line" smooth="yes"/>
      <point x="87" y="1390"/>
      <point x="75" y="1393"/>
      <point x="75" y="1422" type="curve" smooth="yes"/>
      <point x="75" y="1456" type="line" smooth="yes"/>
      <point x="75" y="1498"/>
      <point x="86" y="1500"/>
      <point x="125" y="1500" type="curve" smooth="yes"/>
      <point x="685" y="1500" type="line" smooth="yes"/>
      <point x="721" y="1500"/>
      <point x="725" y="1493"/>
      <point x="725" y="1456" type="curve" smooth="yes"/>
      <point x="725" y="1426" type="line" smooth="yes"/>
      <point x="725" y="1398"/>
      <point x="723" y="1390"/>
      <point x="696" y="1390" type="curve" smooth="yes"/>
      <point x="527" y="1390" type="line" smooth="yes"/>
      <point x="488" y="1390"/>
      <point x="485" y="1377"/>
      <point x="485" y="1340" type="curve" smooth="yes"/>
    </contour>
  </outline>
</glyph>
<glyph name="De-cy" format="2">
  <advance height="2080" width="1584"/>
  <unicode hex="0414"/>
  <outline>
    <contour>
      <point x="597" y="1390" type="line" smooth="yes"/>
      <point x="554" y="1390"/>
      <point x="552" y="1382"/>
      <point x="552" y="1338" type="curve" smooth="yes"/>
      <point x="552" y="930"/>
      <point x="540" y="398"/>
      <point x="343" y="174" type="curve" smooth="yes"/>
      <point x="291" y="115"/>
      <point x="287" y="110"/>
      <point x="371" y="110" type="curve" smooth="yes"/>
      <point x="1042" y="110" type="line" smooth="yes"/>
      <point x="1077" y="110"/>
      <point x="1110" y="114"/>
      <point x="1110" y="160" type="curve" smooth="yes"/>
      <point x="1110" y="1356" type="line" smooth="yes"/>
      <point x="1110" y="1382"/>
      <point x="1110" y="1390"/>
      <point x="1080" y="1390" type="curve" smooth="yes"/>
    </contour>
    <contour>
      <point x="1300" y="1354" type="curve" smooth="yes"/>
      <point x="1300" y="154" type="line" smooth="yes"/>
      <point x="1300" y="121"/>
      <point x="1309" y="110"/>
      <point x="1338" y="110" type="curve" smooth="yes"/>
      <point x="1518" y="110" type="line" smooth="yes"/>
      <point x="1537" y="110"/>
      <point x="1540" y="97"/>
      <point x="1540" y="78" type="curve" smooth="yes"/>
      <point x="1540" y="-379" type="line" smooth="yes"/>
      <point x="1540" y="-408"/>
      <point x="1532" y="-410"/>
      <point x="1502" y="-410" type="curve" smooth="yes"/>
      <point x="1478" y="-410" type="line" smooth="yes"/>
      <point x="1441" y="-410"/>
      <point x="1440" y="-395"/>
      <point x="1439" y="-363" type="curve" smooth="yes"/>
      <point x="1432" y="-86"/>
      <point x="1360" y="0"/>
      <point x="1100" y="0" type="curve" smooth="yes"/>
      <point x="440" y="0" type="line" smooth="yes"/>
      <point x="178" y="0"/>
      <point x="106" y="-88"/>
      <point x="100" y="-369" type="curve" smooth="yes"/>
      <point x="99" y="-400"/>
      <point x="96" y="-410"/>
      <point x="62" y="-410" type="curve" smooth="yes"/>
      <point x="34" y="-410" type="line" smooth="yes"/>
      <point x="0" y="-410"/>
      <point x="0" y="-389"/>
      <point x="0" y="-359" type="curve" smooth="yes"/>
      <point x="0" y="82" type="line" smooth="yes"/>
      <point x="0" y="103"/>
      <point x="8" y="110"/>
      <point x="46" y="110" type="curve" smooth="yes"/>
      <point x="409" y="110"/>
      <point x="432" y="898"/>
      <point x="432" y="1331" type="curve" smooth="yes"/>
      <point x="432" y="1376"/>
      <point x="430" y="1390"/>
      <point x="385" y="1390" type="curve" smooth="yes"/>
      <point x="247" y="1390" type="line" smooth="yes"/>
      <point x="205" y="1390"/>
      <point x="202" y="1397"/>
      <point x="202" y="1440" type="curve" smooth="yes"/>
      <point x="202" y="1460" type="line" smooth="yes"/>
      <point x="202" y="1499"/>
      <point x="216" y="1500"/>
      <point x="252" y="1500" type="curve" smooth="yes"/>
      <point x="1504" y="1500" type="line" smooth="yes"/>
      <point x="1534" y="1500"/>
      <point x="1540" y="1497"/>
      <point x="1540" y="1466" type="curve" smooth="yes"/>
      <point x="1540" y="1432" type="line" smooth="yes"/>
      <point x="1540" y="1397"/>
      <point x="1523" y="1390"/>
      <point x="1498" y="1390" type="curve" smooth="yes"/>
      <point x="1338" y="1390" type="line" smooth="yes"/>
      <point x="1306" y="1390"/>
      <point x="1300" y="1387"/>
    </contour>
  </outline>
</glyph>
<glyph name="Zhe-cy" format="2">
  <advance height="2080" width="2220"/>
  <unicode hex="0416"/>
  <outline>
    <contour>
      <point x="2265" y="190" type="curve" smooth="yes"/>
      <point x="2229" y="69"/>
      <point x="2144" y="-20"/>
      <point x="1980" y="-20" type="curve" smooth="yes"/>
      <point x="1544" y="-20"/>
      <point x="1973" y="690"/>
      <point x="1460" y="690" type="curve" smooth="yes"/>
      <point x="1251" y="690" type="line" smooth="yes"/>
      <point x="1218" y="690"/>
      <point x="1209" y="686"/>
      <point x="1206" y="665" type="curve" smooth="yes"/>
      <point x="1206" y="153" type="line" smooth="yes"/>
      <point x="1206" y="113"/>
      <point x="1213" y="110"/>
      <point x="1254" y="110" type="curve" smooth="yes"/>
      <point x="1394" y="110" type="line" smooth="yes"/>
      <point x="1422" y="110"/>
      <point x="1426" y="101"/>
      <point x="1426" y="75" type="curve" smooth="yes"/>
      <point x="1426" y="32" type="line" smooth="yes"/>
      <point x="1426" y="6"/>
      <point x="1420" y="0"/>
      <point x="1395" y="0" type="curve" smooth="yes"/>
      <point x="826" y="0" type="line" smooth="yes"/>
      <point x="801" y="0"/>
      <point x="795" y="6"/>
      <point x="795" y="32" type="curve" smooth="yes"/>
      <point x="795" y="75" type="line" smooth="yes"/>
      <point x="795" y="101"/>
      <point x="799" y="110"/>
      <point x="827" y="110" type="curve" smooth="yes"/>
      <point x="967" y="110" type="line" smooth="yes"/>
      <point x="1008" y="110"/>
      <point x="1015" y="113"/>
      <point x="1015" y="153" type="curve" smooth="yes"/>
      <point x="1015" y="665" type="line" smooth="yes"/>
      <point x="1012" y="686"/>
      <point x="1003" y="690"/>
      <point x="970" y="690" type="curve" smooth="yes"/>
      <point x="761" y="690" type="line" smooth="yes"/>
      <point x="248" y="690"/>
      <point x="677" y="-20"/>
      <point x="241" y="-20" type="curve" smooth="yes"/>
      <point x="77" y="-20"/>
      <point x="-8" y="69"/>
      <point x="-44" y="190" type="curve" smooth="yes"/>
      <point x="-49" y="207"/>
      <point x="-39" y="211"/>
      <point x="-19" y="218" type="curve" smooth="yes"/>
      <point x="31" y="234" type="line" smooth="yes"/>
      <point x="51" y="241"/>
      <point x="55" y="228"/>
      <point x="62" y="212" type="curve" smooth="yes"/>
      <point x="92" y="143"/>
      <point x="132" y="110"/>
      <point x="169" y="110" type="curve" smooth="yes"/>
      <point x="389" y="110"/>
      <point x="143" y="582"/>
      <point x="444" y="724" type="curve" smooth="yes"/>
      <point x="538" y="769"/>
      <point x="730" y="748"/>
      <point x="635" y="813" type="curve" smooth="yes"/>
      <point x="530" y="884"/>
      <point x="496" y="1011"/>
      <point x="483" y="1162" type="curve" smooth="yes"/>
      <point x="469" y="1325"/>
      <point x="399" y="1419"/>
      <point x="316" y="1419" type="curve" smooth="yes"/>
      <point x="299" y="1419"/>
      <point x="285" y="1413"/>
      <point x="285" y="1400" type="curve" smooth="yes"/>
      <point x="285" y="1340"/>
      <point x="327" y="1346"/>
      <point x="327" y="1266" type="curve" smooth="yes"/>
      <point x="327" y="1200"/>
      <point x="261" y="1155"/>
      <point x="191" y="1155" type="curve" smooth="yes"/>
      <point x="111" y="1155"/>
      <point x="38" y="1231"/>
      <point x="38" y="1317" type="curve" smooth="yes"/>
      <point x="38" y="1431"/>
      <point x="117" y="1534"/>
      <point x="269" y="1534" type="curve" smooth="yes"/>
      <point x="479" y="1534"/>
      <point x="587" y="1378"/>
      <point x="603" y="1162" type="curve" smooth="yes"/>
      <point x="617" y="968"/>
      <point x="678" y="810"/>
      <point x="911" y="810" type="curve" smooth="yes"/>
      <point x="969" y="810" type="line" smooth="yes"/>
      <point x="1002" y="810"/>
      <point x="1012" y="814"/>
      <point x="1015" y="835" type="curve" smooth="yes"/>
      <point x="1015" y="1342" type="line" smooth="yes"/>
      <point x="1015" y="1385"/>
      <point x="1008" y="1390"/>
      <point x="966" y="1390" type="curve" smooth="yes"/>
      <point x="818" y="1390" type="line" smooth="yes"/>
      <point x="793" y="1390"/>
      <point x="776" y="1397"/>
      <point x="776" y="1432" type="curve" smooth="yes"/>
      <point x="776" y="1466" type="line" smooth="yes"/>
      <point x="776" y="1497"/>
      <point x="782" y="1500"/>
      <point x="812" y="1500" type="curve" smooth="yes"/>
      <point x="1409" y="1500" type="line" smooth="yes"/>
      <point x="1439" y="1500"/>
      <point x="1445" y="1497"/>
      <point x="1445" y="1466" type="curve" smooth="yes"/>
      <point x="1445" y="1432" type="line" smooth="yes"/>
      <point x="1445" y="1397"/>
      <point x="1428" y="1390"/>
      <point x="1403" y="1390" type="curve" smooth="yes"/>
      <point x="1255" y="1390" type="line" smooth="yes"/>
      <point x="1213" y="1390"/>
      <point x="1206" y="1385"/>
      <point x="1206" y="1342" type="curve" smooth="yes"/>
      <point x="1206" y="835" type="line" smooth="yes"/>
      <point x="1209" y="814"/>
      <point x="1219" y="810"/>
      <point x="1252" y="810" type="curve" smooth="yes"/>
      <point x="1310" y="810" type="line" smooth="yes"/>
      <point x="1543" y="810"/>
      <point x="1604" y="968"/>
      <point x="1618" y="1162" type="curve" smooth="yes"/>
      <point x="1634" y="1378"/>
      <point x="1742" y="1534"/>
      <point x="1952" y="1534" type="curve" smooth="yes"/>
      <point x="2104" y="1534"/>
      <point x="2183" y="1431"/>
      <point x="2183" y="1317" type="curve" smooth="yes"/>
      <point x="2183" y="1231"/>
      <point x="2110" y="1155"/>
      <point x="2030" y="1155" type="curve" smooth="yes"/>
      <point x="1960" y="1155"/>
      <point x="1894" y="1200"/>
      <point x="1894" y="1266" type="curve" smooth="yes"/>
      <point x="1894" y="1346"/>
      <point x="1936" y="1340"/>
      <point x="1936" y="1400" type="curve" smooth="yes"/>
      <point x="1936" y="1413"/>
      <point x="1922" y="1419"/>
      <point x="1905" y="1419" type="curve" smooth="yes"/>
      <point x="1822" y="1419"/>
      <point x="1752" y="1325"/>
      <point x="1738" y="1162" type="curve" smooth="yes"/>
      <point x="1725" y="1011"/>
      <point x="1691" y="884"/>
      <point x="1586" y="813" type="curve" smooth="yes"/>
      <point x="1491" y="748"/>
      <point x="1683" y="769"/>
      <point x="1777" y="724" type="curve" smooth="yes"/>
      <point x="2078" y="582"/>
      <point x="1832" y="110"/>
      <point x="2052" y="110" type="curve" smooth="yes"/>
      <point x="2089" y="110"/>
      <point x="2129" y="143"/>
      <point x="2159" y="212" type="curve" smooth="yes"/>
      <point x="2166" y="228"/>
      <point x="2170" y="241"/>
      <point x="2190" y="234" type="curve" smooth="yes"/>
      <point x="2240" y="218" type="line" smooth="yes"/>
      <point x="2260" y="211"/>
      <point x="2270" y="207"/>
    </contour>
  </outline>
</glyph>
<glyph name="Iishort-cy" format="2">
  <advance width="1770"/>
  <unicode hex="0419"/>
  <anchor x="876" y="1500" name="Anchor-0"/>
  <anchor x="876" y="0" name="Anchor-1"/>
  <anchor x="876" y="0" name="Anchor-2"/>
  <outline>
    <contour>
      <point x="1116" y="1961" type="curve" smooth="yes"/>
      <point x="1187" y="1961"/>
      <point x="1239" y="1912"/>
      <point x="1239" y="1841" type="curve" smooth="yes"/>
      <point x="1239" y="1716"/>
      <point x="1104" y="1637"/>
      <point x="892" y="1637" type="curve" smooth="yes"/>
      <point x="678" y="1637"/>
      <point x="544" y="1716"/>
      <point x="544" y="1843" type="curve" smooth="yes"/>
      <point x="544" y="1912"/>
      <point x="596" y="1961"/>
      <point x="667" y="1961" type="curve" smooth="yes"/>
      <point x="727" y="1961"/>
      <point x="773" y="1920"/>
      <point x="773" y="1866" type="curve" smooth="yes"/>
      <point x="773" y="1817"/>
      <point x="706" y="1809"/>
      <point x="706" y="1777" type="curve" smooth="yes"/>
      <point x="706" y="1744"/>
      <point x="773" y="1720"/>
      <point x="900" y="1720" type="curve" smooth="yes"/>
      <point x="1014" y="1720"/>
      <point x="1077" y="1746"/>
      <point x="1077" y="1777" type="curve" smooth="yes"/>
      <point x="1077" y="1810"/>
      <point x="1010" y="1816"/>
      <point x="1010" y="1866" type="curve" smooth="yes"/>
      <point x="1010" y="1920"/>
      <point x="1056" y="1961"/>
    </contour>
    <component base="Ii-cy"/>
  </outline>
</glyph>
<glyph name="El-cy" format="2">
  <advance height="2080" width="1707"/>
  <unicode hex="041B"/>
  <outline>
    <contour>
      <point x="-10" y="240" type="curve" smooth="yes"/>
      <point x="-10" y="364"/>
      <point x="68" y="420"/>
      <point x="148" y="420" type="curve" smooth="yes"/>
      <point x="228" y="420"/>
      <point x="286" y="364"/>
      <point x="286" y="292" type="curve" smooth="yes"/>
      <point x="286" y="162"/>
      <point x="208" y="164"/>
      <point x="208" y="130" type="curve" smooth="yes"/>
      <point x="208" y="106"/>
      <point x="238" y="90"/>
      <point x="272" y="90" type="curve" smooth="yes"/>
      <point x="635" y="90"/>
      <point x="562" y="1004"/>
      <point x="562" y="1331" type="curve" smooth="yes"/>
      <point x="562" y="1376"/>
      <point x="560" y="1390"/>
      <point x="515" y="1390" type="curve" smooth="yes"/>
      <point x="367" y="1390" type="line" smooth="yes"/>
      <point x="325" y="1390"/>
      <point x="322" y="1397"/>
      <point x="322" y="1440" type="curve" smooth="yes"/>
      <point x="322" y="1460" type="line" smooth="yes"/>
      <point x="322" y="1499"/>
      <point x="336" y="1500"/>
      <point x="372" y="1500" type="curve" smooth="yes"/>
      <point x="1624" y="1500" type="line" smooth="yes"/>
      <point x="1654" y="1500"/>
      <point x="1660" y="1497"/>
      <point x="1660" y="1466" type="curve" smooth="yes"/>
      <point x="1660" y="1432" type="line" smooth="yes"/>
      <point x="1660" y="1397"/>
      <point x="1643" y="1390"/>
      <point x="1618" y="1390" type="curve" smooth="yes"/>
      <point x="1458" y="1390" type="line" smooth="yes"/>
      <point x="1426" y="1390"/>
      <point x="1420" y="1387"/>
      <point x="1420" y="1354" type="curve" smooth="yes"/>
      <point x="1420" y="154" type="line" smooth="yes"/>
      <point x="1420" y="121"/>
      <point x="1429" y="110"/>
      <point x="1458" y="110" type="curve" smooth="yes"/>
      <point x="1638" y="110" type="line" smooth="yes"/>
      <point x="1657" y="110"/>
      <point x="1660" y="97"/>
      <point x="1660" y="78" type="curve" smooth="yes"/>
      <point x="1660" y="32" type="line" smooth="yes"/>
      <point x="1660" y="8"/>
      <point x="1648" y="0"/>
      <point x="1620" y="0" type="curve" smooth="yes"/>
      <point x="1050" y="0" type="line" smooth="yes"/>
      <point x="1022" y="0"/>
      <point x="1010" y="7"/>
      <point x="1010" y="32" type="curve" smooth="yes"/>
      <point x="1010" y="82" type="line" smooth="yes"/>
      <point x="1010" y="103"/>
      <point x="1018" y="110"/>
      <point x="1056" y="110" type="curve" smooth="yes"/>
      <point x="1162" y="110" type="line" smooth="yes"/>
      <point x="1197" y="110"/>
      <point x="1230" y="114"/>
      <point x="1230" y="160" type="curve" smooth="yes"/>
      <point x="1230" y="1356" type="line" smooth="yes"/>
      <point x="1230" y="1382"/>
      <point x="1230" y="1390"/>
      <point x="1200" y="1390" type="curve" smooth="yes"/>
      <point x="732" y="1390" type="line" smooth="yes"/>
      <point x="689" y="1390"/>
      <point x="687" y="1381"/>
      <point x="687" y="1338" type="curve" smooth="yes"/>
      <point x="687" y="948"/>
      <point x="795" y="-20"/>
      <point x="262" y="-20" type="curve" smooth="yes"/>
      <point x="88" y="-20"/>
      <point x="-10" y="100"/>
    </contour>
  </outline>
</glyph>
<glyph name="Ef-cy" format="2">
  <advance height="2080" width="1776"/>
  <unicode hex="0424"/>
  <outline>
    <contour>
      <point x="793" y="1306" type="curve" smooth="yes"/>
      <point x="793" y="1358" type="line" smooth="yes"/>
      <point x="793" y="1384"/>
      <point x="793" y="1392"/>
      <point x="763" y="1392" type="curve" smooth="yes"/>
      <point x="607" y="1392" type="line" smooth="yes"/>
      <point x="581" y="1392"/>
      <point x="573" y="1401"/>
      <point x="573" y="1422" type="curve" smooth="yes"/>
      <point x="573" y="1476" type="line" smooth="yes"/>
      <point x="573" y="1502"/>
      <point x="580" y="1502"/>
      <point x="603" y="1502" type="curve" smooth="yes"/>
      <point x="1187" y="1502" type="line" smooth="yes"/>
      <point x="1217" y="1502"/>
      <point x="1223" y="1499"/>
      <point x="1223" y="1468" type="curve" smooth="yes"/>
      <point x="1223" y="1434" type="line" smooth="yes"/>
      <point x="1223" y="1399"/>
      <point x="1206" y="1392"/>
      <point x="1181" y="1392" type="curve" smooth="yes"/>
      <point x="1021" y="1392" type="line" smooth="yes"/>
      <point x="989" y="1392"/>
      <point x="983" y="1389"/>
      <point x="983" y="1356" type="curve" smooth="yes"/>
      <point x="983" y="1308" type="line" smooth="yes"/>
      <point x="983" y="1282"/>
      <point x="991" y="1288"/>
      <point x="1014" y="1286" type="curve" smooth="yes"/>
      <point x="1411" y="1257"/>
      <point x="1758" y="1090"/>
      <point x="1758" y="750" type="curve" smooth="yes"/>
      <point x="1758" y="410"/>
      <point x="1395" y="244"/>
      <point x="1010" y="215" type="curve" smooth="yes"/>
      <point x="990" y="213"/>
      <point x="983" y="217"/>
      <point x="983" y="194" type="curve" smooth="yes"/>
      <point x="983" y="156" type="line" smooth="yes"/>
      <point x="983" y="123"/>
      <point x="992" y="112"/>
      <point x="1021" y="112" type="curve" smooth="yes"/>
      <point x="1201" y="112" type="line" smooth="yes"/>
      <point x="1220" y="112"/>
      <point x="1223" y="99"/>
      <point x="1223" y="80" type="curve" smooth="yes"/>
      <point x="1223" y="34" type="line" smooth="yes"/>
      <point x="1223" y="10"/>
      <point x="1211" y="2"/>
      <point x="1183" y="2" type="curve" smooth="yes"/>
      <point x="613" y="2" type="line" smooth="yes"/>
      <point x="585" y="2"/>
      <point x="573" y="9"/>
      <point x="573" y="34" type="curve" smooth="yes"/>
      <point x="573" y="84" type="line" smooth="yes"/>
      <point x="573" y="105"/>
      <point x="581" y="112"/>
      <point x="619" y="112" type="curve" smooth="yes"/>
      <point x="725" y="112" type="line" smooth="yes"/>
      <point x="760" y="112"/>
      <point x="793" y="116"/>
      <point x="793" y="162" type="curve" smooth="yes"/>
      <point x="793" y="194" type="line" smooth="yes"/>
      <point x="793" y="217"/>
      <point x="786" y="213"/>
      <point x="766" y="214" type="curve" smooth="yes"/>
      <point x="368" y="242"/>
      <point x="18" y="409"/>
      <point x="18" y="750" type="curve" smooth="yes"/>
      <point x="18" y="1093"/>
      <point x="370" y="1259"/>
      <point x="770" y="1286" type="curve" smooth="yes"/>
      <point x="789" y="1287"/>
      <point x="793" y="1285"/>
    </contour>
    <contour>
      <point x="793" y="350" type="curve" smooth="yes"/>
      <point x="793" y="1156" type="line" smooth="yes"/>
      <point x="793" y="1182"/>
      <point x="787" y="1187"/>
      <point x="764" y="1185" type="curve" smooth="yes"/>
      <point x="454" y="1161"/>
      <point x="238" y="1037"/>
      <point x="238" y="750" type="curve" smooth="yes"/>
      <point x="238" y="463"/>
      <point x="453" y="340"/>
      <point x="762" y="315" type="curve" smooth="yes"/>
      <point x="789" y="313"/>
      <point x="793" y="320"/>
    </contour>
    <contour>
      <point x="1012" y="314" type="curve" smooth="yes"/>
      <point x="1336" y="337"/>
      <point x="1538" y="461"/>
      <point x="1538" y="750" type="curve" smooth="yes"/>
      <point x="1538" y="1037"/>
      <point x="1323" y="1160"/>
      <point x="1014" y="1185" type="curve" smooth="yes"/>
      <point x="991" y="1187"/>
      <point x="983" y="1183"/>
      <point x="983" y="1156" type="curve" smooth="yes"/>
      <point x="983" y="354" type="line" smooth="yes"/>
      <point x="983" y="323"/>
      <point x="983" y="312"/>
    </contour>
  </outline>
</glyph>
<glyph name="Sha-cy" format="2">
  <advance height="2080" width="2410"/>
  <unicode hex="0428"/>
  <anchor x="1196" y="1500" name="Anchor-0"/>
  <anchor x="1192" y="0" name="Anchor-1"/>
  <anchor x="1192" y="0" name="Anchor-2"/>
  <anchor x="1192" y="0" name="Anchor-3"/>
  <outline>
    <contour>
      <point x="485" y="1354" type="curve" smooth="yes"/>
      <point x="485" y="154" type="line" smooth="yes"/>
      <point x="485" y="121"/>
      <point x="494" y="110"/>
      <point x="523" y="110" type="curve" smooth="yes"/>
      <point x="1032" y="110" type="line" smooth="yes"/>
      <point x="1067" y="110"/>
      <point x="1100" y="114"/>
      <point x="1100" y="160" type="curve" smooth="yes"/>
      <point x="1100" y="1356" type="line" smooth="yes"/>
      <point x="1100" y="1382"/>
      <point x="1100" y="1390"/>
      <point x="1070" y="1390" type="curve" smooth="yes"/>
      <point x="914" y="1390" type="line" smooth="yes"/>
      <point x="888" y="1390"/>
      <point x="880" y="1399"/>
      <point x="880" y="1420" type="curve" smooth="yes"/>
      <point x="880" y="1474" type="line" smooth="yes"/>
      <point x="880" y="1500"/>
      <point x="887" y="1500"/>
      <point x="910" y="1500" type="curve" smooth="yes"/>
      <point x="1494" y="1500" type="line" smooth="yes"/>
      <point x="1524" y="1500"/>
      <point x="1530" y="1497"/>
      <point x="1530" y="1466" type="curve" smooth="yes"/>
      <point x="1530" y="1432" type="line" smooth="yes"/>
      <point x="1530" y="1397"/>
      <point x="1513" y="1390"/>
      <point x="1488" y="1390" type="curve" smooth="yes"/>
      <point x="1328" y="1390" type="line" smooth="yes"/>
      <point x="1296" y="1390"/>
      <point x="1290" y="1387"/>
      <point x="1290" y="1354" type="curve" smooth="yes"/>
      <point x="1290" y="154" type="line" smooth="yes"/>
      <point x="1290" y="121"/>
      <point x="1299" y="110"/>
      <point x="1328" y="110" type="curve" smooth="yes"/>
      <point x="1837" y="110" type="line" smooth="yes"/>
      <point x="1872" y="110"/>
      <point x="1905" y="114"/>
      <point x="1905" y="160" type="curve" smooth="yes"/>
      <point x="1905" y="1356" type="line" smooth="yes"/>
      <point x="1905" y="1382"/>
      <point x="1905" y="1390"/>
      <point x="1875" y="1390" type="curve" smooth="yes"/>
      <point x="1719" y="1390" type="line" smooth="yes"/>
      <point x="1693" y="1390"/>
      <point x="1685" y="1399"/>
      <point x="1685" y="1420" type="curve" smooth="yes"/>
      <point x="1685" y="1474" type="line" smooth="yes"/>
      <point x="1685" y="1500"/>
      <point x="1692" y="1500"/>
      <point x="1715" y="1500" type="curve" smooth="yes"/>
      <point x="2299" y="1500" type="line" smooth="yes"/>
      <point x="2329" y="1500"/>
      <point x="2335" y="1497"/>
      <point x="2335" y="1466" type="curve" smooth="yes"/>
      <point x="2335" y="1432" type="line" smooth="yes"/>
      <point x="2335" y="1397"/>
      <point x="2318" y="1390"/>
      <point x="2293" y="1390" type="curve" smooth="yes"/>
      <point x="2133" y="1390" type="line" smooth="yes"/>
      <point x="2101" y="1390"/>
      <point x="2095" y="1387"/>
      <point x="2095" y="1354" type="curve" smooth="yes"/>
      <point x="2095" y="154" type="line" smooth="yes"/>
      <point x="2095" y="121"/>
      <point x="2104" y="110"/>
      <point x="2133" y="110" type="curve" smooth="yes"/>
      <point x="2313" y="110" type="line" smooth="yes"/>
      <point x="2332" y="110"/>
      <point x="2335" y="97"/>
      <point x="2335" y="78" type="curve" smooth="yes"/>
      <point x="2335" y="32" type="line" smooth="yes"/>
      <point x="2335" y="8"/>
      <point x="2323" y="0"/>
      <point x="2295" y="0" type="curve" smooth="yes"/>
      <point x="115" y="0" type="line" smooth="yes"/>
      <point x="87" y="0"/>
      <point x="75" y="7"/>
      <point x="75" y="32" type="curve" smooth="yes"/>
      <point x="75" y="82" type="line" smooth="yes"/>
      <point x="75" y="103"/>
      <point x="83" y="110"/>
      <point x="121" y="110" type="curve" smooth="yes"/>
      <point x="227" y="110" type="line" smooth="yes"/>
      <point x="262" y="110"/>
      <point x="295" y="114"/>
      <point x="295" y="160" type="curve" smooth="yes"/>
      <point x="295" y="1356" type="line" smooth="yes"/>
      <point x="295" y="1382"/>
      <point x="295" y="1390"/>
      <point x="265" y="1390" type="curve" smooth="yes"/>
      <point x="109" y="1390" type="line" smooth="yes"/>
      <point x="83" y="1390"/>
      <point x="75" y="1399"/>
      <point x="75" y="1420" type="curve" smooth="yes"/>
      <point x="75" y="1474" type="line" smooth="yes"/>
      <point x="75" y="1500"/>
      <point x="82" y="1500"/>
      <point x="105" y="1500" type="curve" smooth="yes"/>
      <point x="689" y="1500" type="line" smooth="yes"/>
      <point x="719" y="1500"/>
      <point x="725" y="1497"/>
      <point x="725" y="1466" type="curve" smooth="yes"/>
      <point x="725" y="1432" type="line" smooth="yes"/>
      <point x="725" y="1397"/>
      <point x="708" y="1390"/>
      <point x="683" y="1390" type="curve" smooth="yes"/>
      <point x="523" y="1390" type="line" smooth="yes"/>
      <point x="491" y="1390"/>
      <point x="485" y="1387"/>
    </contour>
  </outline>
</glyph>
<glyph name="Softsign-cy" format="2">
  <advance width="1320"/>
  <unicode hex="042C"/>
  <outline>
    <contour>
      <point x="263" y="110" type="line" smooth="yes"/>
      <point x="287" y="110"/>
      <point x="295" y="113"/>
      <point x="295" y="136" type="curve" smooth="yes"/>
      <point x="295" y="1342" type="line" smooth="yes"/>
      <point x="295" y="1380"/>
      <point x="290" y="1390"/>
      <point x="249" y="1390" type="curve" smooth="yes"/>
      <point x="107" y="1390" type="line" smooth="yes"/>
      <point x="82" y="1390"/>
      <point x="75" y="1394"/>
      <point x="75" y="1418" type="curve" smooth="yes"/>
      <point x="75" y="1454" type="line" smooth="yes"/>
      <point x="75" y="1498"/>
      <point x="88" y="1500"/>
      <point x="129" y="1500" type="curve" smooth="yes"/>
      <point x="663" y="1500" type="line" smooth="yes"/>
      <point x="703" y="1500"/>
      <point x="705" y="1492"/>
      <point x="705" y="1452" type="curve" smooth="yes"/>
      <point x="705" y="1430" type="line" smooth="yes"/>
      <point x="705" y="1399"/>
      <point x="704" y="1390"/>
      <point x="673" y="1390" type="curve" smooth="yes"/>
      <point x="543" y="1390" type="line" smooth="yes"/>
      <point x="489" y="1390"/>
      <point x="485" y="1382"/>
      <point x="485" y="1327" type="curve" smooth="yes"/>
      <point x="485" y="896" type="line" smooth="yes"/>
      <point x="485" y="841"/>
      <point x="494" y="840"/>
      <point x="549" y="840" type="curve" smooth="yes"/>
      <point x="785" y="840" type="line" smooth="yes"/>
      <point x="1147" y="840"/>
      <point x="1305" y="680"/>
      <point x="1305" y="420" type="curve" smooth="yes"/>
      <point x="1305" y="160"/>
      <point x="1147" y="0"/>
      <point x="785" y="0" type="curve" smooth="yes"/>
      <point x="112" y="0" type="line" smooth="yes"/>
      <point x="83" y="0"/>
      <point x="75" y="5"/>
      <point x="75" y="36" type="curve" smooth="yes"/>
      <point x="75" y="77" type="line" smooth="yes"/>
      <point x="75" y="101"/>
      <point x="76" y="110"/>
      <point x="100" y="110" type="curve" smooth="yes"/>
    </contour>
    <contour>
      <point x="535" y="730" type="line" smooth="yes"/>
      <point x="493" y="730"/>
      <point x="485" y="728"/>
      <point x="485" y="686" type="curve" smooth="yes"/>
      <point x="485" y="149" type="line" smooth="yes"/>
      <point x="485" y="122"/>
      <point x="488" y="110"/>
      <point x="514" y="110" type="curve" smooth="yes"/>
      <point x="785" y="110" type="line" smooth="yes"/>
      <point x="977" y="110"/>
      <point x="1085" y="242"/>
      <point x="1085" y="420" type="curve" smooth="yes"/>
      <point x="1085" y="598"/>
      <point x="977" y="730"/>
      <point x="785" y="730" type="curve" smooth="yes"/>
    </contour>
  </outline>
</glyph>
<glyph name="Ereversed-cy" format="2">
  <advance width="1616"/>
  <unicode hex="042D"/>
  <anchor x="793" y="1500" name="Anchor-0"/>
  <anchor x="752" y="0" name="Anchor-1"/>
  <anchor x="752" y="0" name="Anchor-2"/>
  <outline>
    <contour>
      <point x="80" y="398" type="curve" smooth="yes"/>
      <point x="80" y="494"/>
      <point x="150" y="580"/>
      <point x="258" y="580" type="curve" smooth="yes"/>
      <point x="352" y="580"/>
      <point x="402" y="508"/>
      <point x="402" y="434" type="curve" smooth="yes"/>
      <point x="402" y="322"/>
      <point x="278" y="335"/>
      <point x="278" y="289" type="curve" smooth="yes"/>
      <point x="278" y="235"/>
      <point x="381" y="98"/>
      <point x="699" y="98" type="curve"/>
      <point x="719" y="-20" type="line"/>
      <point x="275" y="-20"/>
      <point x="80" y="234"/>
    </contour>
    <contour>
      <point x="1509" y="760" type="curve" smooth="yes"/>
      <point x="1509" y="314"/>
      <point x="1195" y="-20"/>
      <point x="719" y="-20" type="curve"/>
      <point x="699" y="98" type="line"/>
      <point x="1074" y="98"/>
      <point x="1242" y="341"/>
      <point x="1274" y="657" type="curve" smooth="yes"/>
      <point x="1278" y="691"/>
      <point x="1274" y="700"/>
      <point x="1234" y="700" type="curve" smooth="yes"/>
      <point x="723" y="700" type="line" smooth="yes"/>
      <point x="695" y="700"/>
      <point x="683" y="707"/>
      <point x="683" y="732" type="curve" smooth="yes"/>
      <point x="683" y="782" type="line" smooth="yes"/>
      <point x="683" y="803"/>
      <point x="691" y="810"/>
      <point x="729" y="810" type="curve" smooth="yes"/>
      <point x="1230" y="810" type="line" smooth="yes"/>
      <point x="1270" y="810"/>
      <point x="1278" y="813"/>
      <point x="1275" y="850" type="curve" smooth="yes"/>
      <point x="1246" y="1169"/>
      <point x="1138" y="1404"/>
      <point x="769" y="1404" type="curve" smooth="yes"/>
      <point x="495" y="1404"/>
      <point x="277" y="1213"/>
      <point x="243" y="1019" type="curve" smooth="yes"/>
      <point x="239" y="998"/>
      <point x="245" y="990"/>
      <point x="219" y="990" type="curve" smooth="yes"/>
      <point x="158" y="990" type="line" smooth="yes"/>
      <point x="135" y="990"/>
      <point x="129" y="994"/>
      <point x="129" y="1016" type="curve" smooth="yes"/>
      <point x="129" y="1491" type="line" smooth="yes"/>
      <point x="129" y="1507"/>
      <point x="132" y="1510"/>
      <point x="149" y="1510" type="curve" smooth="yes"/>
      <point x="203" y="1510" type="line" smooth="yes"/>
      <point x="222" y="1510"/>
      <point x="220" y="1506"/>
      <point x="224" y="1492" type="curve" smooth="yes"/>
      <point x="266" y="1349" type="line" smooth="yes"/>
      <point x="277" y="1312"/>
      <point x="285" y="1312"/>
      <point x="305" y="1333" type="curve" smooth="yes"/>
      <point x="406" y="1439"/>
      <point x="586" y="1520"/>
      <point x="779" y="1520" type="curve" smooth="yes"/>
      <point x="1235" y="1520"/>
      <point x="1509" y="1206"/>
    </contour>
  </outline>
</glyph>
<glyph name="be-cy" format="2">
  <advance height="2310" width="1176"/>
  <unicode hex="0431"/>
  <anchor x="589.968" y="0" name="Anchor-1"/>
  <anchor x="589.968" y="0" name="Anchor-2"/>
  <outline>
    <contour>
      <point x="324.968" y="540" type="curve" smooth="yes"/>
      <point x="324.968" y="292"/>
      <point x="374.968" y="70"/>
      <point x="592.968" y="70" type="curve" smooth="yes"/>
      <point x="810.968" y="70"/>
      <point x="860.968" y="292"/>
      <point x="860.968" y="500" type="curve" smooth="yes"/>
      <point x="860.968" y="748"/>
      <point x="810.968" y="970"/>
      <point x="592.968" y="970" type="curve" smooth="yes"/>
      <point x="374.968" y="970"/>
      <point x="324.968" y="748"/>
    </contour>
    <contour>
      <point x="1070.968" y="1565" type="curve" smooth="yes"/>
      <point x="1073.968" y="1343"/>
      <point x="863.968" y="1290"/>
      <point x="690.968" y="1290" type="curve" smooth="yes"/>
      <point x="553.968" y="1290"/>
      <point x="275.968" y="1312"/>
      <point x="211.968" y="895" type="curve" smooth="yes"/>
      <point x="201.968" y="831"/>
      <point x="214.968" y="810"/>
      <point x="250.968" y="868" type="curve" smooth="yes"/>
      <point x="320.968" y="983"/>
      <point x="451.968" y="1060"/>
      <point x="612.968" y="1060" type="curve" smooth="yes"/>
      <point x="934.968" y="1060"/>
      <point x="1070.968" y="820"/>
      <point x="1070.968" y="540" type="curve" smooth="yes"/>
      <point x="1070.968" y="220"/>
      <point x="914.968" y="-20"/>
      <point x="592.968" y="-20" type="curve" smooth="yes"/>
      <point x="240.968" y="-20"/>
      <point x="104.968" y="280"/>
      <point x="104.968" y="620" type="curve" smooth="yes"/>
      <point x="104.968" y="1252"/>
      <point x="320.968" y="1471"/>
      <point x="712.968" y="1471" type="curve" smooth="yes"/>
      <point x="829.968" y="1471"/>
      <point x="968.968" y="1475"/>
      <point x="975.968" y="1567" type="curve" smooth="yes"/>
      <point x="978.968" y="1590"/>
      <point x="977.968" y="1594"/>
      <point x="1003.968" y="1594" type="curve" smooth="yes"/>
      <point x="1044.968" y="1594" type="line" smooth="yes"/>
      <point x="1067.968" y="1594"/>
      <point x="1070.968" y="1589"/>
    </contour>
  </outline>
</glyph>
<glyph name="zhe-cy" format="2">
  <advance height="2234" width="1765"/>
  <unicode hex="0436"/>
  <outline>
    <contour>
      <point x="1783" y="190" type="curve" smooth="yes"/>
      <point x="1747" y="69"/>
      <point x="1662" y="-20"/>
      <point x="1538" y="-20" type="curve" smooth="yes"/>
      <point x="1062" y="-20"/>
      <point x="1491" y="460"/>
      <point x="1138" y="460" type="curve" smooth="yes"/>
      <point x="1014" y="460" type="line" smooth="yes"/>
      <point x="970" y="460"/>
      <point x="968" y="452"/>
      <point x="968" y="408" type="curve" smooth="yes"/>
      <point x="968" y="144" type="line" smooth="yes"/>
      <point x="968" y="113"/>
      <point x="976" y="110"/>
      <point x="1008" y="110" type="curve" smooth="yes"/>
      <point x="1102" y="110" type="line" smooth="yes"/>
      <point x="1130" y="110"/>
      <point x="1138" y="105"/>
      <point x="1138" y="75" type="curve" smooth="yes"/>
      <point x="1138" y="32" type="line" smooth="yes"/>
      <point x="1138" y="6"/>
      <point x="1132" y="0"/>
      <point x="1107" y="0" type="curve" smooth="yes"/>
      <point x="659" y="0" type="line" smooth="yes"/>
      <point x="634" y="0"/>
      <point x="628" y="6"/>
      <point x="628" y="32" type="curve" smooth="yes"/>
      <point x="628" y="75" type="line" smooth="yes"/>
      <point x="628" y="105"/>
      <point x="636" y="110"/>
      <point x="664" y="110" type="curve" smooth="yes"/>
      <point x="758" y="110" type="line" smooth="yes"/>
      <point x="790" y="110"/>
      <point x="798" y="113"/>
      <point x="798" y="144" type="curve" smooth="yes"/>
      <point x="798" y="408" type="line" smooth="yes"/>
      <point x="798" y="452"/>
      <point x="796" y="460"/>
      <point x="752" y="460" type="curve" smooth="yes"/>
      <point x="628" y="460" type="line" smooth="yes"/>
      <point x="275" y="460"/>
      <point x="704" y="-20"/>
      <point x="228" y="-20" type="curve" smooth="yes"/>
      <point x="104" y="-20"/>
      <point x="19" y="69"/>
      <point x="-17" y="190" type="curve" smooth="yes"/>
      <point x="-22" y="207"/>
      <point x="-12" y="211"/>
      <point x="8" y="218" type="curve" smooth="yes"/>
      <point x="58" y="234" type="line" smooth="yes"/>
      <point x="78" y="241"/>
      <point x="82" y="228"/>
      <point x="89" y="212" type="curve" smooth="yes"/>
      <point x="119" y="143"/>
      <point x="149" y="105"/>
      <point x="206" y="105" type="curve" smooth="yes"/>
      <point x="396" y="105"/>
      <point x="146" y="390"/>
      <point x="451" y="524" type="curve" smooth="yes"/>
      <point x="484" y="539"/>
      <point x="495" y="545"/>
      <point x="465" y="568" type="curve" smooth="yes"/>
      <point x="417" y="606"/>
      <point x="386" y="681"/>
      <point x="370" y="762" type="curve" smooth="yes"/>
      <point x="344" y="894"/>
      <point x="306" y="919"/>
      <point x="293" y="919" type="curve" smooth="yes"/>
      <point x="281" y="919"/>
      <point x="277" y="913"/>
      <point x="277" y="900" type="curve" smooth="yes"/>
      <point x="277" y="880"/>
      <point x="284" y="886"/>
      <point x="284" y="856" type="curve" smooth="yes"/>
      <point x="284" y="800"/>
      <point x="238" y="765"/>
      <point x="168" y="765" type="curve" smooth="yes"/>
      <point x="88" y="765"/>
      <point x="45" y="831"/>
      <point x="45" y="897" type="curve" smooth="yes"/>
      <point x="45" y="971"/>
      <point x="94" y="1050"/>
      <point x="216" y="1050" type="curve" smooth="yes"/>
      <point x="366" y="1050"/>
      <point x="418" y="966"/>
      <point x="470" y="762" type="curve" smooth="yes"/>
      <point x="493" y="670"/>
      <point x="535" y="580"/>
      <point x="668" y="580" type="curve" smooth="yes"/>
      <point x="751" y="580" type="line" smooth="yes"/>
      <point x="794" y="580"/>
      <point x="798" y="587"/>
      <point x="798" y="628" type="curve" smooth="yes"/>
      <point x="798" y="902" type="line" smooth="yes"/>
      <point x="798" y="922"/>
      <point x="785" y="929"/>
      <point x="775" y="930" type="curve" smooth="yes"/>
      <point x="660" y="930" type="line" smooth="yes"/>
      <point x="635" y="930"/>
      <point x="618" y="937"/>
      <point x="618" y="972" type="curve" smooth="yes"/>
      <point x="618" y="1006" type="line" smooth="yes"/>
      <point x="618" y="1037"/>
      <point x="624" y="1040"/>
      <point x="654" y="1040" type="curve" smooth="yes"/>
      <point x="1112" y="1040" type="line" smooth="yes"/>
      <point x="1142" y="1040"/>
      <point x="1148" y="1037"/>
      <point x="1148" y="1006" type="curve" smooth="yes"/>
      <point x="1148" y="972" type="line" smooth="yes"/>
      <point x="1148" y="935"/>
      <point x="1130" y="930"/>
      <point x="1102" y="930" type="curve" smooth="yes"/>
      <point x="1005" y="930" type="line" smooth="yes"/>
      <point x="978" y="930"/>
      <point x="968" y="923"/>
      <point x="968" y="883" type="curve" smooth="yes"/>
      <point x="968" y="628" type="line" smooth="yes"/>
      <point x="968" y="587"/>
      <point x="972" y="580"/>
      <point x="1015" y="580" type="curve" smooth="yes"/>
      <point x="1098" y="580" type="line" smooth="yes"/>
      <point x="1231" y="580"/>
      <point x="1273" y="670"/>
      <point x="1296" y="762" type="curve" smooth="yes"/>
      <point x="1348" y="966"/>
      <point x="1400" y="1050"/>
      <point x="1550" y="1050" type="curve" smooth="yes"/>
      <point x="1672" y="1050"/>
      <point x="1721" y="971"/>
      <point x="1721" y="897" type="curve" smooth="yes"/>
      <point x="1721" y="831"/>
      <point x="1678" y="765"/>
      <point x="1598" y="765" type="curve" smooth="yes"/>
      <point x="1528" y="765"/>
      <point x="1482" y="800"/>
      <point x="1482" y="856" type="curve" smooth="yes"/>
      <point x="1482" y="886"/>
      <point x="1489" y="880"/>
      <point x="1489" y="900" type="curve" smooth="yes"/>
      <point x="1489" y="913"/>
      <point x="1485" y="919"/>
      <point x="1473" y="919" type="curve" smooth="yes"/>
      <point x="1460" y="919"/>
      <point x="1422" y="894"/>
      <point x="1396" y="762" type="curve" smooth="yes"/>
      <point x="1380" y="681"/>
      <point x="1349" y="606"/>
      <point x="1301" y="568" type="curve" smooth="yes"/>
      <point x="1271" y="545"/>
      <point x="1282" y="539"/>
      <point x="1315" y="524" type="curve" smooth="yes"/>
      <point x="1620" y="390"/>
      <point x="1370" y="105"/>
      <point x="1560" y="105" type="curve" smooth="yes"/>
      <point x="1617" y="105"/>
      <point x="1647" y="143"/>
      <point x="1677" y="212" type="curve" smooth="yes"/>
      <point x="1684" y="228"/>
      <point x="1688" y="241"/>
      <point x="1708" y="234" type="curve" smooth="yes"/>
      <point x="1758" y="218" type="line" smooth="yes"/>
      <point x="1778" y="211"/>
      <point x="1788" y="207"/>
    </contour>
  </outline>
</glyph>
<glyph name="ii-cy" format="2">
  <advance height="2310" width="1410"/>
  <unicode hex="0438"/>
  <outline>
    <contour>
      <point x="1140" y="155" type="line" smooth="yes"/>
      <point x="1140" y="120"/>
      <point x="1141" y="110"/>
      <point x="1176" y="110" type="curve" smooth="yes"/>
      <point x="1294" y="110" type="line" smooth="yes"/>
      <point x="1316" y="110"/>
      <point x="1320" y="103"/>
      <point x="1320" y="80" type="curve" smooth="yes"/>
      <point x="1320" y="22" type="line" smooth="yes"/>
      <point x="1320" y="0"/>
      <point x="1311" y="0"/>
      <point x="1289" y="0" type="curve" smooth="yes"/>
      <point x="802" y="0" type="line" smooth="yes"/>
      <point x="781" y="0"/>
      <point x="780" y="9"/>
      <point x="780" y="31" type="curve" smooth="yes"/>
      <point x="780" y="81" type="line" smooth="yes"/>
      <point x="780" y="103"/>
      <point x="784" y="110"/>
      <point x="805" y="110" type="curve" smooth="yes"/>
      <point x="920" y="110" type="line" smooth="yes"/>
      <point x="952" y="110"/>
      <point x="960" y="114"/>
      <point x="960" y="149" type="curve" smooth="yes"/>
      <point x="960" y="659" type="line" smooth="yes"/>
      <point x="960" y="698.432"/>
      <point x="957.459" y="719.145"/>
      <point x="940.423" y="700" type="curve" smooth="yes"/>
      <point x="467" y="168" type="line" smooth="yes"/>
      <point x="459" y="159"/>
      <point x="451" y="154"/>
      <point x="451" y="137" type="curve" smooth="yes"/>
      <point x="451" y="117"/>
      <point x="466" y="110"/>
      <point x="492" y="110" type="curve" smooth="yes"/>
      <point x="595" y="110" type="line" smooth="yes"/>
      <point x="622" y="110"/>
      <point x="630" y="105"/>
      <point x="630" y="76" type="curve" smooth="yes"/>
      <point x="630" y="30" type="line" smooth="yes"/>
      <point x="630" y="6"/>
      <point x="625" y="0"/>
      <point x="602" y="0" type="curve" smooth="yes"/>
      <point x="118" y="0" type="line" smooth="yes"/>
      <point x="94" y="0"/>
      <point x="90" y="7"/>
      <point x="90" y="32" type="curve" smooth="yes"/>
      <point x="90" y="78" type="line" smooth="yes"/>
      <point x="90" y="106"/>
      <point x="100" y="110"/>
      <point x="126" y="110" type="curve" smooth="yes"/>
      <point x="236" y="110" type="line" smooth="yes"/>
      <point x="262" y="110"/>
      <point x="270" y="113"/>
      <point x="270" y="138" type="curve" smooth="yes"/>
      <point x="270" y="887" type="line" smooth="yes"/>
      <point x="270" y="922"/>
      <point x="269" y="932"/>
      <point x="234" y="932" type="curve" smooth="yes"/>
      <point x="116" y="932" type="line" smooth="yes"/>
      <point x="94" y="932"/>
      <point x="90" y="939"/>
      <point x="90" y="962" type="curve" smooth="yes"/>
      <point x="90" y="1020" type="line" smooth="yes"/>
      <point x="90" y="1042"/>
      <point x="99" y="1042"/>
      <point x="121" y="1042" type="curve" smooth="yes"/>
      <point x="608" y="1042" type="line" smooth="yes"/>
      <point x="629" y="1042"/>
      <point x="630" y="1033"/>
      <point x="630" y="1011" type="curve" smooth="yes"/>
      <point x="630" y="961" type="line" smooth="yes"/>
      <point x="630" y="939"/>
      <point x="626" y="932"/>
      <point x="605" y="932" type="curve" smooth="yes"/>
      <point x="490" y="932" type="line" smooth="yes"/>
      <point x="458" y="932"/>
      <point x="450" y="928"/>
      <point x="450" y="893" type="curve" smooth="yes"/>
      <point x="450" y="392" type="line" smooth="yes"/>
      <point x="450" y="339.761"/>
      <point x="451.015" y="316.138"/>
      <point x="474.961" y="343" type="curve" smooth="yes"/>
      <point x="951" y="877" type="line" smooth="yes"/>
      <point x="958" y="885"/>
      <point x="960" y="895"/>
      <point x="960" y="901" type="curve" smooth="yes"/>
      <point x="960" y="932"/>
      <point x="949" y="932"/>
      <point x="918" y="932" type="curve" smooth="yes"/>
      <point x="815" y="932" type="line" smooth="yes"/>
      <point x="788" y="932"/>
      <point x="780" y="937"/>
      <point x="780" y="966" type="curve" smooth="yes"/>
      <point x="780" y="1012" type="line" smooth="yes"/>
      <point x="780" y="1036"/>
      <point x="785" y="1042"/>
      <point x="808" y="1042" type="curve" smooth="yes"/>
      <point x="1292" y="1042" type="line" smooth="yes"/>
      <point x="1316" y="1042"/>
      <point x="1320" y="1035"/>
      <point x="1320" y="1010" type="curve" smooth="yes"/>
      <point x="1320" y="964" type="line" smooth="yes"/>
      <point x="1320" y="936"/>
      <point x="1310" y="932"/>
      <point x="1284" y="932" type="curve" smooth="yes"/>
      <point x="1174" y="932" type="line" smooth="yes"/>
      <point x="1148" y="932"/>
      <point x="1140" y="929"/>
      <point x="1140" y="904" type="curve" smooth="yes"/>
    </contour>
  </outline>
</glyph>
<glyph name="iishort-cy" format="2">
  <advance height="2310" width="1410"/>
  <unicode hex="0439"/>
  <outline>
    <contour>
      <point x="938" y="1521" type="curve" smooth="yes"/>
      <point x="1009" y="1521"/>
      <point x="1061" y="1472"/>
      <point x="1061" y="1401" type="curve" smooth="yes"/>
      <point x="1061" y="1276"/>
      <point x="926" y="1197"/>
      <point x="714" y="1197" type="curve" smooth="yes"/>
      <point x="500" y="1197"/>
      <point x="366" y="1276"/>
      <point x="366" y="1403" type="curve" smooth="yes"/>
      <point x="366" y="1472"/>
      <point x="418" y="1521"/>
      <point x="489" y="1521" type="curve" smooth="yes"/>
      <point x="549" y="1521"/>
      <point x="595" y="1480"/>
      <point x="595" y="1426" type="curve" smooth="yes"/>
      <point x="595" y="1377"/>
      <point x="528" y="1369"/>
      <point x="528" y="1337" type="curve" smooth="yes"/>
      <point x="528" y="1304"/>
      <point x="595" y="1280"/>
      <point x="722" y="1280" type="curve" smooth="yes"/>
      <point x="836" y="1280"/>
      <point x="899" y="1306"/>
      <point x="899" y="1337" type="curve" smooth="yes"/>
      <point x="899" y="1370"/>
      <point x="832" y="1376"/>
      <point x="832" y="1426" type="curve" smooth="yes"/>
      <point x="832" y="1480"/>
      <point x="878" y="1521"/>
    </contour>
    <component base="ii-cy" xOffset="5"/>
  </outline>
</glyph>
<glyph name="ka-cy" format="2">
  <advance height="2234" width="1187"/>
  <unicode hex="043A"/>
  <outline>
    <contour>
      <point x="1205" y="190" type="curve" smooth="yes"/>
      <point x="1169" y="69"/>
      <point x="1074" y="-20"/>
      <point x="940" y="-20" type="curve" smooth="yes"/>
      <point x="524" y="-20"/>
      <point x="933" y="460"/>
      <point x="580" y="460" type="curve" smooth="yes"/>
      <point x="456" y="460" type="line" smooth="yes"/>
      <point x="412" y="460"/>
      <point x="410" y="452"/>
      <point x="410" y="408" type="curve" smooth="yes"/>
      <point x="410" y="144" type="line" smooth="yes"/>
      <point x="410" y="113"/>
      <point x="418" y="110"/>
      <point x="450" y="110" type="curve" smooth="yes"/>
      <point x="549" y="110" type="line" smooth="yes"/>
      <point x="577" y="110"/>
      <point x="580" y="103"/>
      <point x="580" y="74" type="curve" smooth="yes"/>
      <point x="580" y="29" type="line" smooth="yes"/>
      <point x="580" y="4"/>
      <point x="573" y="0"/>
      <point x="547" y="0" type="curve" smooth="yes"/>
      <point x="81" y="0" type="line" smooth="yes"/>
      <point x="56" y="0"/>
      <point x="50" y="6"/>
      <point x="50" y="32" type="curve" smooth="yes"/>
      <point x="50" y="75" type="line" smooth="yes"/>
      <point x="50" y="105"/>
      <point x="58" y="110"/>
      <point x="86" y="110" type="curve" smooth="yes"/>
      <point x="192" y="110" type="line" smooth="yes"/>
      <point x="233" y="110"/>
      <point x="230" y="113"/>
      <point x="230" y="153" type="curve" smooth="yes"/>
      <point x="230" y="882" type="line" smooth="yes"/>
      <point x="230" y="925"/>
      <point x="233" y="930"/>
      <point x="191" y="930" type="curve" smooth="yes"/>
      <point x="86" y="930" type="line" smooth="yes"/>
      <point x="51" y="930"/>
      <point x="50" y="939"/>
      <point x="50" y="975" type="curve" smooth="yes"/>
      <point x="50" y="1006" type="line" smooth="yes"/>
      <point x="50" y="1032"/>
      <point x="53" y="1040"/>
      <point x="78" y="1040" type="curve" smooth="yes"/>
      <point x="564" y="1040" type="line" smooth="yes"/>
      <point x="594" y="1040"/>
      <point x="600" y="1037"/>
      <point x="600" y="1006" type="curve" smooth="yes"/>
      <point x="600" y="972" type="line" smooth="yes"/>
      <point x="600" y="937"/>
      <point x="583" y="930"/>
      <point x="558" y="930" type="curve" smooth="yes"/>
      <point x="457" y="930" type="line" smooth="yes"/>
      <point x="410" y="930"/>
      <point x="410" y="930"/>
      <point x="410" y="883" type="curve" smooth="yes"/>
      <point x="410" y="628" type="line" smooth="yes"/>
      <point x="410" y="587"/>
      <point x="414" y="580"/>
      <point x="457" y="580" type="curve" smooth="yes"/>
      <point x="540" y="580" type="line" smooth="yes"/>
      <point x="673" y="580"/>
      <point x="715" y="670"/>
      <point x="738" y="762" type="curve" smooth="yes"/>
      <point x="790" y="966"/>
      <point x="842" y="1050"/>
      <point x="992" y="1050" type="curve" smooth="yes"/>
      <point x="1114" y="1050"/>
      <point x="1163" y="971"/>
      <point x="1163" y="897" type="curve" smooth="yes"/>
      <point x="1163" y="831"/>
      <point x="1120" y="765"/>
      <point x="1040" y="765" type="curve" smooth="yes"/>
      <point x="970" y="765"/>
      <point x="924" y="800"/>
      <point x="924" y="856" type="curve" smooth="yes"/>
      <point x="924" y="886"/>
      <point x="931" y="880"/>
      <point x="931" y="900" type="curve" smooth="yes"/>
      <point x="931" y="913"/>
      <point x="927" y="919"/>
      <point x="915" y="919" type="curve" smooth="yes"/>
      <point x="902" y="919"/>
      <point x="864" y="894"/>
      <point x="838" y="762" type="curve" smooth="yes"/>
      <point x="822" y="681"/>
      <point x="791" y="606"/>
      <point x="743" y="568" type="curve" smooth="yes"/>
      <point x="713" y="545"/>
      <point x="724" y="539"/>
      <point x="757" y="524" type="curve" smooth="yes"/>
      <point x="1062" y="390"/>
      <point x="822" y="105"/>
      <point x="992" y="105" type="curve" smooth="yes"/>
      <point x="1039" y="105"/>
      <point x="1069" y="143"/>
      <point x="1099" y="212" type="curve" smooth="yes"/>
      <point x="1106" y="228"/>
      <point x="1110" y="241"/>
      <point x="1130" y="234" type="curve" smooth="yes"/>
      <point x="1180" y="218" type="line" smooth="yes"/>
      <point x="1200" y="211"/>
      <point x="1210" y="207"/>
    </contour>
  </outline>
</glyph>
<glyph name="el-cy" format="2">
  <advance height="2234" width="1352"/>
  <unicode hex="043B"/>
  <outline>
    <contour>
      <point x="25" y="150" type="curve" smooth="yes"/>
      <point x="25" y="224"/>
      <point x="89" y="270"/>
      <point x="149" y="270" type="curve" smooth="yes"/>
      <point x="209" y="270"/>
      <point x="267" y="234"/>
      <point x="267" y="172" type="curve" smooth="yes"/>
      <point x="267" y="122"/>
      <point x="239" y="124"/>
      <point x="239" y="110" type="curve" smooth="yes"/>
      <point x="239" y="96"/>
      <point x="253" y="90"/>
      <point x="263" y="90" type="curve" smooth="yes"/>
      <point x="416" y="90"/>
      <point x="413" y="544"/>
      <point x="413" y="871" type="curve" smooth="yes"/>
      <point x="413" y="916"/>
      <point x="411" y="930"/>
      <point x="366" y="930" type="curve" smooth="yes"/>
      <point x="278" y="930" type="line" smooth="yes"/>
      <point x="236" y="930"/>
      <point x="233" y="937"/>
      <point x="233" y="980" type="curve" smooth="yes"/>
      <point x="233" y="1000" type="line" smooth="yes"/>
      <point x="233" y="1039"/>
      <point x="247" y="1040"/>
      <point x="283" y="1040" type="curve" smooth="yes"/>
      <point x="1245" y="1040" type="line" smooth="yes"/>
      <point x="1275" y="1040"/>
      <point x="1281" y="1037"/>
      <point x="1281" y="1006" type="curve" smooth="yes"/>
      <point x="1281" y="972" type="line" smooth="yes"/>
      <point x="1281" y="937"/>
      <point x="1264" y="930"/>
      <point x="1239" y="930" type="curve" smooth="yes"/>
      <point x="1149" y="930" type="line" smooth="yes"/>
      <point x="1117" y="930"/>
      <point x="1111" y="927"/>
      <point x="1111" y="894" type="curve" smooth="yes"/>
      <point x="1111" y="154" type="line" smooth="yes"/>
      <point x="1111" y="121"/>
      <point x="1120" y="110"/>
      <point x="1149" y="110" type="curve" smooth="yes"/>
      <point x="1259" y="110" type="line" smooth="yes"/>
      <point x="1278" y="110"/>
      <point x="1281" y="97"/>
      <point x="1281" y="78" type="curve" smooth="yes"/>
      <point x="1281" y="32" type="line" smooth="yes"/>
      <point x="1281" y="8"/>
      <point x="1269" y="0"/>
      <point x="1241" y="0" type="curve" smooth="yes"/>
      <point x="821" y="0" type="line" smooth="yes"/>
      <point x="793" y="0"/>
      <point x="781" y="7"/>
      <point x="781" y="32" type="curve" smooth="yes"/>
      <point x="781" y="82" type="line" smooth="yes"/>
      <point x="781" y="103"/>
      <point x="789" y="110"/>
      <point x="827" y="110" type="curve" smooth="yes"/>
      <point x="863" y="110" type="line" smooth="yes"/>
      <point x="898" y="110"/>
      <point x="931" y="114"/>
      <point x="931" y="160" type="curve" smooth="yes"/>
      <point x="931" y="896" type="line" smooth="yes"/>
      <point x="931" y="922"/>
      <point x="931" y="930"/>
      <point x="901" y="930" type="curve" smooth="yes"/>
      <point x="583" y="930" type="line" smooth="yes"/>
      <point x="540" y="930"/>
      <point x="538" y="921"/>
      <point x="538" y="878" type="curve" smooth="yes"/>
      <point x="538" y="488"/>
      <point x="566" y="-20"/>
      <point x="243" y="-20" type="curve" smooth="yes"/>
      <point x="99" y="-20"/>
      <point x="25" y="40"/>
    </contour>
  </outline>
</glyph>
<glyph name="ef-cy" format="2">
  <advance height="2234" width="1752"/>
  <unicode hex="0444"/>
  <outline>
    <contour>
      <point x="100" y="520" type="curve" smooth="yes"/>
      <point x="100" y="860"/>
      <point x="251" y="1058"/>
      <point x="489" y="1058" type="curve" smooth="yes"/>
      <point x="628" y="1058"/>
      <point x="711" y="987"/>
      <point x="768" y="895" type="curve" smooth="yes"/>
      <point x="783.091" y="870.643"/>
      <point x="786" y="870"/>
      <point x="786" y="923" type="curve" smooth="yes"/>
      <point x="786" y="1423" type="line" smooth="yes"/>
      <point x="786" y="1449"/>
      <point x="781" y="1450"/>
      <point x="754" y="1450" type="curve" smooth="yes"/>
      <point x="624" y="1450" type="line" smooth="yes"/>
      <point x="608" y="1450"/>
      <point x="606" y="1458"/>
      <point x="606" y="1475" type="curve" smooth="yes"/>
      <point x="606" y="1541" type="line" smooth="yes"/>
      <point x="606" y="1557"/>
      <point x="614" y="1560"/>
      <point x="629" y="1560" type="curve" smooth="yes"/>
      <point x="927" y="1560" type="line" smooth="yes"/>
      <point x="952" y="1560"/>
      <point x="966" y="1557"/>
      <point x="966" y="1530" type="curve" smooth="yes"/>
      <point x="966" y="922" type="line" smooth="yes"/>
      <point x="966" y="872"/>
      <point x="970.148" y="875.116"/>
      <point x="984" y="896" type="curve" smooth="yes"/>
      <point x="1049" y="994"/>
      <point x="1118" y="1060"/>
      <point x="1253" y="1060" type="curve" smooth="yes"/>
      <point x="1491" y="1060"/>
      <point x="1652" y="860"/>
      <point x="1652" y="520" type="curve" smooth="yes"/>
      <point x="1652" y="180"/>
      <point x="1491" y="-18"/>
      <point x="1253" y="-18" type="curve" smooth="yes"/>
      <point x="1129" y="-18"/>
      <point x="1071" y="35"/>
      <point x="1006" y="108" type="curve" smooth="yes"/>
      <point x="970.586" y="147.772"/>
      <point x="966" y="154"/>
      <point x="966" y="48" type="curve" smooth="yes"/>
      <point x="966" y="-344" type="line" smooth="yes"/>
      <point x="966" y="-385"/>
      <point x="973" y="-390"/>
      <point x="1013" y="-390" type="curve" smooth="yes"/>
      <point x="1111" y="-390" type="line" smooth="yes"/>
      <point x="1141" y="-390"/>
      <point x="1146" y="-396"/>
      <point x="1146" y="-428" type="curve" smooth="yes"/>
      <point x="1146" y="-469" type="line" smooth="yes"/>
      <point x="1146" y="-498"/>
      <point x="1143" y="-500"/>
      <point x="1115" y="-500" type="curve" smooth="yes"/>
      <point x="637" y="-500" type="line" smooth="yes"/>
      <point x="610" y="-500"/>
      <point x="606" y="-489"/>
      <point x="606" y="-464" type="curve" smooth="yes"/>
      <point x="606" y="-424" type="line" smooth="yes"/>
      <point x="606" y="-398"/>
      <point x="608" y="-390"/>
      <point x="633" y="-390" type="curve" smooth="yes"/>
      <point x="747" y="-390" type="line" smooth="yes"/>
      <point x="784" y="-390"/>
      <point x="786" y="-382"/>
      <point x="786" y="-344" type="curve" smooth="yes"/>
      <point x="786" y="127" type="line" smooth="yes"/>
      <point x="786" y="161"/>
      <point x="777.395" y="171.38"/>
      <point x="760" y="143" type="curve" smooth="yes"/>
      <point x="703" y="50"/>
      <point x="628" y="-20"/>
      <point x="489" y="-20" type="curve" smooth="yes"/>
      <point x="251" y="-20"/>
      <point x="100" y="180"/>
    </contour>
    <contour>
      <point x="966" y="520" type="curve" smooth="yes"/>
      <point x="966" y="292"/>
      <point x="1035" y="84"/>
      <point x="1217" y="84" type="curve" smooth="yes"/>
      <point x="1385" y="84"/>
      <point x="1452" y="292"/>
      <point x="1452" y="520" type="curve" smooth="yes"/>
      <point x="1452" y="748"/>
      <point x="1385" y="956"/>
      <point x="1217" y="956" type="curve" smooth="yes"/>
      <point x="1035" y="956"/>
      <point x="966" y="748"/>
    </contour>
    <contour>
      <point x="300" y="520" type="curve" smooth="yes"/>
      <point x="300" y="292"/>
      <point x="357" y="84"/>
      <point x="525" y="84" type="curve" smooth="yes"/>
      <point x="707" y="84"/>
      <point x="786" y="292"/>
      <point x="786" y="520" type="curve" smooth="yes"/>
      <point x="786" y="748"/>
      <point x="707" y="956"/>
      <point x="525" y="956" type="curve" smooth="yes"/>
      <point x="357" y="956"/>
      <point x="300" y="748"/>
    </contour>
  </outline>
</glyph>
<glyph name="sha-cy" format="2">
  <advance height="2310" width="1980"/>
  <unicode hex="0448"/>
  <outline>
    <contour>
      <point x="900" y="889" type="line" smooth="yes"/>
      <point x="900" y="920"/>
      <point x="889" y="930"/>
      <point x="858" y="930" type="curve" smooth="yes"/>
      <point x="755" y="930" type="line" smooth="yes"/>
      <point x="728" y="930"/>
      <point x="720" y="935"/>
      <point x="720" y="964" type="curve" smooth="yes"/>
      <point x="720" y="1010" type="line" smooth="yes"/>
      <point x="720" y="1034"/>
      <point x="725" y="1040"/>
      <point x="748" y="1040" type="curve" smooth="yes"/>
      <point x="1232" y="1040" type="line" smooth="yes"/>
      <point x="1256" y="1040"/>
      <point x="1260" y="1033"/>
      <point x="1260" y="1008" type="curve" smooth="yes"/>
      <point x="1260" y="962" type="line" smooth="yes"/>
      <point x="1260" y="934"/>
      <point x="1250" y="930"/>
      <point x="1224" y="930" type="curve" smooth="yes"/>
      <point x="1114" y="930" type="line" smooth="yes"/>
      <point x="1088" y="930"/>
      <point x="1080" y="927"/>
      <point x="1080" y="902" type="curve" smooth="yes"/>
      <point x="1080" y="155" type="line" smooth="yes"/>
      <point x="1080" y="120"/>
      <point x="1081" y="110"/>
      <point x="1116" y="110" type="curve" smooth="yes"/>
      <point x="1490" y="110" type="line" smooth="yes"/>
      <point x="1522" y="110"/>
      <point x="1530" y="114"/>
      <point x="1530" y="149" type="curve" smooth="yes"/>
      <point x="1530" y="889" type="line" smooth="yes"/>
      <point x="1530" y="920"/>
      <point x="1519" y="930"/>
      <point x="1488" y="930" type="curve" smooth="yes"/>
      <point x="1385" y="930" type="line" smooth="yes"/>
      <point x="1358" y="930"/>
      <point x="1350" y="935"/>
      <point x="1350" y="964" type="curve" smooth="yes"/>
      <point x="1350" y="1010" type="line" smooth="yes"/>
      <point x="1350" y="1034"/>
      <point x="1355" y="1040"/>
      <point x="1378" y="1040" type="curve" smooth="yes"/>
      <point x="1862" y="1040" type="line" smooth="yes"/>
      <point x="1886" y="1040"/>
      <point x="1890" y="1033"/>
      <point x="1890" y="1008" type="curve" smooth="yes"/>
      <point x="1890" y="962" type="line" smooth="yes"/>
      <point x="1890" y="934"/>
      <point x="1880" y="930"/>
      <point x="1854" y="930" type="curve" smooth="yes"/>
      <point x="1744" y="930" type="line" smooth="yes"/>
      <point x="1718" y="930"/>
      <point x="1710" y="927"/>
      <point x="1710" y="902" type="curve" smooth="yes"/>
      <point x="1710" y="155" type="line" smooth="yes"/>
      <point x="1710" y="120"/>
      <point x="1711" y="110"/>
      <point x="1746" y="110" type="curve" smooth="yes"/>
      <point x="1864" y="110" type="line" smooth="yes"/>
      <point x="1886" y="110"/>
      <point x="1890" y="103"/>
      <point x="1890" y="80" type="curve" smooth="yes"/>
      <point x="1890" y="22" type="line" smooth="yes"/>
      <point x="1890" y="0"/>
      <point x="1881" y="0"/>
      <point x="1859" y="0" type="curve" smooth="yes"/>
      <point x="118" y="0" type="line" smooth="yes"/>
      <point x="94" y="0"/>
      <point x="90" y="7"/>
      <point x="90" y="32" type="curve" smooth="yes"/>
      <point x="90" y="78" type="line" smooth="yes"/>
      <point x="90" y="106"/>
      <point x="100" y="110"/>
      <point x="126" y="110" type="curve" smooth="yes"/>
      <point x="236" y="110" type="line" smooth="yes"/>
      <point x="262" y="110"/>
      <point x="270" y="113"/>
      <point x="270" y="138" type="curve" smooth="yes"/>
      <point x="270" y="885" type="line" smooth="yes"/>
      <point x="270" y="920"/>
      <point x="269" y="930"/>
      <point x="234" y="930" type="curve" smooth="yes"/>
      <point x="116" y="930" type="line" smooth="yes"/>
      <point x="94" y="930"/>
      <point x="90" y="937"/>
      <point x="90" y="960" type="curve" smooth="yes"/>
      <point x="90" y="1018" type="line" smooth="yes"/>
      <point x="90" y="1040"/>
      <point x="99" y="1040"/>
      <point x="121" y="1040" type="curve" smooth="yes"/>
      <point x="608" y="1040" type="line" smooth="yes"/>
      <point x="629" y="1040"/>
      <point x="630" y="1031"/>
      <point x="630" y="1009" type="curve" smooth="yes"/>
      <point x="630" y="959" type="line" smooth="yes"/>
      <point x="630" y="937"/>
      <point x="626" y="930"/>
      <point x="605" y="930" type="curve" smooth="yes"/>
      <point x="490" y="930" type="line" smooth="yes"/>
      <point x="458" y="930"/>
      <point x="450" y="926"/>
      <point x="450" y="891" type="curve" smooth="yes"/>
      <point x="450" y="151" type="line" smooth="yes"/>
      <point x="450" y="120"/>
      <point x="461" y="110"/>
      <point x="492" y="110" type="curve" smooth="yes"/>
      <point x="860" y="110" type="line" smooth="yes"/>
      <point x="892" y="110"/>
      <point x="900" y="114"/>
      <point x="900" y="149" type="curve" smooth="yes"/>
    </contour>
  </outline>
</glyph>
<glyph name="softsign-cy" format="2">
  <advance height="2234" width="1105"/>
  <unicode hex="044C"/>
  <outline>
    <contour>
      <point x="85" y="0" type="line" smooth="yes"/>
      <point x="64" y="0"/>
      <point x="62" y="4"/>
      <point x="62" y="26" type="curve" smooth="yes"/>
      <point x="62" y="88" type="line" smooth="yes"/>
      <point x="62" y="108"/>
      <point x="72" y="110"/>
      <point x="90" y="110" type="curve" smooth="yes"/>
      <point x="220" y="110" type="line" smooth="yes"/>
      <point x="241" y="110"/>
      <point x="242" y="117"/>
      <point x="242" y="137" type="curve" smooth="yes"/>
      <point x="242" y="896" type="line" smooth="yes"/>
      <point x="242" y="921"/>
      <point x="241" y="930"/>
      <point x="216" y="930" type="curve" smooth="yes"/>
      <point x="87" y="930" type="line" smooth="yes"/>
      <point x="67" y="930"/>
      <point x="62" y="932"/>
      <point x="62" y="954" type="curve" smooth="yes"/>
      <point x="62" y="1016" type="line" smooth="yes"/>
      <point x="62" y="1037"/>
      <point x="69" y="1040"/>
      <point x="89" y="1040" type="curve" smooth="yes"/>
      <point x="576" y="1040" type="line" smooth="yes"/>
      <point x="603" y="1040"/>
      <point x="612" y="1039"/>
      <point x="612" y="1010" type="curve" smooth="yes"/>
      <point x="612" y="959" type="line" smooth="yes"/>
      <point x="612" y="931"/>
      <point x="609" y="930"/>
      <point x="581" y="930" type="curve" smooth="yes"/>
      <point x="447" y="930" type="line" smooth="yes"/>
      <point x="425" y="930"/>
      <point x="422" y="923"/>
      <point x="422" y="900" type="curve" smooth="yes"/>
      <point x="422" y="615" type="line" smooth="yes"/>
      <point x="422" y="590.626"/>
      <point x="431.48" y="590"/>
      <point x="456" y="590" type="curve" smooth="yes"/>
      <point x="650" y="590" type="line" smooth="yes"/>
      <point x="922" y="590"/>
      <point x="1100" y="520"/>
      <point x="1100" y="300" type="curve" smooth="yes"/>
      <point x="1100" y="80"/>
      <point x="922" y="0"/>
      <point x="650" y="0" type="curve" smooth="yes"/>
    </contour>
    <contour>
      <point x="650" y="110" type="line" smooth="yes"/>
      <point x="802" y="110"/>
      <point x="880" y="172"/>
      <point x="880" y="310" type="curve" smooth="yes"/>
      <point x="880" y="448"/>
      <point x="802" y="480"/>
      <point x="650" y="480" type="curve" smooth="yes"/>
      <point x="471" y="480" type="line" smooth="yes"/>
      <point x="423.806" y="480"/>
      <point x="422" y="471.542"/>
      <point x="422" y="424" type="curve" smooth="yes"/>
      <point x="422" y="146" type="line" smooth="yes"/>
      <point x="422" y="114"/>
      <point x="423" y="110"/>
      <point x="455" y="110" type="curve" smooth="yes"/>
    </contour>
  </outline>
</glyph>
<glyph name="ereversed-cy" format="2">
  <advance height="2310" width="985"/>
  <unicode hex="044D"/>
  <outline>
    <contour>
      <point x="925" y="530" type="curve" smooth="yes"/>
      <point x="925" y="200"/>
      <point x="749" y="-20"/>
      <point x="427" y="-20" type="curve" smooth="yes"/>
      <point x="183" y="-20"/>
      <point x="35" y="114"/>
      <point x="35" y="278" type="curve" smooth="yes"/>
      <point x="35" y="374"/>
      <point x="105" y="410"/>
      <point x="163" y="410" type="curve" smooth="yes"/>
      <point x="217" y="410"/>
      <point x="277" y="368"/>
      <point x="277" y="294" type="curve" smooth="yes"/>
      <point x="277" y="222"/>
      <point x="213" y="212"/>
      <point x="213" y="166" type="curve" smooth="yes"/>
      <point x="213" y="112"/>
      <point x="299" y="74"/>
      <point x="407" y="74" type="curve" smooth="yes"/>
      <point x="595.227" y="74"/>
      <point x="693.993" y="221.609"/>
      <point x="717.46" y="428" type="curve" smooth="yes"/>
      <point x="721.42" y="462.831"/>
      <point x="716.734" y="470"/>
      <point x="687" y="470" type="curve" smooth="yes"/>
      <point x="390" y="470" type="line" smooth="yes"/>
      <point x="362" y="470"/>
      <point x="350" y="477"/>
      <point x="350" y="502" type="curve" smooth="yes"/>
      <point x="350" y="552" type="line" smooth="yes"/>
      <point x="350" y="573"/>
      <point x="358" y="580"/>
      <point x="396" y="580" type="curve" smooth="yes"/>
      <point x="691" y="580" type="line" smooth="yes"/>
      <point x="722.029" y="580"/>
      <point x="722.628" y="584.973"/>
      <point x="721.089" y="615" type="curve" smooth="yes"/>
      <point x="710.506" y="821.556"/>
      <point x="653.037" y="962"/>
      <point x="477" y="962" type="curve" smooth="yes"/>
      <point x="303" y="962"/>
      <point x="231.853" y="812.479"/>
      <point x="195" y="699" type="curve" smooth="yes"/>
      <point x="188.397" y="678.668"/>
      <point x="197" y="670"/>
      <point x="171" y="670" type="curve" smooth="yes"/>
      <point x="110" y="670" type="line" smooth="yes"/>
      <point x="87" y="670"/>
      <point x="81" y="674"/>
      <point x="81" y="696" type="curve" smooth="yes"/>
      <point x="81" y="1031" type="line" smooth="yes"/>
      <point x="81" y="1047"/>
      <point x="84" y="1050"/>
      <point x="101" y="1050" type="curve" smooth="yes"/>
      <point x="155" y="1050" type="line" smooth="yes"/>
      <point x="174" y="1050"/>
      <point x="172" y="1046"/>
      <point x="176" y="1032" type="curve" smooth="yes"/>
      <point x="198" y="959" type="line" smooth="yes"/>
      <point x="209" y="922"/>
      <point x="217.117" y="921.89"/>
      <point x="237" y="943" type="curve" smooth="yes"/>
      <point x="318" y="1029"/>
      <point x="398" y="1060"/>
      <point x="501" y="1060" type="curve" smooth="yes"/>
      <point x="803" y="1060"/>
      <point x="925" y="850"/>
    </contour>
  </outline>
</glyph>
<glyph name="e-cy" format="2">
  <advance height="2310" width="1126"/>
  <unicode hex="0454"/>
  <outline>
    <contour>
      <point x="100" y="520" type="curve" smooth="yes"/>
      <point x="100" y="820"/>
      <point x="276" y="1060"/>
      <point x="598" y="1060" type="curve" smooth="yes"/>
      <point x="842" y="1060"/>
      <point x="990" y="926"/>
      <point x="990" y="762" type="curve" smooth="yes"/>
      <point x="990" y="666"/>
      <point x="920" y="630"/>
      <point x="862" y="630" type="curve" smooth="yes"/>
      <point x="808" y="630"/>
      <point x="748" y="672"/>
      <point x="748" y="746" type="curve" smooth="yes"/>
      <point x="748" y="818"/>
      <point x="812" y="828"/>
      <point x="812" y="874" type="curve" smooth="yes"/>
      <point x="812" y="928"/>
      <point x="726" y="966"/>
      <point x="618" y="966" type="curve" smooth="yes"/>
      <point x="431.309" y="966"/>
      <point x="332.624" y="806.121"/>
      <point x="308.129" y="617" type="curve" smooth="yes"/>
      <point x="303.699" y="582.795"/>
      <point x="308.763" y="577"/>
      <point x="348" y="577" type="curve" smooth="yes"/>
      <point x="604" y="577" type="line" smooth="yes"/>
      <point x="632" y="577"/>
      <point x="644" y="570"/>
      <point x="644" y="545" type="curve" smooth="yes"/>
      <point x="644" y="495" type="line" smooth="yes"/>
      <point x="644" y="474"/>
      <point x="636" y="467"/>
      <point x="598" y="467" type="curve" smooth="yes"/>
      <point x="345" y="467" type="line" smooth="yes"/>
      <point x="300.916" y="467"/>
      <point x="304.231" y="443.845"/>
      <point x="308.799" y="408" type="curve" smooth="yes"/>
      <point x="331.918" y="226.561"/>
      <point x="416.364" y="78"/>
      <point x="598" y="78" type="curve" smooth="yes"/>
      <point x="757" y="78"/>
      <point x="860" y="178"/>
      <point x="912" y="327" type="curve" smooth="yes"/>
      <point x="917" y="340"/>
      <point x="921" y="346"/>
      <point x="940" y="346" type="curve" smooth="yes"/>
      <point x="1002" y="346" type="line" smooth="yes"/>
      <point x="1023" y="346"/>
      <point x="1026" y="343"/>
      <point x="1021" y="328" type="curve" smooth="yes"/>
      <point x="957" y="124"/>
      <point x="829" y="-20"/>
      <point x="594" y="-20" type="curve" smooth="yes"/>
      <point x="252" y="-20"/>
      <point x="100" y="220"/>
    </contour>
  </outline>
</glyph>
<glyph name="yi-cy" format="2">
  <advance width="695"/>
  <unicode hex="0457"/>
  <outline>
    <contour>
      <point x="523" y="1230" type="curve" smooth="yes"/>
      <point x="470" y="1230"/>
      <point x="427" y="1273"/>
      <point x="427" y="1326" type="curve" smooth="yes"/>
      <point x="427" y="1379"/>
      <point x="470" y="1423"/>
      <point x="523" y="1423" type="curve" smooth="yes"/>
      <point x="576" y="1423"/>
      <point x="619" y="1379"/>
      <point x="619" y="1326" type="curve" smooth="yes"/>
      <point x="619" y="1273"/>
      <point x="576" y="1230"/>
    </contour>
    <contour>
      <point x="203" y="1230" type="curve" smooth="yes"/>
      <point x="150" y="1230"/>
      <point x="107" y="1273"/>
      <point x="107" y="1326" type="curve" smooth="yes"/>
      <point x="107" y="1379"/>
      <point x="150" y="1423"/>
      <point x="203" y="1423" type="curve" smooth="yes"/>
      <point x="256" y="1423"/>
      <point x="299" y="1379"/>
      <point x="299" y="1326" type="curve" smooth="yes"/>
      <point x="299" y="1273"/>
      <point x="256" y="1230"/>
    </contour>
    <contour>
      <point x="256" y="930" type="curve" smooth="yes"/>
      <point x="121" y="930" type="line" smooth="yes"/>
      <point x="101" y="930"/>
      <point x="100" y="934"/>
      <point x="100" y="954" type="curve" smooth="yes"/>
      <point x="100" y="1014" type="line" smooth="yes"/>
      <point x="100" y="1034"/>
      <point x="105" y="1040"/>
      <point x="124" y="1040" type="curve" smooth="yes"/>
      <point x="441" y="1040" type="line" smooth="yes"/>
      <point x="457" y="1040"/>
      <point x="460" y="1036"/>
      <point x="460" y="1019" type="curve" smooth="yes"/>
      <point x="460" y="134" type="line" smooth="yes"/>
      <point x="460" y="117"/>
      <point x="465" y="110"/>
      <point x="481" y="110" type="curve" smooth="yes"/>
      <point x="616" y="110" type="line" smooth="yes"/>
      <point x="635" y="110"/>
      <point x="640" y="109"/>
      <point x="640" y="90" type="curve" smooth="yes"/>
      <point x="640" y="24" type="line" smooth="yes"/>
      <point x="640" y="5"/>
      <point x="640" y="0"/>
      <point x="621" y="0" type="curve" smooth="yes"/>
      <point x="131" y="0" type="line" smooth="yes"/>
      <point x="108" y="0"/>
      <point x="100" y="2"/>
      <point x="100" y="24" type="curve" smooth="yes"/>
      <point x="100" y="80" type="line" smooth="yes"/>
      <point x="100" y="106"/>
      <point x="109" y="110"/>
      <point x="133" y="110" type="curve" smooth="yes"/>
      <point x="257" y="110" type="line" smooth="yes"/>
      <point x="279" y="110"/>
      <point x="280" y="116"/>
      <point x="280" y="138" type="curve" smooth="yes"/>
      <point x="280" y="906" type="line" smooth="yes"/>
      <point x="280" y="926"/>
      <point x="274" y="930"/>
    </contour>
  </outline>
</glyph>
<glyph name="lje-cy" format="2">
  <advance height="2234" width="1704"/>
  <unicode hex="0459"/>
  <outline>
    <contour>
      <point x="25" y="150" type="curve" smooth="yes"/>
      <point x="25" y="224"/>
      <point x="89" y="270"/>
      <point x="149" y="270" type="curve" smooth="yes"/>
      <point x="209" y="270"/>
      <point x="267" y="234"/>
      <point x="267" y="172" type="curve" smooth="yes"/>
      <point x="267" y="122"/>
      <point x="239" y="124"/>
      <point x="239" y="110" type="curve" smooth="yes"/>
      <point x="239" y="96"/>
      <point x="253" y="90"/>
      <point x="263" y="90" type="curve" smooth="yes"/>
      <point x="416" y="90"/>
      <point x="413" y="544"/>
      <point x="413" y="871" type="curve" smooth="yes"/>
      <point x="413" y="916"/>
      <point x="411" y="930"/>
      <point x="366" y="930" type="curve" smooth="yes"/>
      <point x="278" y="930" type="line" smooth="yes"/>
      <point x="236" y="930"/>
      <point x="233" y="937"/>
      <point x="233" y="980" type="curve" smooth="yes"/>
      <point x="233" y="1000" type="line" smooth="yes"/>
      <point x="233" y="1039"/>
      <point x="247" y="1040"/>
      <point x="283" y="1040" type="curve" smooth="yes"/>
      <point x="1205" y="1040" type="line" smooth="yes"/>
      <point x="1232" y="1040"/>
      <point x="1241" y="1039"/>
      <point x="1241" y="1010" type="curve" smooth="yes"/>
      <point x="1241" y="959" type="line" smooth="yes"/>
      <point x="1241" y="931"/>
      <point x="1238" y="930"/>
      <point x="1210" y="930" type="curve" smooth="yes"/>
      <point x="1089" y="930" type="line" smooth="yes"/>
      <point x="1057" y="930"/>
      <point x="1051" y="927"/>
      <point x="1051" y="894" type="curve" smooth="yes"/>
      <point x="1051" y="631" type="line" smooth="yes"/>
      <point x="1051" y="594.607"/>
      <point x="1047.234" y="590"/>
      <point x="1085" y="590" type="curve" smooth="yes"/>
      <point x="1249" y="590" type="line" smooth="yes"/>
      <point x="1521" y="590"/>
      <point x="1699" y="520"/>
      <point x="1699" y="300" type="curve" smooth="yes"/>
      <point x="1699" y="80"/>
      <point x="1521" y="0"/>
      <point x="1249" y="0" type="curve" smooth="yes"/>
      <point x="714" y="0" type="line" smooth="yes"/>
      <point x="693" y="0"/>
      <point x="691" y="4"/>
      <point x="691" y="26" type="curve" smooth="yes"/>
      <point x="691" y="88" type="line" smooth="yes"/>
      <point x="691" y="108"/>
      <point x="701" y="110"/>
      <point x="719" y="110" type="curve" smooth="yes"/>
      <point x="803" y="110" type="line" smooth="yes"/>
      <point x="838" y="110"/>
      <point x="871" y="114"/>
      <point x="871" y="160" type="curve" smooth="yes"/>
      <point x="871" y="896" type="line" smooth="yes"/>
      <point x="871" y="923.887"/>
      <point x="868.886" y="930"/>
      <point x="841" y="930" type="curve" smooth="yes"/>
      <point x="583" y="930" type="line" smooth="yes"/>
      <point x="540" y="930"/>
      <point x="538" y="921"/>
      <point x="538" y="878" type="curve" smooth="yes"/>
      <point x="538" y="488"/>
      <point x="566" y="-20"/>
      <point x="243" y="-20" type="curve" smooth="yes"/>
      <point x="99" y="-20"/>
      <point x="25" y="40"/>
    </contour>
    <contour>
      <point x="1249" y="110" type="line" smooth="yes"/>
      <point x="1401" y="110"/>
      <point x="1479" y="172"/>
      <point x="1479" y="310" type="curve" smooth="yes"/>
      <point x="1479" y="448"/>
      <point x="1401" y="480"/>
      <point x="1249" y="480" type="curve" smooth="yes"/>
      <point x="1085" y="480" type="line" smooth="yes"/>
      <point x="1052.776" y="480"/>
      <point x="1051" y="481.521"/>
      <point x="1051" y="449" type="curve" smooth="yes"/>
      <point x="1051" y="154" type="line" smooth="yes"/>
      <point x="1051" y="121"/>
      <point x="1060" y="110"/>
      <point x="1089" y="110" type="curve" smooth="yes"/>
    </contour>
  </outline>
</glyph>
<glyph name="Yat-cy" format="2">
  <advance width="1330"/>
  <unicode hex="0462"/>
  <outline>
    <contour>
      <point x="165" y="1160" type="curve" smooth="yes"/>
      <point x="757" y="1160" type="line" smooth="yes"/>
      <point x="785" y="1160"/>
      <point x="788" y="1156"/>
      <point x="788" y="1132" type="curve" smooth="yes"/>
      <point x="788" y="1083" type="line" smooth="yes"/>
      <point x="788" y="1059"/>
      <point x="786" y="1050"/>
      <point x="754" y="1050" type="curve" smooth="yes"/>
      <point x="163" y="1050" type="line" smooth="yes"/>
      <point x="133" y="1050"/>
      <point x="131" y="1054"/>
      <point x="131" y="1080" type="curve" smooth="yes"/>
      <point x="131" y="1132" type="line" smooth="yes"/>
      <point x="131" y="1155"/>
      <point x="139" y="1160"/>
    </contour>
    <component base="Softsign-cy" xOffset="5"/>
  </outline>
</glyph>
<glyph name="geupturn-cy" format="2">
  <advance height="2234" width="970"/>
  <unicode hex="0491"/>
  <outline>
    <contour>
      <point x="241" y="930" type="curve" smooth="yes"/>
      <point x="114" y="930" type="line" smooth="yes"/>
      <point x="95" y="930"/>
      <point x="90" y="932"/>
      <point x="90" y="952" type="curve" smooth="yes"/>
      <point x="90" y="1021" type="line" smooth="yes"/>
      <point x="90" y="1035"/>
      <point x="91" y="1040"/>
      <point x="105" y="1040" type="curve" smooth="yes"/>
      <point x="590" y="1040" type="line" smooth="yes"/>
      <point x="789" y="1040"/>
      <point x="857" y="1117"/>
      <point x="860" y="1296" type="curve" smooth="yes"/>
      <point x="860" y="1315"/>
      <point x="860" y="1320"/>
      <point x="880" y="1320" type="curve" smooth="yes"/>
      <point x="932" y="1320" type="line" smooth="yes"/>
      <point x="951" y="1320"/>
      <point x="960" y="1319"/>
      <point x="960" y="1300" type="curve" smooth="yes"/>
      <point x="960" y="959" type="line" smooth="yes"/>
      <point x="960" y="937"/>
      <point x="957" y="930"/>
      <point x="936" y="930" type="curve" smooth="yes"/>
      <point x="494" y="930" type="line" smooth="yes"/>
      <point x="469" y="930"/>
      <point x="450" y="916"/>
      <point x="450" y="893" type="curve" smooth="yes"/>
      <point x="450" y="150" type="line" smooth="yes"/>
      <point x="450" y="118"/>
      <point x="464" y="110"/>
      <point x="498" y="110" type="curve" smooth="yes"/>
      <point x="672" y="110" type="line" smooth="yes"/>
      <point x="691" y="110"/>
      <point x="700" y="109"/>
      <point x="700" y="90" type="curve" smooth="yes"/>
      <point x="700" y="30" type="line" smooth="yes"/>
      <point x="700" y="4"/>
      <point x="691" y="0"/>
      <point x="667" y="0" type="curve" smooth="yes"/>
      <point x="115" y="0" type="line" smooth="yes"/>
      <point x="95" y="0"/>
      <point x="90" y="0"/>
      <point x="90" y="20" type="curve" smooth="yes"/>
      <point x="90" y="92" type="line" smooth="yes"/>
      <point x="90" y="109"/>
      <point x="99" y="110"/>
      <point x="117" y="110" type="curve" smooth="yes"/>
      <point x="243" y="110" type="line" smooth="yes"/>
      <point x="265" y="110"/>
      <point x="270" y="117"/>
      <point x="270" y="140" type="curve" smooth="yes"/>
      <point x="270" y="900" type="line" smooth="yes"/>
      <point x="270" y="927"/>
      <point x="267" y="930"/>
    </contour>
  </outline>
</glyph>
<glyph name="guilsinglright" format="2">
  <advance width="830"/>
  <unicode hex="203A"/>
  <outline>
    <contour>
      <point x="528" y="775" type="line"/>
      <point x="60" y="1170" type="line"/>
      <point x="120" y="1260" type="line"/>
      <point x="780" y="800" type="line"/>
      <point x="780" y="750" type="line"/>
      <point x="120" y="290" type="line"/>
      <point x="60" y="380" type="line"/>
    </contour>
  </outline>
</glyph>
<glyph name="numero" format="2">
  <advance width="2786"/>
  <unicode hex="2116"/>
  <anchor x="896" y="1500" name="Anchor-0"/>
  <anchor x="826" y="0" name="Anchor-1"/>
  <anchor x="826" y="0" name="Anchor-2"/>
  <outline>
    <contour>
      <point x="1918" y="268" type="curve" smooth="yes"/>
      <point x="2624" y="268" type="line" smooth="yes"/>
      <point x="2647" y="268"/>
      <point x="2650" y="264"/>
      <point x="2650" y="240" type="curve" smooth="yes"/>
      <point x="2650" y="191" type="line" smooth="yes"/>
      <point x="2650" y="167"/>
      <point x="2648" y="158"/>
      <point x="2622" y="158" type="curve" smooth="yes"/>
      <point x="1916" y="158" type="line" smooth="yes"/>
      <point x="1891" y="158"/>
      <point x="1890" y="162"/>
      <point x="1890" y="188" type="curve" smooth="yes"/>
      <point x="1890" y="240" type="line" smooth="yes"/>
      <point x="1890" y="263"/>
      <point x="1897" y="268"/>
    </contour>
    <contour>
      <point x="2050" y="910" type="curve" smooth="yes"/>
      <point x="2050" y="702"/>
      <point x="2080" y="510"/>
      <point x="2268" y="510" type="curve" smooth="yes"/>
      <point x="2456" y="510"/>
      <point x="2486" y="702"/>
      <point x="2486" y="870" type="curve" smooth="yes"/>
      <point x="2486" y="1078"/>
      <point x="2456" y="1270"/>
      <point x="2268" y="1270" type="curve" smooth="yes"/>
      <point x="2080" y="1270"/>
      <point x="2050" y="1078"/>
    </contour>
    <contour>
      <point x="1840" y="870" type="curve" smooth="yes"/>
      <point x="1840" y="1150"/>
      <point x="1976" y="1360"/>
      <point x="2268" y="1360" type="curve" smooth="yes"/>
      <point x="2560" y="1360"/>
      <point x="2696" y="1150"/>
      <point x="2696" y="910" type="curve" smooth="yes"/>
      <point x="2696" y="630"/>
      <point x="2560" y="420"/>
      <point x="2268" y="420" type="curve" smooth="yes"/>
      <point x="1976" y="420"/>
      <point x="1840" y="630"/>
    </contour>
    <component base="N"/>
  </outline>
</glyph>
<glyph name="minus" format="2">
  <advance width="1224"/>
  <unicode hex="2212"/>
  <outline>
    <contour>
      <point x="160" y="830" type="curve" smooth="yes"/>
      <point x="1066" y="830" type="line" smooth="yes"/>
      <point x="1099" y="830"/>
      <point x="1104" y="826"/>
      <point x="1104" y="802" type="curve" smooth="yes"/>
      <point x="1104" y="753" type="line" smooth="yes"/>
      <point x="1104" y="729"/>
      <point x="1102" y="720"/>
      <point x="1064" y="720" type="curve" smooth="yes"/>
      <point x="157" y="720" type="line" smooth="yes"/>
      <point x="121" y="720"/>
      <point x="120" y="724"/>
      <point x="120" y="750" type="curve" smooth="yes"/>
      <point x="120" y="802" type="line" smooth="yes"/>
      <point x="120" y="825"/>
      <point x="130" y="830"/>
    </contour>
  </outline>
</glyph>
<glyph name="infinity" format="2">
  <advance height="2309" width="1813"/>
  <unicode hex="221E"/>
  <outline>
    <contour>
      <point x="1622" y="780" type="curve" smooth="yes"/>
      <point x="1622" y="948"/>
      <point x="1517" y="1047"/>
      <point x="1364" y="1047" type="curve" smooth="yes"/>
      <point x="1237" y="1047"/>
      <point x="1126" y="945"/>
      <point x="1031" y="825" type="curve" smooth="yes"/>
      <point x="1004" y="791"/>
      <point x="992" y="784"/>
      <point x="1020" y="748" type="curve" smooth="yes"/>
      <point x="1117" y="623"/>
      <point x="1232" y="513"/>
      <point x="1364" y="513" type="curve" smooth="yes"/>
      <point x="1517" y="513"/>
      <point x="1622" y="622"/>
    </contour>
    <contour>
      <point x="1763" y="780" type="curve" smooth="yes"/>
      <point x="1763" y="540"/>
      <point x="1606" y="401"/>
      <point x="1364" y="401" type="curve" smooth="yes"/>
      <point x="1209" y="401"/>
      <point x="1061" y="508"/>
      <point x="946" y="644" type="curve" smooth="yes"/>
      <point x="906" y="691"/>
      <point x="910" y="696"/>
      <point x="870" y="648" type="curve" smooth="yes"/>
      <point x="754" y="510"/>
      <point x="606" y="401"/>
      <point x="449" y="401" type="curve" smooth="yes"/>
      <point x="207" y="401"/>
      <point x="50" y="550"/>
      <point x="50" y="780" type="curve" smooth="yes"/>
      <point x="50" y="1020"/>
      <point x="207" y="1159"/>
      <point x="449" y="1159" type="curve" smooth="yes"/>
      <point x="611" y="1159"/>
      <point x="763" y="1044"/>
      <point x="881" y="899" type="curve" smooth="yes"/>
      <point x="906" y="868"/>
      <point x="904" y="864"/>
      <point x="930" y="896" type="curve" smooth="yes"/>
      <point x="1048" y="1043"/>
      <point x="1201" y="1159"/>
      <point x="1364" y="1159" type="curve" smooth="yes"/>
      <point x="1606" y="1159"/>
      <point x="1763" y="1020"/>
    </contour>
    <contour>
      <point x="786" y="820" type="curve" smooth="yes"/>
      <point x="688" y="942"/>
      <point x="568" y="1047"/>
      <point x="439" y="1047" type="curve" smooth="yes"/>
      <point x="286" y="1047"/>
      <point x="191" y="928"/>
      <point x="191" y="780" type="curve" smooth="yes"/>
      <point x="191" y="622"/>
      <point x="286" y="513"/>
      <point x="439" y="513" type="curve" smooth="yes"/>
      <point x="569" y="513"/>
      <point x="691" y="621"/>
      <point x="789" y="744" type="curve" smooth="yes"/>
      <point x="818" y="780"/>
      <point x="815" y="784"/>
    </contour>
  </outline>
</glyph>
<glyph name="notequal" format="2">
  <advance width="1119"/>
  <unicode hex="2260"/>
  <outline>
    <contour>
      <point x="157" y="980" type="curve" smooth="yes"/>
      <point x="967" y="980" type="line" smooth="yes"/>
      <point x="997" y="980"/>
      <point x="1000" y="976"/>
      <point x="1000" y="952" type="curve" smooth="yes"/>
      <point x="1000" y="903" type="line" smooth="yes"/>
      <point x="1000" y="879"/>
      <point x="998" y="870"/>
      <point x="964" y="870" type="curve" smooth="yes"/>
      <point x="154" y="870" type="line" smooth="yes"/>
      <point x="122" y="870"/>
      <point x="120" y="874"/>
      <point x="120" y="900" type="curve" smooth="yes"/>
      <point x="120" y="952" type="line" smooth="yes"/>
      <point x="120" y="975"/>
      <point x="130" y="980"/>
    </contour>
    <contour>
      <point x="157" y="680" type="curve" smooth="yes"/>
      <point x="967" y="680" type="line" smooth="yes"/>
      <point x="997" y="680"/>
      <point x="1000" y="676"/>
      <point x="1000" y="652" type="curve" smooth="yes"/>
      <point x="1000" y="603" type="line" smooth="yes"/>
      <point x="1000" y="579"/>
      <point x="998" y="570"/>
      <point x="964" y="570" type="curve" smooth="yes"/>
      <point x="154" y="570" type="line" smooth="yes"/>
      <point x="122" y="570"/>
      <point x="120" y="574"/>
      <point x="120" y="600" type="curve" smooth="yes"/>
      <point x="120" y="652" type="line" smooth="yes"/>
      <point x="120" y="675"/>
      <point x="130" y="680"/>
    </contour>
    <contour>
      <point x="190" y="282" type="curve" smooth="yes"/>
      <point x="859" y="1239" type="line" smooth="yes"/>
      <point x="884" y="1274"/>
      <point x="890" y="1276"/>
      <point x="906" y="1265" type="curve" smooth="yes"/>
      <point x="938" y="1243" type="line" smooth="yes"/>
      <point x="954" y="1232"/>
      <point x="957" y="1225"/>
      <point x="929" y="1185" type="curve" smooth="yes"/>
      <point x="259" y="228" type="line" smooth="yes"/>
      <point x="232" y="190"/>
      <point x="229" y="191"/>
      <point x="212" y="203" type="curve" smooth="yes"/>
      <point x="178" y="226" type="line" smooth="yes"/>
      <point x="163" y="237"/>
      <point x="168" y="250"/>
    </contour>
  </outline>
</glyph>
<glyph name="reversedRotatedFloralHeartBullet" format="2">
  <advance width="1654"/>
  <unicode hex="2619"/>
  <outline>
    <contour>
      <point x="1047.768" y="580" type="curve" smooth="yes"/>
      <point x="1006.644" y="534.697"/>
      <point x="994.894" y="536.15"/>
      <point x="1080" y="544.45" type="curve" smooth="yes"/>
      <point x="1336.334" y="569.45"/>
      <point x="1476" y="659.752"/>
      <point x="1476" y="851" type="curve" smooth="yes"/>
      <point x="1476" y="985"/>
      <point x="1406" y="1054"/>
      <point x="1382" y="1054" type="curve" smooth="yes"/>
      <point x="1342" y="1054"/>
      <point x="1328" y="963"/>
      <point x="1258" y="963" type="curve" smooth="yes"/>
      <point x="1202" y="963"/>
      <point x="1162" y="1009"/>
      <point x="1162" y="1079" type="curve" smooth="yes"/>
      <point x="1162" y="1149"/>
      <point x="1209" y="1197"/>
      <point x="1295" y="1197" type="curve" smooth="yes"/>
      <point x="1409" y="1197"/>
      <point x="1566" y="1093"/>
      <point x="1566" y="851" type="curve" smooth="yes"/>
      <point x="1566" y="758.862"/>
      <point x="1537.557" y="691.432"/>
      <point x="1489.278" y="634" type="curve" smooth="yes"/>
      <point x="1456.57" y="595.09"/>
      <point x="1468.365" y="588.281"/>
      <point x="1502.918" y="570" type="curve" smooth="yes"/>
      <point x="1588.642" y="524.646"/>
      <point x="1624" y="419.423"/>
      <point x="1624" y="348" type="curve" smooth="yes"/>
      <point x="1624" y="166"/>
      <point x="1497" y="52"/>
      <point x="1383" y="52" type="curve" smooth="yes"/>
      <point x="1297" y="52"/>
      <point x="1250" y="100"/>
      <point x="1250" y="170" type="curve" smooth="yes"/>
      <point x="1250" y="240"/>
      <point x="1290" y="286"/>
      <point x="1346" y="286" type="curve" smooth="yes"/>
      <point x="1416" y="286"/>
      <point x="1430" y="195"/>
      <point x="1470" y="195" type="curve" smooth="yes"/>
      <point x="1494" y="195"/>
      <point x="1543" y="243"/>
      <point x="1543" y="337" type="curve" smooth="yes"/>
      <point x="1543" y="440.392"/>
      <point x="1483.441" y="545.697"/>
      <point x="1320.037" y="493.46" type="curve" smooth="yes"/>
      <point x="1217.671" y="460.735"/>
      <point x="1151.751" y="448.198"/>
      <point x="1056" y="441.787" type="curve" smooth="yes"/>
      <point x="980.479" y="436.73"/>
      <point x="1024.491" y="429.147"/>
      <point x="1052.804" y="396" type="curve" smooth="yes"/>
      <point x="1080.518" y="363.553"/>
      <point x="1100" y="319.842"/>
      <point x="1100" y="257" type="curve" smooth="yes"/>
      <point x="1100" y="110"/>
      <point x="981" y="-17"/>
      <point x="733" y="-17" type="curve" smooth="yes"/>
      <point x="347" y="-17"/>
      <point x="80" y="244"/>
      <point x="80" y="619" type="curve" smooth="yes"/>
      <point x="80" y="833"/>
      <point x="171" y="1029"/>
      <point x="422" y="1098" type="curve" smooth="yes"/>
      <point x="446.125" y="1104.632"/>
      <point x="449.062" y="1097.872"/>
      <point x="450" y="1091" type="curve" smooth="yes"/>
      <point x="456" y="1047" type="line" smooth="yes"/>
      <point x="457.071" y="1039.146"/>
      <point x="452.105" y="1038.843"/>
      <point x="440" y="1034" type="curve" smooth="yes"/>
      <point x="300" y="978"/>
      <point x="228" y="862"/>
      <point x="228" y="730" type="curve" smooth="yes"/>
      <point x="228" y="594"/>
      <point x="306" y="520"/>
      <point x="412" y="520" type="curve" smooth="yes"/>
      <point x="640" y="520"/>
      <point x="621" y="951"/>
      <point x="900" y="951" type="curve" smooth="yes"/>
      <point x="1021" y="951"/>
      <point x="1110" y="871"/>
      <point x="1110" y="757" type="curve" smooth="yes"/>
      <point x="1110" y="674.105"/>
      <point x="1083.846" y="619.743"/>
    </contour>
  </outline>
</glyph>
<glyph name="d.sc" format="2">
  <advance width="1238"/>
  <anchor x="523" y="1040" name="Anchor-0"/>
  <anchor x="522" y="0" name="Anchor-1"/>
  <outline>
    <contour>
      <point x="52" y="32" type="curve" smooth="yes"/>
      <point x="52" y="68" type="line" smooth="yes"/>
      <point x="52" y="95"/>
      <point x="52" y="104"/>
      <point x="76" y="104" type="curve" smooth="yes"/>
      <point x="183" y="104" type="line" smooth="yes"/>
      <point x="204" y="104"/>
      <point x="205" y="109"/>
      <point x="205" y="130" type="curve" smooth="yes"/>
      <point x="205" y="907" type="line" smooth="yes"/>
      <point x="205" y="930"/>
      <point x="205" y="936"/>
      <point x="181" y="936" type="curve" smooth="yes"/>
      <point x="92" y="936" type="line" smooth="yes"/>
      <point x="61" y="936"/>
      <point x="52" y="937"/>
      <point x="52" y="970" type="curve" smooth="yes"/>
      <point x="52" y="1013" type="line" smooth="yes"/>
      <point x="52" y="1036"/>
      <point x="68" y="1040"/>
      <point x="90" y="1040" type="curve" smooth="yes"/>
      <point x="611" y="1040" type="line" smooth="yes"/>
      <point x="788" y="1040"/>
      <point x="925" y="982"/>
      <point x="1017" y="891" type="curve" smooth="yes"/>
      <point x="1102" y="807"/>
      <point x="1162" y="675"/>
      <point x="1162" y="520" type="curve" smooth="yes"/>
      <point x="1162" y="366"/>
      <point x="1098" y="234"/>
      <point x="1012" y="150" type="curve" smooth="yes"/>
      <point x="920" y="61"/>
      <point x="782" y="0"/>
      <point x="611" y="0" type="curve" smooth="yes"/>
      <point x="76" y="0" type="line" smooth="yes"/>
      <point x="53" y="0"/>
      <point x="52" y="8"/>
    </contour>
    <contour>
      <point x="413" y="104" type="curve" smooth="yes"/>
      <point x="614" y="104" type="line" smooth="yes"/>
      <point x="740" y="104"/>
      <point x="820" y="144"/>
      <point x="874" y="216" type="curve" smooth="yes"/>
      <point x="928" y="288"/>
      <point x="954" y="398"/>
      <point x="954" y="520" type="curve" smooth="yes"/>
      <point x="954" y="637"/>
      <point x="928" y="741"/>
      <point x="878" y="812" type="curve" smooth="yes"/>
      <point x="824" y="888"/>
      <point x="741" y="936"/>
      <point x="614" y="936" type="curve" smooth="yes"/>
      <point x="415" y="936" type="line" smooth="yes"/>
      <point x="389" y="936"/>
      <point x="385" y="933"/>
      <point x="385" y="907" type="curve" smooth="yes"/>
      <point x="385" y="126" type="line" smooth="yes"/>
      <point x="385" y="104"/>
      <point x="391" y="104"/>
    </contour>
  </outline>
</glyph>
<glyph name="f_f_i.liga" format="2">
  <advance height="2310" width="1990"/>
  <outline>
    <contour>
      <point x="453" y="1040" type="curve" smooth="yes"/>
      <point x="903" y="1040" type="line" smooth="yes"/>
      <point x="938" y="1040"/>
      <point x="940" y="1049"/>
      <point x="940" y="1084" type="curve" smooth="yes"/>
      <point x="942" y="1166" type="line" smooth="yes"/>
      <point x="943" y="1209"/>
      <point x="920" y="1185"/>
      <point x="889" y="1185" type="curve" smooth="yes"/>
      <point x="828" y="1186"/>
      <point x="776" y="1228"/>
      <point x="776" y="1282" type="curve" smooth="yes"/>
      <point x="776" y="1342"/>
      <point x="818" y="1356"/>
      <point x="818" y="1396" type="curve" smooth="yes"/>
      <point x="818" y="1420"/>
      <point x="762" y="1450"/>
      <point x="678" y="1450" type="curve" smooth="yes"/>
      <point x="498" y="1450"/>
      <point x="420" y="1314"/>
      <point x="420" y="1070" type="curve" smooth="yes"/>
      <point x="420" y="1044"/>
      <point x="429" y="1040"/>
    </contour>
    <contour>
      <point x="60" y="31" type="curve" smooth="yes"/>
      <point x="60" y="77" type="line" smooth="yes"/>
      <point x="60" y="104"/>
      <point x="66" y="110"/>
      <point x="92" y="110" type="curve" smooth="yes"/>
      <point x="195" y="110" type="line" smooth="yes"/>
      <point x="236" y="110"/>
      <point x="240" y="119"/>
      <point x="240" y="158" type="curve" smooth="yes"/>
      <point x="240" y="894" type="line" smooth="yes"/>
      <point x="240" y="923"/>
      <point x="237" y="930"/>
      <point x="209" y="930" type="curve" smooth="yes"/>
      <point x="89" y="930" type="line" smooth="yes"/>
      <point x="66" y="930"/>
      <point x="60" y="936"/>
      <point x="60" y="960" type="curve" smooth="yes"/>
      <point x="60" y="1016" type="line" smooth="yes"/>
      <point x="60" y="1037"/>
      <point x="76" y="1040"/>
      <point x="94" y="1040" type="curve" smooth="yes"/>
      <point x="206" y="1040" type="line" smooth="yes"/>
      <point x="234" y="1040"/>
      <point x="240" y="1045"/>
      <point x="240" y="1072" type="curve" smooth="yes"/>
      <point x="241" y="1144" type="line" smooth="yes"/>
      <point x="243" y="1385"/>
      <point x="427" y="1540"/>
      <point x="674" y="1540" type="curve" smooth="yes"/>
      <point x="806" y="1540"/>
      <point x="910" y="1493"/>
      <point x="965" y="1429" type="curve" smooth="yes"/>
      <point x="1004" y="1383"/>
      <point x="990" y="1387"/>
      <point x="1026" y="1436" type="curve" smooth="yes"/>
      <point x="1101" y="1537"/>
      <point x="1224" y="1600"/>
      <point x="1394" y="1600" type="curve" smooth="yes"/>
      <point x="1636" y="1600"/>
      <point x="1750" y="1472"/>
      <point x="1750" y="1358" type="curve" smooth="yes"/>
      <point x="1750" y="1272"/>
      <point x="1702" y="1226"/>
      <point x="1632" y="1226" type="curve" smooth="yes"/>
      <point x="1562" y="1226"/>
      <point x="1516" y="1266"/>
      <point x="1516" y="1322" type="curve" smooth="yes"/>
      <point x="1516" y="1382"/>
      <point x="1558" y="1396"/>
      <point x="1558" y="1436" type="curve" smooth="yes"/>
      <point x="1558" y="1460"/>
      <point x="1522" y="1530"/>
      <point x="1398" y="1530" type="curve" smooth="yes"/>
      <point x="1178" y="1530"/>
      <point x="1120" y="1354"/>
      <point x="1120" y="1100" type="curve" smooth="yes"/>
      <point x="1120" y="1074" type="line" smooth="yes"/>
      <point x="1120" y="1041"/>
      <point x="1138" y="1040"/>
      <point x="1168" y="1040" type="curve" smooth="yes"/>
      <point x="1741" y="1040" type="line" smooth="yes"/>
      <point x="1771" y="1040"/>
      <point x="1780" y="1036"/>
      <point x="1780" y="1004" type="curve" smooth="yes"/>
      <point x="1780" y="149" type="line" smooth="yes"/>
      <point x="1780" y="117"/>
      <point x="1785" y="110"/>
      <point x="1819" y="110" type="curve" smooth="yes"/>
      <point x="1933" y="110" type="line" smooth="yes"/>
      <point x="1955" y="110"/>
      <point x="1960" y="103"/>
      <point x="1960" y="80" type="curve" smooth="yes"/>
      <point x="1960" y="39" type="line" smooth="yes"/>
      <point x="1960" y="8"/>
      <point x="1957" y="0"/>
      <point x="1927" y="0" type="curve" smooth="yes"/>
      <point x="1454" y="0" type="line" smooth="yes"/>
      <point x="1423" y="0"/>
      <point x="1420" y="7"/>
      <point x="1420" y="39" type="curve" smooth="yes"/>
      <point x="1420" y="83" type="line" smooth="yes"/>
      <point x="1420" y="105"/>
      <point x="1427" y="110"/>
      <point x="1450" y="110" type="curve" smooth="yes"/>
      <point x="1565" y="110" type="line" smooth="yes"/>
      <point x="1595" y="110"/>
      <point x="1600" y="117"/>
      <point x="1600" y="145" type="curve" smooth="yes"/>
      <point x="1600" y="894" type="line" smooth="yes"/>
      <point x="1600" y="930"/>
      <point x="1600" y="930"/>
      <point x="1564" y="930" type="curve" smooth="yes"/>
      <point x="1156" y="930" type="line" smooth="yes"/>
      <point x="1125" y="930"/>
      <point x="1120" y="924"/>
      <point x="1120" y="892" type="curve" smooth="yes"/>
      <point x="1120" y="143" type="line" smooth="yes"/>
      <point x="1120" y="111"/>
      <point x="1129" y="110"/>
      <point x="1162" y="110" type="curve" smooth="yes"/>
      <point x="1321" y="110" type="line" smooth="yes"/>
      <point x="1345" y="110"/>
      <point x="1360" y="108"/>
      <point x="1360" y="81" type="curve" smooth="yes"/>
      <point x="1360" y="41" type="line" smooth="yes"/>
      <point x="1360" y="6"/>
      <point x="1356" y="0"/>
      <point x="1322" y="0" type="curve" smooth="yes"/>
      <point x="794" y="0" type="line" smooth="yes"/>
      <point x="764" y="0"/>
      <point x="760" y="7"/>
      <point x="760" y="38" type="curve" smooth="yes"/>
      <point x="760" y="84" type="line" smooth="yes"/>
      <point x="760" y="105"/>
      <point x="766" y="110"/>
      <point x="789" y="110" type="curve" smooth="yes"/>
      <point x="903" y="110" type="line" smooth="yes"/>
      <point x="932" y="110"/>
      <point x="940" y="115"/>
      <point x="940" y="146" type="curve" smooth="yes"/>
      <point x="940" y="882" type="line" smooth="yes"/>
      <point x="940" y="927"/>
      <point x="930" y="930"/>
      <point x="887" y="930" type="curve" smooth="yes"/>
      <point x="457" y="930" type="line" smooth="yes"/>
      <point x="425" y="930"/>
      <point x="420" y="924"/>
      <point x="420" y="890" type="curve" smooth="yes"/>
      <point x="420" y="146" type="line" smooth="yes"/>
      <point x="420" y="111"/>
      <point x="429" y="110"/>
      <point x="464" y="110" type="curve" smooth="yes"/>
      <point x="614" y="110" type="line" smooth="yes"/>
      <point x="643" y="110"/>
      <point x="660" y="109"/>
      <point x="660" y="77" type="curve" smooth="yes"/>
      <point x="660" y="34" type="line" smooth="yes"/>
      <point x="660" y="4"/>
      <point x="652" y="0"/>
      <point x="624" y="0" type="curve" smooth="yes"/>
      <point x="97" y="0" type="line" smooth="yes"/>
      <point x="68" y="0"/>
      <point x="60" y="3"/>
    </contour>
  </outline>
</glyph>
<glyph name="f_f_l.liga" format="2">
  <advance height="2310" width="1990"/>
  <outline>
    <contour>
      <point x="453" y="1040" type="curve" smooth="yes"/>
      <point x="890" y="1040" type="line" smooth="yes"/>
      <point x="936" y="1040"/>
      <point x="940" y="1047"/>
      <point x="941" y="1091" type="curve" smooth="yes"/>
      <point x="941" y="1136" type="line" smooth="yes"/>
      <point x="942" y="1192"/>
      <point x="948" y="1190"/>
      <point x="904" y="1186" type="curve" smooth="yes"/>
      <point x="836" y="1179"/>
      <point x="776" y="1223"/>
      <point x="776" y="1282" type="curve" smooth="yes"/>
      <point x="776" y="1342"/>
      <point x="818" y="1356"/>
      <point x="818" y="1396" type="curve" smooth="yes"/>
      <point x="818" y="1420"/>
      <point x="762" y="1450"/>
      <point x="678" y="1450" type="curve" smooth="yes"/>
      <point x="498" y="1450"/>
      <point x="420" y="1314"/>
      <point x="420" y="1070" type="curve" smooth="yes"/>
      <point x="420" y="1044"/>
      <point x="429" y="1040"/>
    </contour>
    <contour>
      <point x="60" y="45" type="curve" smooth="yes"/>
      <point x="60" y="65" type="line" smooth="yes"/>
      <point x="60" y="100"/>
      <point x="63" y="110"/>
      <point x="100" y="110" type="curve" smooth="yes"/>
      <point x="190" y="110" type="line" smooth="yes"/>
      <point x="230" y="110"/>
      <point x="240" y="111"/>
      <point x="240" y="151" type="curve" smooth="yes"/>
      <point x="240" y="903" type="line" smooth="yes"/>
      <point x="240" y="925"/>
      <point x="232" y="930"/>
      <point x="212" y="930" type="curve" smooth="yes"/>
      <point x="92" y="930" type="line" smooth="yes"/>
      <point x="66" y="930"/>
      <point x="60" y="935"/>
      <point x="60" y="963" type="curve" smooth="yes"/>
      <point x="60" y="1009" type="line" smooth="yes"/>
      <point x="60" y="1038"/>
      <point x="68" y="1040"/>
      <point x="98" y="1040" type="curve" smooth="yes"/>
      <point x="202" y="1040" type="line" smooth="yes"/>
      <point x="239" y="1040"/>
      <point x="240" y="1050"/>
      <point x="240" y="1087" type="curve" smooth="yes"/>
      <point x="241" y="1144" type="line" smooth="yes"/>
      <point x="243" y="1385"/>
      <point x="427" y="1540"/>
      <point x="674" y="1540" type="curve" smooth="yes"/>
      <point x="809" y="1540"/>
      <point x="913" y="1491"/>
      <point x="968" y="1425" type="curve" smooth="yes"/>
      <point x="1001" y="1385"/>
      <point x="989" y="1384"/>
      <point x="1020" y="1428" type="curve" smooth="yes"/>
      <point x="1094" y="1534"/>
      <point x="1219" y="1600"/>
      <point x="1394" y="1600" type="curve" smooth="yes"/>
      <point x="1504" y="1600"/>
      <point x="1587" y="1574"/>
      <point x="1646" y="1534" type="curve" smooth="yes"/>
      <point x="1671" y="1517"/>
      <point x="1670" y="1514"/>
      <point x="1694" y="1533" type="curve" smooth="yes"/>
      <point x="1736" y="1566" type="line" smooth="yes"/>
      <point x="1768" y="1591"/>
      <point x="1780" y="1617"/>
      <point x="1780" y="1549" type="curve" smooth="yes"/>
      <point x="1780" y="163" type="line" smooth="yes"/>
      <point x="1780" y="120"/>
      <point x="1781" y="110"/>
      <point x="1824" y="110" type="curve" smooth="yes"/>
      <point x="1928" y="110" type="line" smooth="yes"/>
      <point x="1953" y="110"/>
      <point x="1960" y="107"/>
      <point x="1960" y="83" type="curve" smooth="yes"/>
      <point x="1960" y="43" type="line" smooth="yes"/>
      <point x="1960" y="5"/>
      <point x="1953" y="0"/>
      <point x="1916" y="0" type="curve" smooth="yes"/>
      <point x="1460" y="0" type="line" smooth="yes"/>
      <point x="1425" y="0"/>
      <point x="1420" y="8"/>
      <point x="1420" y="41" type="curve" smooth="yes"/>
      <point x="1420" y="61" type="line" smooth="yes"/>
      <point x="1420" y="100"/>
      <point x="1421" y="110"/>
      <point x="1460" y="110" type="curve" smooth="yes"/>
      <point x="1550" y="110" type="line" smooth="yes"/>
      <point x="1594" y="110"/>
      <point x="1600" y="115"/>
      <point x="1600" y="161" type="curve" smooth="yes"/>
      <point x="1600" y="1203" type="line" smooth="yes"/>
      <point x="1600" y="1238"/>
      <point x="1585" y="1230"/>
      <point x="1564" y="1242" type="curve" smooth="yes"/>
      <point x="1534" y="1259"/>
      <point x="1516" y="1287"/>
      <point x="1516" y="1322" type="curve" smooth="yes"/>
      <point x="1516" y="1382"/>
      <point x="1558" y="1396"/>
      <point x="1558" y="1436" type="curve" smooth="yes"/>
      <point x="1558" y="1460"/>
      <point x="1522" y="1530"/>
      <point x="1398" y="1530" type="curve" smooth="yes"/>
      <point x="1178" y="1530"/>
      <point x="1120" y="1354"/>
      <point x="1120" y="1100" type="curve" smooth="yes"/>
      <point x="1120" y="1087" type="line" smooth="yes"/>
      <point x="1120" y="1050"/>
      <point x="1121" y="1040"/>
      <point x="1158" y="1040" type="curve" smooth="yes"/>
      <point x="1362" y="1040" type="line" smooth="yes"/>
      <point x="1404" y="1040"/>
      <point x="1420" y="1030"/>
      <point x="1420" y="985" type="curve" smooth="yes"/>
      <point x="1420" y="971" type="line" smooth="yes"/>
      <point x="1420" y="933"/>
      <point x="1410" y="930"/>
      <point x="1374" y="930" type="curve" smooth="yes"/>
      <point x="1152" y="930" type="line" smooth="yes"/>
      <point x="1125" y="930"/>
      <point x="1120" y="924"/>
      <point x="1120" y="895" type="curve" smooth="yes"/>
      <point x="1120" y="173" type="line" smooth="yes"/>
      <point x="1120" y="114"/>
      <point x="1127" y="110"/>
      <point x="1184" y="110" type="curve" smooth="yes"/>
      <point x="1316" y="110" type="line" smooth="yes"/>
      <point x="1348" y="110"/>
      <point x="1360" y="108"/>
      <point x="1360" y="73" type="curve" smooth="yes"/>
      <point x="1360" y="35" type="line" smooth="yes"/>
      <point x="1360" y="5"/>
      <point x="1354" y="0"/>
      <point x="1326" y="0" type="curve" smooth="yes"/>
      <point x="800" y="0" type="line" smooth="yes"/>
      <point x="774" y="0"/>
      <point x="760" y="2"/>
      <point x="760" y="31" type="curve" smooth="yes"/>
      <point x="760" y="71" type="line" smooth="yes"/>
      <point x="760" y="105"/>
      <point x="766" y="110"/>
      <point x="802" y="110" type="curve" smooth="yes"/>
      <point x="884" y="110" type="line" smooth="yes"/>
      <point x="935" y="110"/>
      <point x="940" y="116"/>
      <point x="940" y="165" type="curve" smooth="yes"/>
      <point x="940" y="883" type="line" smooth="yes"/>
      <point x="940" y="924"/>
      <point x="935" y="930"/>
      <point x="896" y="930" type="curve" smooth="yes"/>
      <point x="470" y="930" type="line" smooth="yes"/>
      <point x="427" y="930"/>
      <point x="420" y="927"/>
      <point x="420" y="885" type="curve" smooth="yes"/>
      <point x="420" y="163" type="line" smooth="yes"/>
      <point x="420" y="111"/>
      <point x="424" y="110"/>
      <point x="477" y="110" type="curve" smooth="yes"/>
      <point x="614" y="110" type="line" smooth="yes"/>
      <point x="641" y="110"/>
      <point x="660" y="109"/>
      <point x="660" y="79" type="curve" smooth="yes"/>
      <point x="660" y="45" type="line" smooth="yes"/>
      <point x="660" y="9"/>
      <point x="658" y="0"/>
      <point x="622" y="0" type="curve" smooth="yes"/>
      <point x="100" y="0" type="line" smooth="yes"/>
      <point x="63" y="0"/>
      <point x="60" y="7"/>
    </contour>
  </outline>
</glyph>
<glyph name="five.osf" format="2">
  <advance height="2310" width="1030"/>
  <outline>
    <contour>
      <point x="60" y="-182" type="curve" smooth="yes"/>
      <point x="60" y="-86"/>
      <point x="130" y="-50"/>
      <point x="188" y="-50" type="curve" smooth="yes"/>
      <point x="242" y="-50"/>
      <point x="302" y="-92"/>
      <point x="302" y="-166" type="curve" smooth="yes"/>
      <point x="302" y="-238"/>
      <point x="238" y="-248"/>
      <point x="238" y="-294" type="curve" smooth="yes"/>
      <point x="238" y="-348"/>
      <point x="324" y="-396"/>
      <point x="432" y="-396" type="curve" smooth="yes"/>
      <point x="630" y="-396"/>
      <point x="768" y="-208"/>
      <point x="768" y="0" type="curve" smooth="yes"/>
      <point x="768" y="268"/>
      <point x="650" y="442"/>
      <point x="472" y="442" type="curve" smooth="yes"/>
      <point x="359" y="442"/>
      <point x="296" y="419"/>
      <point x="234" y="343" type="curve" smooth="yes"/>
      <point x="218" y="324"/>
      <point x="211" y="314"/>
      <point x="173" y="314" type="curve" smooth="yes"/>
      <point x="131" y="314" type="line" smooth="yes"/>
      <point x="93" y="314"/>
      <point x="96" y="328"/>
      <point x="100" y="358" type="curve" smooth="yes"/>
      <point x="183" y="1002" type="line" smooth="yes"/>
      <point x="187" y="1033"/>
      <point x="194" y="1040"/>
      <point x="228" y="1040" type="curve" smooth="yes"/>
      <point x="474" y="1040" type="line" smooth="yes"/>
      <point x="696" y="1040"/>
      <point x="738" y="1009"/>
      <point x="798" y="1076" type="curve" smooth="yes"/>
      <point x="808" y="1087"/>
      <point x="812" y="1104"/>
      <point x="837" y="1104" type="curve" smooth="yes"/>
      <point x="894" y="1104" type="line" smooth="yes"/>
      <point x="908" y="1104"/>
      <point x="911" y="1102"/>
      <point x="908" y="1090" type="curve" smooth="yes"/>
      <point x="896" y="1040" type="line" smooth="yes"/>
      <point x="860" y="876"/>
      <point x="824" y="860"/>
      <point x="350" y="860" type="curve" smooth="yes"/>
      <point x="306" y="860" type="line" smooth="yes"/>
      <point x="276" y="860"/>
      <point x="265" y="856"/>
      <point x="261" y="828" type="curve" smooth="yes"/>
      <point x="219" y="506" type="line" smooth="yes"/>
      <point x="213" y="458"/>
      <point x="203" y="434"/>
      <point x="211" y="430" type="curve" smooth="yes"/>
      <point x="224" y="424"/>
      <point x="230" y="446"/>
      <point x="266" y="474" type="curve" smooth="yes"/>
      <point x="317" y="514"/>
      <point x="388" y="540"/>
      <point x="496" y="540" type="curve" smooth="yes"/>
      <point x="818" y="540"/>
      <point x="970" y="320"/>
      <point x="970" y="40" type="curve" smooth="yes"/>
      <point x="970" y="-260"/>
      <point x="734" y="-480"/>
      <point x="452" y="-480" type="curve" smooth="yes"/>
      <point x="208" y="-480"/>
      <point x="60" y="-346"/>
    </contour>
  </outline>
</glyph>
<glyph name="five.tosf" format="2">
  <advance height="2310" width="1100"/>
  <outline>
    <contour>
      <point x="95" y="-182" type="curve" smooth="yes"/>
      <point x="95" y="-86"/>
      <point x="165" y="-50"/>
      <point x="223" y="-50" type="curve" smooth="yes"/>
      <point x="277" y="-50"/>
      <point x="337" y="-92"/>
      <point x="337" y="-166" type="curve" smooth="yes"/>
      <point x="337" y="-238"/>
      <point x="273" y="-248"/>
      <point x="273" y="-294" type="curve" smooth="yes"/>
      <point x="273" y="-348"/>
      <point x="359" y="-396"/>
      <point x="467" y="-396" type="curve" smooth="yes"/>
      <point x="665" y="-396"/>
      <point x="803" y="-208"/>
      <point x="803" y="0" type="curve" smooth="yes"/>
      <point x="803" y="268"/>
      <point x="685" y="442"/>
      <point x="507" y="442" type="curve" smooth="yes"/>
      <point x="394" y="442"/>
      <point x="331" y="419"/>
      <point x="269" y="343" type="curve" smooth="yes"/>
      <point x="253" y="324"/>
      <point x="246" y="314"/>
      <point x="208" y="314" type="curve" smooth="yes"/>
      <point x="166" y="314" type="line" smooth="yes"/>
      <point x="128" y="314"/>
      <point x="131" y="328"/>
      <point x="135" y="358" type="curve" smooth="yes"/>
      <point x="218" y="1002" type="line" smooth="yes"/>
      <point x="222" y="1033"/>
      <point x="229" y="1040"/>
      <point x="263" y="1040" type="curve" smooth="yes"/>
      <point x="509" y="1040" type="line" smooth="yes"/>
      <point x="731" y="1040"/>
      <point x="773" y="1009"/>
      <point x="833" y="1076" type="curve" smooth="yes"/>
      <point x="843" y="1087"/>
      <point x="847" y="1104"/>
      <point x="872" y="1104" type="curve" smooth="yes"/>
      <point x="929" y="1104" type="line" smooth="yes"/>
      <point x="943" y="1104"/>
      <point x="946" y="1102"/>
      <point x="943" y="1090" type="curve" smooth="yes"/>
      <point x="931" y="1040" type="line" smooth="yes"/>
      <point x="895" y="876"/>
      <point x="859" y="860"/>
      <point x="385" y="860" type="curve" smooth="yes"/>
      <point x="341" y="860" type="line" smooth="yes"/>
      <point x="311" y="860"/>
      <point x="300" y="856"/>
      <point x="296" y="828" type="curve" smooth="yes"/>
      <point x="254" y="506" type="line" smooth="yes"/>
      <point x="248" y="458"/>
      <point x="238" y="434"/>
      <point x="246" y="430" type="curve" smooth="yes"/>
      <point x="259" y="424"/>
      <point x="265" y="446"/>
      <point x="301" y="474" type="curve" smooth="yes"/>
      <point x="352" y="514"/>
      <point x="423" y="540"/>
      <point x="531" y="540" type="curve" smooth="yes"/>
      <point x="853" y="540"/>
      <point x="1005" y="320"/>
      <point x="1005" y="40" type="curve" smooth="yes"/>
      <point x="1005" y="-260"/>
      <point x="769" y="-480"/>
      <point x="487" y="-480" type="curve" smooth="yes"/>
      <point x="243" y="-480"/>
      <point x="95" y="-346"/>
    </contour>
  </outline>
</glyph>
<glyph name="o.sc" format="2">
  <advance width="1267"/>
  <anchor x="631" y="1048" name="Anchor-0"/>
  <anchor x="631" y="-9" name="Anchor-1"/>
  <outline>
    <contour>
      <point x="76" y="520" type="curve" smooth="yes"/>
      <point x="76" y="848"/>
      <point x="302" y="1067"/>
      <point x="634" y="1067" type="curve" smooth="yes"/>
      <point x="967" y="1067"/>
      <point x="1191" y="848"/>
      <point x="1191" y="520" type="curve" smooth="yes"/>
      <point x="1191" y="198"/>
      <point x="958" y="-28"/>
      <point x="634" y="-28" type="curve" smooth="yes"/>
      <point x="302" y="-28"/>
      <point x="76" y="193"/>
    </contour>
    <contour>
      <point x="294" y="520" type="curve" smooth="yes"/>
      <point x="294" y="275"/>
      <point x="390" y="68"/>
      <point x="634" y="68" type="curve" smooth="yes"/>
      <point x="888" y="68"/>
      <point x="973" y="268"/>
      <point x="973" y="520" type="curve" smooth="yes"/>
      <point x="973" y="766"/>
      <point x="880" y="971"/>
      <point x="634" y="971" type="curve" smooth="yes"/>
      <point x="388" y="971"/>
      <point x="294" y="766"/>
    </contour>
  </outline>
</glyph>
<glyph name="one.osf" format="2">
  <advance height="2310" width="1050"/>
  <outline>
    <contour>
      <point x="100" y="28" type="curve" smooth="yes"/>
      <point x="100" y="80" type="line" smooth="yes"/>
      <point x="100" y="105"/>
      <point x="107" y="110"/>
      <point x="130" y="110" type="curve" smooth="yes"/>
      <point x="410" y="110" type="line" smooth="yes"/>
      <point x="434" y="110"/>
      <point x="440" y="116"/>
      <point x="440" y="139" type="curve" smooth="yes"/>
      <point x="440" y="776" type="line" smooth="yes"/>
      <point x="440" y="811"/>
      <point x="439" y="820"/>
      <point x="404" y="820" type="curve" smooth="yes"/>
      <point x="170" y="820" type="line" smooth="yes"/>
      <point x="140" y="820"/>
      <point x="134" y="826"/>
      <point x="134" y="857" type="curve" smooth="yes"/>
      <point x="134" y="892" type="line" smooth="yes"/>
      <point x="134" y="920"/>
      <point x="134" y="930"/>
      <point x="162" y="930" type="curve" smooth="yes"/>
      <point x="364" y="931"/>
      <point x="438" y="945"/>
      <point x="529" y="1154" type="curve" smooth="yes"/>
      <point x="537" y="1172"/>
      <point x="540" y="1180"/>
      <point x="567" y="1180" type="curve" smooth="yes"/>
      <point x="600" y="1180" type="line" smooth="yes"/>
      <point x="629" y="1180"/>
      <point x="630" y="1171"/>
      <point x="630" y="1141" type="curve" smooth="yes"/>
      <point x="630" y="150" type="line" smooth="yes"/>
      <point x="630" y="117"/>
      <point x="634" y="110"/>
      <point x="666" y="110" type="curve" smooth="yes"/>
      <point x="918" y="110" type="line" smooth="yes"/>
      <point x="941" y="110"/>
      <point x="950" y="109"/>
      <point x="950" y="86" type="curve" smooth="yes"/>
      <point x="950" y="31" type="line" smooth="yes"/>
      <point x="950" y="1"/>
      <point x="941" y="0"/>
      <point x="910" y="0" type="curve" smooth="yes"/>
      <point x="130" y="0" type="line" smooth="yes"/>
      <point x="109" y="0"/>
      <point x="100" y="5"/>
    </contour>
  </outline>
</glyph>
<glyph name="two.osf" format="2">
  <advance height="2310" width="1090"/>
  <outline>
    <contour>
      <point x="1020" y="290" type="curve" smooth="yes"/>
      <point x="1014" y="19"/>
      <point x="913" y="-60"/>
      <point x="740" y="-60" type="curve" smooth="yes"/>
      <point x="526" y="-60"/>
      <point x="476" y="60"/>
      <point x="310" y="60" type="curve" smooth="yes"/>
      <point x="241" y="60"/>
      <point x="208" y="31"/>
      <point x="188" y="-14" type="curve" smooth="yes"/>
      <point x="178" y="-37"/>
      <point x="172" y="-40"/>
      <point x="137" y="-40" type="curve" smooth="yes"/>
      <point x="108" y="-40" type="line" smooth="yes"/>
      <point x="86" y="-40"/>
      <point x="79" y="-34"/>
      <point x="80" y="-14" type="curve" smooth="yes"/>
      <point x="91" y="265"/>
      <point x="275" y="440"/>
      <point x="504" y="538" type="curve" smooth="yes"/>
      <point x="710" y="626"/>
      <point x="774" y="712"/>
      <point x="774" y="840" type="curve" smooth="yes"/>
      <point x="774" y="988"/>
      <point x="702" y="1056"/>
      <point x="544" y="1056" type="curve" smooth="yes"/>
      <point x="396" y="1056"/>
      <point x="290" y="998"/>
      <point x="290" y="944" type="curve" smooth="yes"/>
      <point x="290" y="898"/>
      <point x="354" y="888"/>
      <point x="354" y="816" type="curve" smooth="yes"/>
      <point x="354" y="742"/>
      <point x="294" y="700"/>
      <point x="240" y="700" type="curve" smooth="yes"/>
      <point x="182" y="700"/>
      <point x="112" y="736"/>
      <point x="112" y="832" type="curve" smooth="yes"/>
      <point x="112" y="996"/>
      <point x="300" y="1140"/>
      <point x="544" y="1140" type="curve" smooth="yes"/>
      <point x="786" y="1140"/>
      <point x="996" y="1040"/>
      <point x="996" y="820" type="curve" smooth="yes"/>
      <point x="996" y="660"/>
      <point x="862" y="519"/>
      <point x="534" y="420" type="curve" smooth="yes"/>
      <point x="415" y="384"/>
      <point x="315" y="309"/>
      <point x="250" y="214" type="curve" smooth="yes"/>
      <point x="225" y="178"/>
      <point x="210" y="150"/>
      <point x="215" y="144" type="curve" smooth="yes"/>
      <point x="220" y="138"/>
      <point x="233" y="162"/>
      <point x="272" y="177" type="curve" smooth="yes"/>
      <point x="302" y="188"/>
      <point x="337" y="194"/>
      <point x="380" y="194" type="curve" smooth="yes"/>
      <point x="580" y="194"/>
      <point x="600" y="126"/>
      <point x="752" y="126" type="curve" smooth="yes"/>
      <point x="869" y="126"/>
      <point x="918" y="181"/>
      <point x="925" y="287" type="curve" smooth="yes"/>
      <point x="927" y="312"/>
      <point x="932" y="314"/>
      <point x="959" y="314" type="curve" smooth="yes"/>
      <point x="989" y="314" type="line" smooth="yes"/>
      <point x="1013" y="314"/>
      <point x="1020" y="314"/>
    </contour>
  </outline>
</glyph>
<glyph name="zero.tf" format="2">
  <advance width="1100"/>
  <outline>
    <contour>
      <point x="91" y="750" type="curve" smooth="yes"/>
      <point x="91" y="1316"/>
      <point x="329" y="1520"/>
      <point x="550" y="1520" type="curve" smooth="yes"/>
      <point x="789" y="1520"/>
      <point x="1009" y="1316"/>
      <point x="1009" y="750" type="curve" smooth="yes"/>
      <point x="1009" y="184"/>
      <point x="753" y="-20"/>
      <point x="550" y="-20" type="curve" smooth="yes"/>
      <point x="329" y="-20"/>
      <point x="91" y="184"/>
    </contour>
    <contour>
      <point x="289" y="750" type="curve" smooth="yes"/>
      <point x="289" y="266"/>
      <point x="399" y="80"/>
      <point x="550" y="80" type="curve" smooth="yes"/>
      <point x="719" y="80"/>
      <point x="811" y="266"/>
      <point x="811" y="750" type="curve" smooth="yes"/>
      <point x="811" y="1234"/>
      <point x="719" y="1420"/>
      <point x="550" y="1420" type="curve" smooth="yes"/>
      <point x="399" y="1420"/>
      <point x="289" y="1234"/>
    </contour>
  </outline>
</glyph>
